NotoSerifTamilSlanted-CondensedSemiBoldItalic.ufo
<glyph name="exclam" format="2">
  <advance width="330"/>
  <unicode hex="0021"/>
  <outline>
    <contour>
      <point x="134" y="223" type="line"/>
      <point x="190" y="223" type="line"/>
      <point x="351" y="714" type="line"/>
      <point x="200" y="714" type="line"/>
    </contour>
    <contour>
      <point x="133" y="-8" type="curve" smooth="yes"/>
      <point x="170" y="-8"/>
      <point x="211" y="15"/>
      <point x="211" y="80" type="curve" smooth="yes"/>
      <point x="211" y="126"/>
      <point x="183" y="147"/>
      <point x="144" y="147" type="curve" smooth="yes"/>
      <point x="98" y="147"/>
      <point x="67" y="111"/>
      <point x="67" y="61" type="curve" smooth="yes"/>
      <point x="67" y="18"/>
      <point x="94" y="-8"/>
    </contour>
  </outline>
</glyph>
<glyph name="numbersign" format="2">
  <advance width="452"/>
  <unicode hex="0023"/>
  <outline>
    <contour>
      <point x="45" y="0" type="line"/>
      <point x="105" y="0" type="line"/>
      <point x="161" y="201" type="line"/>
      <point x="258" y="201" type="line"/>
      <point x="203" y="0" type="line"/>
      <point x="262" y="0" type="line"/>
      <point x="317" y="201" type="line"/>
      <point x="413" y="201" type="line"/>
      <point x="421" y="267" type="line"/>
      <point x="337" y="267" type="line"/>
      <point x="387" y="452" type="line"/>
      <point x="470" y="452" type="line"/>
      <point x="479" y="519" type="line"/>
      <point x="407" y="519" type="line"/>
      <point x="461" y="714" type="line"/>
      <point x="402" y="714" type="line"/>
      <point x="348" y="519" type="line"/>
      <point x="251" y="519" type="line"/>
      <point x="303" y="714" type="line"/>
      <point x="244" y="714" type="line"/>
      <point x="192" y="519" type="line"/>
      <point x="98" y="519" type="line"/>
      <point x="89" y="452" type="line"/>
      <point x="172" y="452" type="line"/>
      <point x="121" y="267" type="line"/>
      <point x="40" y="267" type="line"/>
      <point x="32" y="201" type="line"/>
      <point x="102" y="201" type="line"/>
    </contour>
    <contour>
      <point x="179" y="267" type="line"/>
      <point x="230" y="452" type="line"/>
      <point x="328" y="452" type="line"/>
      <point x="277" y="267" type="line"/>
    </contour>
  </outline>
</glyph>
<glyph name="percent" format="2">
  <advance width="749"/>
  <unicode hex="0025"/>
  <outline>
    <contour>
      <point x="159" y="0" type="line"/>
      <point x="223" y="0" type="line"/>
      <point x="650" y="714" type="line"/>
      <point x="588.99" y="714" type="line"/>
    </contour>
    <contour>
      <point x="186" y="280" type="curve" smooth="yes"/>
      <point x="325" y="280"/>
      <point x="392" y="470"/>
      <point x="392" y="583" type="curve" smooth="yes"/>
      <point x="392" y="665"/>
      <point x="357" y="724"/>
      <point x="278" y="724" type="curve" smooth="yes"/>
      <point x="140" y="724"/>
      <point x="76" y="539"/>
      <point x="76" y="419" type="curve" smooth="yes"/>
      <point x="76" y="327"/>
      <point x="119" y="280"/>
    </contour>
    <contour>
      <point x="200" y="328" type="curve" smooth="yes"/>
      <point x="177" y="328"/>
      <point x="168" y="358"/>
      <point x="168" y="405" type="curve" smooth="yes"/>
      <point x="168" y="489"/>
      <point x="210" y="674"/>
      <point x="273" y="674" type="curve" smooth="yes"/>
      <point x="297" y="674"/>
      <point x="305" y="647"/>
      <point x="305" y="601" type="curve" smooth="yes"/>
      <point x="305" y="515"/>
      <point x="263" y="328"/>
    </contour>
    <contour>
      <point x="531" y="-9" type="curve" smooth="yes"/>
      <point x="670" y="-9"/>
      <point x="736" y="181"/>
      <point x="736" y="293" type="curve" smooth="yes"/>
      <point x="736" y="375"/>
      <point x="702" y="434"/>
      <point x="622" y="434" type="curve" smooth="yes"/>
      <point x="485" y="434"/>
      <point x="421" y="250"/>
      <point x="421" y="129" type="curve" smooth="yes"/>
      <point x="421" y="38"/>
      <point x="463" y="-9"/>
    </contour>
    <contour>
      <point x="543" y="39" type="curve" smooth="yes"/>
      <point x="521" y="39"/>
      <point x="512" y="68"/>
      <point x="512" y="116" type="curve" smooth="yes"/>
      <point x="512" y="199"/>
      <point x="554" y="385"/>
      <point x="617" y="385" type="curve" smooth="yes"/>
      <point x="641" y="385"/>
      <point x="649" y="357"/>
      <point x="649" y="311" type="curve" smooth="yes"/>
      <point x="649" y="225"/>
      <point x="608" y="39"/>
    </contour>
  </outline>
</glyph>
<glyph name="parenright" format="2">
  <advance width="333"/>
  <unicode hex="0029"/>
  <outline>
    <contour>
      <point x="-41" y="-137" type="line"/>
      <point x="208" y="-65"/>
      <point x="331" y="222"/>
      <point x="331" y="464" type="curve" smooth="yes"/>
      <point x="331" y="598"/>
      <point x="278" y="714"/>
      <point x="151" y="767" type="curve"/>
      <point x="138" y="708" type="line"/>
      <point x="183" y="665"/>
      <point x="198" y="580"/>
      <point x="198" y="503" type="curve" smooth="yes"/>
      <point x="198" y="377"/>
      <point x="151" y="41"/>
      <point x="-30" y="-79" type="curve"/>
    </contour>
  </outline>
</glyph>
<glyph name="asterisk" format="2">
  <advance width="475"/>
  <unicode hex="002A"/>
  <outline>
    <contour>
      <point x="317" y="363" type="line"/>
      <point x="322" y="527" type="line"/>
      <point x="417" y="396" type="line"/>
      <point x="475" y="478" type="line"/>
      <point x="363" y="553" type="line"/>
      <point x="491" y="561" type="line"/>
      <point x="475" y="662" type="line"/>
      <point x="337" y="594" type="line"/>
      <point x="400" y="743" type="line"/>
      <point x="308" y="765" type="line"/>
      <point x="301" y="600" type="line"/>
      <point x="208" y="735" type="line"/>
      <point x="150" y="651" type="line"/>
      <point x="262" y="576" type="line"/>
      <point x="133" y="565" type="line"/>
      <point x="150" y="466" type="line"/>
      <point x="287" y="536" type="line"/>
      <point x="226" y="384" type="line"/>
    </contour>
  </outline>
</glyph>
<glyph name="plus" format="2">
  <advance width="425"/>
  <unicode hex="002B"/>
  <outline>
    <contour>
      <point x="205" y="143" type="line"/>
      <point x="274" y="143" type="line"/>
      <point x="274" y="324" type="line"/>
      <point x="414" y="324" type="line"/>
      <point x="414" y="391" type="line"/>
      <point x="274" y="391" type="line"/>
      <point x="274" y="572" type="line"/>
      <point x="205" y="572" type="line"/>
      <point x="205" y="391" type="line"/>
      <point x="65" y="391" type="line"/>
      <point x="65" y="324" type="line"/>
      <point x="205" y="324" type="line"/>
    </contour>
  </outline>
</glyph>
<glyph name="comma" format="2">
  <advance width="255"/>
  <unicode hex="002C"/>
  <outline>
    <contour>
      <point x="-17" y="-150" type="line"/>
      <point x="109" y="-122"/>
      <point x="176" y="-39"/>
      <point x="176" y="60" type="curve" smooth="yes"/>
      <point x="176" y="115"/>
      <point x="145" y="146"/>
      <point x="107" y="146" type="curve" smooth="yes"/>
      <point x="73" y="146"/>
      <point x="42" y="120"/>
      <point x="42" y="76" type="curve" smooth="yes"/>
      <point x="42" y="24"/>
      <point x="82" y="23"/>
      <point x="82" y="-14" type="curve" smooth="yes"/>
      <point x="82" y="-55"/>
      <point x="53" y="-83"/>
      <point x="-5" y="-100" type="curve"/>
    </contour>
  </outline>
</glyph>
<glyph name="hyphen" format="2">
  <advance width="251"/>
  <unicode hex="002D"/>
  <outline>
    <contour>
      <point x="17" y="225" type="line"/>
      <point x="227" y="225" type="line"/>
      <point x="251" y="320" type="line"/>
      <point x="40" y="320" type="line"/>
    </contour>
  </outline>
</glyph>
<glyph name="period" format="2">
  <advance width="255"/>
  <unicode hex="002E"/>
  <outline>
    <contour>
      <point x="97" y="-8" type="curve" smooth="yes"/>
      <point x="134" y="-8"/>
      <point x="175" y="15"/>
      <point x="175" y="80" type="curve" smooth="yes"/>
      <point x="175" y="126"/>
      <point x="147" y="147"/>
      <point x="108" y="147" type="curve" smooth="yes"/>
      <point x="62" y="147"/>
      <point x="31" y="111"/>
      <point x="31" y="61" type="curve" smooth="yes"/>
      <point x="31" y="18"/>
      <point x="58" y="-8"/>
    </contour>
  </outline>
</glyph>
<glyph name="slash" format="2">
  <advance width="233"/>
  <unicode hex="002F"/>
  <outline>
    <contour>
      <point x="-90" y="-121" type="line"/>
      <point x="-25" y="-121" type="line"/>
      <point x="358" y="760" type="line"/>
      <point x="292" y="760" type="line"/>
    </contour>
  </outline>
</glyph>
<glyph name="zero" format="2">
  <advance width="486"/>
  <unicode hex="0030"/>
  <outline>
    <contour>
      <point x="213" y="-11" type="curve" smooth="yes"/>
      <point x="407" y="-11"/>
      <point x="496" y="320"/>
      <point x="496" y="513" type="curve" smooth="yes"/>
      <point x="496" y="659"/>
      <point x="428" y="725"/>
      <point x="338" y="725" type="curve" smooth="yes"/>
      <point x="144" y="725"/>
      <point x="52" y="414"/>
      <point x="52" y="212" type="curve" smooth="yes"/>
      <point x="52" y="67"/>
      <point x="116" y="-11"/>
    </contour>
    <contour>
      <point x="220" y="54" type="curve" smooth="yes"/>
      <point x="188" y="54"/>
      <point x="168" y="94"/>
      <point x="168" y="174" type="curve" smooth="yes"/>
      <point x="168" y="339"/>
      <point x="240" y="661"/>
      <point x="332" y="661" type="curve" smooth="yes"/>
      <point x="366" y="661"/>
      <point x="385" y="621"/>
      <point x="385" y="543" type="curve" smooth="yes"/>
      <point x="385" y="381"/>
      <point x="317" y="54"/>
    </contour>
  </outline>
</glyph>
<glyph name="one" format="2">
  <advance width="486"/>
  <unicode hex="0031"/>
  <outline>
    <contour>
      <point x="43" y="0" type="line"/>
      <point x="383" y="0" type="line"/>
      <point x="394" y="50" type="line"/>
      <point x="355" y="50" type="line" smooth="yes"/>
      <point x="322" y="50"/>
      <point x="296" y="54"/>
      <point x="296" y="83" type="curve" smooth="yes"/>
      <point x="296" y="91"/>
      <point x="299" y="108"/>
      <point x="303" y="128" type="curve" smooth="yes"/>
      <point x="429" y="718" type="line"/>
      <point x="331" y="718" type="line"/>
      <point x="264" y="666" type="line" smooth="yes"/>
      <point x="200" y="617"/>
      <point x="160" y="601"/>
      <point x="122" y="589" type="curve"/>
      <point x="120" y="546"/>
      <point x="137" y="521"/>
      <point x="160" y="521" type="curve" smooth="yes"/>
      <point x="194" y="521"/>
      <point x="230" y="558"/>
      <point x="284" y="625" type="curve"/>
      <point x="287" y="625" type="line"/>
      <point x="272" y="585"/>
      <point x="263" y="540"/>
      <point x="252" y="485" type="curve" smooth="yes"/>
      <point x="175" y="116" type="line" smooth="yes"/>
      <point x="164" y="65"/>
      <point x="141" y="50"/>
      <point x="103" y="50" type="curve" smooth="yes"/>
      <point x="54" y="50" type="line"/>
    </contour>
  </outline>
</glyph>
<glyph name="two" format="2">
  <advance width="486"/>
  <unicode hex="0032"/>
  <outline>
    <contour>
      <point x="-8" y="0" type="line"/>
      <point x="381" y="0" type="line"/>
      <point x="431" y="199" type="line"/>
      <point x="380" y="199" type="line"/>
      <point x="373" y="182" type="line" smooth="yes"/>
      <point x="358" y="141"/>
      <point x="338" y="102"/>
      <point x="285" y="102" type="curve" smooth="yes"/>
      <point x="97" y="102" type="line"/>
      <point x="251" y="254" type="line"/>
      <point x="436" y="411"/>
      <point x="490" y="485"/>
      <point x="490" y="589" type="curve" smooth="yes"/>
      <point x="490" y="672"/>
      <point x="429" y="724"/>
      <point x="320" y="724" type="curve" smooth="yes"/>
      <point x="192" y="724"/>
      <point x="122" y="655"/>
      <point x="122" y="578" type="curve" smooth="yes"/>
      <point x="122" y="526"/>
      <point x="163" y="501"/>
      <point x="220" y="501" type="curve"/>
      <point x="227" y="593"/>
      <point x="259" y="666"/>
      <point x="308" y="666" type="curve" smooth="yes"/>
      <point x="340" y="666"/>
      <point x="358" y="630"/>
      <point x="358" y="580" type="curve" smooth="yes"/>
      <point x="358" y="494"/>
      <point x="333" y="424"/>
      <point x="209" y="298" type="curve" smooth="yes"/>
      <point x="12" y="97" type="line"/>
    </contour>
  </outline>
</glyph>
<glyph name="three" format="2">
  <advance width="486"/>
  <unicode hex="0033"/>
  <outline>
    <contour>
      <point x="179" y="-10" type="curve" smooth="yes"/>
      <point x="293" y="-10"/>
      <point x="435" y="50"/>
      <point x="435" y="233" type="curve" smooth="yes"/>
      <point x="435" y="313"/>
      <point x="390" y="363"/>
      <point x="319" y="372" type="curve"/>
      <point x="432" y="397"/>
      <point x="491" y="493"/>
      <point x="491" y="587" type="curve" smooth="yes"/>
      <point x="491" y="674"/>
      <point x="424" y="724"/>
      <point x="325" y="724" type="curve" smooth="yes"/>
      <point x="210" y="724"/>
      <point x="118" y="657"/>
      <point x="118" y="575" type="curve" smooth="yes"/>
      <point x="118" y="531"/>
      <point x="160" y="517"/>
      <point x="214" y="517" type="curve"/>
      <point x="228" y="596"/>
      <point x="252" y="666"/>
      <point x="308" y="666" type="curve" smooth="yes"/>
      <point x="346" y="666"/>
      <point x="361" y="633"/>
      <point x="361" y="586" type="curve" smooth="yes"/>
      <point x="361" y="473"/>
      <point x="289" y="399"/>
      <point x="192" y="399" type="curve" smooth="yes"/>
      <point x="166" y="399" type="line"/>
      <point x="156" y="340" type="line"/>
      <point x="191" y="340" type="line" smooth="yes"/>
      <point x="264" y="340"/>
      <point x="303" y="299"/>
      <point x="303" y="227" type="curve" smooth="yes"/>
      <point x="303" y="114"/>
      <point x="246" y="57"/>
      <point x="193" y="57" type="curve" smooth="yes"/>
      <point x="131" y="57"/>
      <point x="105" y="115"/>
      <point x="108" y="189" type="curve"/>
      <point x="46" y="189"/>
      <point x="10" y="158"/>
      <point x="10" y="105" type="curve" smooth="yes"/>
      <point x="10" y="50"/>
      <point x="54" y="-10"/>
    </contour>
  </outline>
</glyph>
<glyph name="four" format="2">
  <advance width="486"/>
  <unicode hex="0034"/>
  <outline>
    <contour>
      <point x="116" y="0" type="line"/>
      <point x="404" y="0" type="line"/>
      <point x="416" y="50" type="line"/>
      <point x="402" y="50" type="line" smooth="yes"/>
      <point x="371" y="50"/>
      <point x="352" y="55"/>
      <point x="352" y="86" type="curve" smooth="yes"/>
      <point x="352" y="94"/>
      <point x="354" y="111"/>
      <point x="356" y="120" type="curve" smooth="yes"/>
      <point x="481" y="714" type="line"/>
      <point x="356" y="714" type="line"/>
      <point x="38" y="245" type="line"/>
      <point x="24" y="190" type="line"/>
      <point x="449" y="190" type="line"/>
      <point x="463" y="251" type="line"/>
      <point x="72" y="251" type="line"/>
      <point x="84" y="229" type="line"/>
      <point x="249" y="468" type="line" smooth="yes"/>
      <point x="275" y="506"/>
      <point x="316" y="572"/>
      <point x="339" y="623" type="curve"/>
      <point x="321" y="561"/>
      <point x="304" y="485"/>
      <point x="293" y="431" type="curve" smooth="yes"/>
      <point x="229" y="122" type="line" smooth="yes"/>
      <point x="215" y="55"/>
      <point x="178" y="50"/>
      <point x="147" y="50" type="curve" smooth="yes"/>
      <point x="127" y="50" type="line"/>
    </contour>
  </outline>
</glyph>
<glyph name="five" format="2">
  <advance width="486"/>
  <unicode hex="0035"/>
  <outline>
    <contour>
      <point x="180" y="-10" type="curve" smooth="yes"/>
      <point x="341" y="-10"/>
      <point x="437" y="106"/>
      <point x="437" y="256" type="curve" smooth="yes"/>
      <point x="437" y="370"/>
      <point x="367" y="432"/>
      <point x="257" y="432" type="curve" smooth="yes"/>
      <point x="218" y="432"/>
      <point x="192" y="423"/>
      <point x="172" y="416" type="curve"/>
      <point x="223" y="613" type="line"/>
      <point x="390" y="613" type="line" smooth="yes"/>
      <point x="420" y="613"/>
      <point x="429" y="604"/>
      <point x="429" y="590" type="curve" smooth="yes"/>
      <point x="429" y="583"/>
      <point x="426" y="559"/>
      <point x="424" y="541" type="curve"/>
      <point x="477" y="541" type="line"/>
      <point x="508" y="714" type="line"/>
      <point x="195" y="714" type="line"/>
      <point x="100" y="367" type="line"/>
      <point x="134" y="348" type="line"/>
      <point x="154" y="359"/>
      <point x="179" y="370"/>
      <point x="217" y="370" type="curve" smooth="yes"/>
      <point x="270" y="370"/>
      <point x="308" y="329"/>
      <point x="308" y="248" type="curve" smooth="yes"/>
      <point x="308" y="123"/>
      <point x="261" y="55"/>
      <point x="190" y="55" type="curve" smooth="yes"/>
      <point x="117" y="55"/>
      <point x="104" y="128"/>
      <point x="105" y="184" type="curve"/>
      <point x="50" y="184"/>
      <point x="24" y="149"/>
      <point x="24" y="103" type="curve" smooth="yes"/>
      <point x="24" y="43"/>
      <point x="69" y="-10"/>
    </contour>
  </outline>
</glyph>
<glyph name="six" format="2">
  <advance width="486"/>
  <unicode hex="0036"/>
  <outline>
    <contour>
      <point x="226" y="-10" type="curve" smooth="yes"/>
      <point x="382" y="-10"/>
      <point x="459" y="129"/>
      <point x="459" y="271" type="curve" smooth="yes"/>
      <point x="459" y="361"/>
      <point x="418" y="436"/>
      <point x="330" y="436" type="curve" smooth="yes"/>
      <point x="273" y="436"/>
      <point x="234" y="409"/>
      <point x="209" y="386" type="curve"/>
      <point x="248" y="574"/>
      <point x="303" y="668"/>
      <point x="370" y="668" type="curve" smooth="yes"/>
      <point x="412" y="668"/>
      <point x="414" y="606"/>
      <point x="411" y="543" type="curve"/>
      <point x="481" y="543"/>
      <point x="523" y="575"/>
      <point x="523" y="626" type="curve" smooth="yes"/>
      <point x="523" y="680"/>
      <point x="478" y="724"/>
      <point x="391" y="724" type="curve" smooth="yes"/>
      <point x="192" y="724"/>
      <point x="62" y="462"/>
      <point x="62" y="213" type="curve" smooth="yes"/>
      <point x="62" y="59"/>
      <point x="135" y="-10"/>
    </contour>
    <contour>
      <point x="241" y="51" type="curve" smooth="yes"/>
      <point x="204" y="51"/>
      <point x="181" y="94"/>
      <point x="181" y="183" type="curve" smooth="yes"/>
      <point x="181" y="233"/>
      <point x="186" y="272"/>
      <point x="196" y="325" type="curve"/>
      <point x="217" y="351"/>
      <point x="251" y="379"/>
      <point x="285" y="379" type="curve" smooth="yes"/>
      <point x="319" y="379"/>
      <point x="338" y="340"/>
      <point x="338" y="271" type="curve" smooth="yes"/>
      <point x="338" y="149"/>
      <point x="297" y="51"/>
    </contour>
  </outline>
</glyph>
<glyph name="seven" format="2">
  <advance width="486"/>
  <unicode hex="0037"/>
  <outline>
    <contour>
      <point x="101" y="0" type="line"/>
      <point x="173" y="0" type="line"/>
      <point x="533" y="663" type="line"/>
      <point x="543" y="714" type="line"/>
      <point x="158" y="714" type="line"/>
      <point x="111" y="512" type="line"/>
      <point x="164" y="512" type="line"/>
      <point x="177" y="562" type="line" smooth="yes"/>
      <point x="186" y="595"/>
      <point x="206" y="614"/>
      <point x="235" y="614" type="curve" smooth="yes"/>
      <point x="443" y="614" type="line"/>
    </contour>
  </outline>
</glyph>
<glyph name="nine" format="2">
  <advance width="486"/>
  <unicode hex="0039"/>
  <outline>
    <contour>
      <point x="157" y="-10" type="curve" smooth="yes"/>
      <point x="391.01" y="-10"/>
      <point x="488" y="362"/>
      <point x="488" y="543" type="curve" smooth="yes"/>
      <point x="488" y="659"/>
      <point x="429" y="724"/>
      <point x="334" y="724" type="curve" smooth="yes"/>
      <point x="204.99" y="724"/>
      <point x="92" y="602"/>
      <point x="92" y="431" type="curve" smooth="yes"/>
      <point x="92" y="340"/>
      <point x="137" y="275"/>
      <point x="220" y="275" type="curve" smooth="yes"/>
      <point x="276" y="275"/>
      <point x="316" y="308"/>
      <point x="345" y="343" type="curve"/>
      <point x="298" y="161"/>
      <point x="248" y="49"/>
      <point x="169" y="49" type="curve" smooth="yes"/>
      <point x="122" y="49"/>
      <point x="106" y="108"/>
      <point x="107" y="159" type="curve"/>
      <point x="63" y="159"/>
      <point x="35" y="129"/>
      <point x="35" y="86" type="curve" smooth="yes"/>
      <point x="35" y="35"/>
      <point x="73" y="-10"/>
    </contour>
    <contour>
      <point x="268" y="342" type="curve" smooth="yes"/>
      <point x="235" y="342"/>
      <point x="215" y="373"/>
      <point x="215" y="433" type="curve" smooth="yes"/>
      <point x="215" y="539"/>
      <point x="261" y="662"/>
      <point x="322" y="662" type="curve" smooth="yes"/>
      <point x="353" y="662"/>
      <point x="375" y="629"/>
      <point x="375" y="550" type="curve" smooth="yes"/>
      <point x="375" y="512"/>
      <point x="368" y="458"/>
      <point x="358" y="422" type="curve"/>
      <point x="339" y="383"/>
      <point x="308" y="343"/>
    </contour>
  </outline>
</glyph>
<glyph name="semicolon" format="2">
  <advance width="302"/>
  <unicode hex="003B"/>
  <outline>
    <contour>
      <point x="-15" y="-150" type="line"/>
      <point x="111" y="-122"/>
      <point x="177" y="-39"/>
      <point x="177" y="60" type="curve" smooth="yes"/>
      <point x="177" y="115"/>
      <point x="147" y="146"/>
      <point x="109" y="146" type="curve" smooth="yes"/>
      <point x="74" y="146"/>
      <point x="43" y="121"/>
      <point x="43" y="76" type="curve" smooth="yes"/>
      <point x="43" y="24"/>
      <point x="83" y="23"/>
      <point x="83" y="-14" type="curve" smooth="yes"/>
      <point x="83" y="-55"/>
      <point x="54" y="-83"/>
      <point x="-4" y="-100" type="curve"/>
    </contour>
    <contour>
      <point x="192" y="386" type="curve" smooth="yes"/>
      <point x="229" y="386"/>
      <point x="270" y="409"/>
      <point x="270" y="474" type="curve" smooth="yes"/>
      <point x="270" y="520"/>
      <point x="242" y="541"/>
      <point x="203" y="541" type="curve" smooth="yes"/>
      <point x="157" y="541"/>
      <point x="126" y="505"/>
      <point x="126" y="455" type="curve" smooth="yes"/>
      <point x="126" y="412"/>
      <point x="153" y="386"/>
    </contour>
  </outline>
</glyph>
<glyph name="less" format="2">
  <advance width="425"/>
  <unicode hex="003C"/>
  <outline>
    <contour>
      <point x="414" y="106" type="line"/>
      <point x="414" y="182" type="line"/>
      <point x="153" y="357" type="line"/>
      <point x="414" y="534" type="line"/>
      <point x="414" y="610" type="line"/>
      <point x="65" y="377" type="line"/>
      <point x="65" y="338" type="line"/>
    </contour>
  </outline>
</glyph>
<glyph name="equal" format="2">
  <advance width="425"/>
  <unicode hex="003D"/>
  <outline>
    <contour>
      <point x="63" y="414" type="line"/>
      <point x="416" y="414" type="line"/>
      <point x="416" y="481" type="line"/>
      <point x="63" y="481" type="line"/>
    </contour>
    <contour>
      <point x="63" y="233" type="line"/>
      <point x="416" y="233" type="line"/>
      <point x="416" y="300" type="line"/>
      <point x="63" y="300" type="line"/>
    </contour>
  </outline>
</glyph>
<glyph name="greater" format="2">
  <advance width="425"/>
  <unicode hex="003E"/>
  <outline>
    <contour>
      <point x="65" y="106" type="line"/>
      <point x="414" y="338" type="line"/>
      <point x="414" y="377" type="line"/>
      <point x="65" y="610" type="line"/>
      <point x="65" y="534" type="line"/>
      <point x="326" y="357" type="line"/>
      <point x="65" y="182" type="line"/>
    </contour>
  </outline>
</glyph>
<glyph name="bracketleft" format="2">
  <advance width="344"/>
  <unicode hex="005B"/>
  <outline>
    <contour>
      <point x="14" y="-128" type="line"/>
      <point x="248" y="-128" type="line"/>
      <point x="259" y="-78" type="line"/>
      <point x="224" y="-78" type="line" smooth="yes"/>
      <point x="195" y="-78"/>
      <point x="171" y="-72"/>
      <point x="171" y="-36" type="curve" smooth="yes"/>
      <point x="171" y="-27"/>
      <point x="172" y="-17"/>
      <point x="174" y="-8" type="curve" smooth="yes"/>
      <point x="309" y="638" type="line" smooth="yes"/>
      <point x="322" y="701"/>
      <point x="355" y="710"/>
      <point x="390" y="710" type="curve" smooth="yes"/>
      <point x="425" y="710" type="line"/>
      <point x="437" y="760" type="line"/>
      <point x="203" y="760" type="line"/>
    </contour>
  </outline>
</glyph>
<glyph name="backslash" format="2">
  <advance width="233"/>
  <unicode hex="005C"/>
  <outline>
    <contour>
      <point x="137" y="-121" type="line"/>
      <point x="195" y="-121" type="line"/>
      <point x="170" y="760" type="line"/>
      <point x="111" y="760" type="line"/>
    </contour>
  </outline>
</glyph>
<glyph name="bracketright" format="2">
  <advance width="344"/>
  <unicode hex="005D"/>
  <outline>
    <contour>
      <point x="-50" y="-128" type="line"/>
      <point x="183" y="-128" type="line"/>
      <point x="371" y="760" type="line"/>
      <point x="138" y="760" type="line"/>
      <point x="127" y="710" type="line"/>
      <point x="162" y="710" type="line" smooth="yes"/>
      <point x="191" y="710"/>
      <point x="216" y="704"/>
      <point x="216" y="668" type="curve" smooth="yes"/>
      <point x="216" y="659"/>
      <point x="214" y="649"/>
      <point x="212" y="640" type="curve" smooth="yes"/>
      <point x="78" y="-6" type="line" smooth="yes"/>
      <point x="65" y="-69"/>
      <point x="32" y="-78"/>
      <point x="-3" y="-78" type="curve" smooth="yes"/>
      <point x="-38" y="-78" type="line"/>
    </contour>
  </outline>
</glyph>
<glyph name="asciicircum" format="2">
  <advance width="425"/>
  <unicode hex="005E"/>
  <outline>
    <contour>
      <point x="49" y="264" type="line"/>
      <point x="113" y="264" type="line"/>
      <point x="238" y="610" type="line"/>
      <point x="365" y="264" type="line"/>
      <point x="429" y="264" type="line"/>
      <point x="257" y="714" type="line"/>
      <point x="221" y="714" type="line"/>
    </contour>
  </outline>
</glyph>
<glyph name="braceleft" format="2">
  <advance width="360"/>
  <unicode hex="007B"/>
  <outline>
    <contour>
      <point x="191" y="-126" type="curve" smooth="yes"/>
      <point x="270" y="-126" type="line"/>
      <point x="282" y="-75" type="line"/>
      <point x="250" y="-75" type="line" smooth="yes"/>
      <point x="219" y="-75"/>
      <point x="207" y="-57"/>
      <point x="207" y="-25" type="curve" smooth="yes"/>
      <point x="207" y="-9"/>
      <point x="209" y="7"/>
      <point x="213" y="24" type="curve" smooth="yes"/>
      <point x="245" y="171" type="line" smooth="yes"/>
      <point x="249" y="187"/>
      <point x="255" y="211"/>
      <point x="255" y="229" type="curve" smooth="yes"/>
      <point x="255" y="272"/>
      <point x="233" y="301"/>
      <point x="187" y="315" type="curve"/>
      <point x="188" y="320" type="line"/>
      <point x="255" y="336"/>
      <point x="287" y="377"/>
      <point x="301" y="440" type="curve" smooth="yes"/>
      <point x="334" y="593" type="line" smooth="yes"/>
      <point x="352" y="678"/>
      <point x="369" y="710"/>
      <point x="414" y="710" type="curve" smooth="yes"/>
      <point x="447" y="710" type="line"/>
      <point x="459" y="760" type="line"/>
      <point x="394" y="760" type="line" smooth="yes"/>
      <point x="285" y="760"/>
      <point x="226" y="721"/>
      <point x="203" y="615" type="curve" smooth="yes"/>
      <point x="166" y="442" type="line" smooth="yes"/>
      <point x="150" y="365"/>
      <point x="107" y="348"/>
      <point x="54" y="346" type="curve"/>
      <point x="40" y="290" type="line"/>
      <point x="84" y="288"/>
      <point x="117" y="275"/>
      <point x="117" y="225" type="curve" smooth="yes"/>
      <point x="117" y="216"/>
      <point x="117" y="204"/>
      <point x="114" y="192" type="curve" smooth="yes"/>
      <point x="86" y="59" type="line" smooth="yes"/>
      <point x="77" y="16"/>
      <point x="74" y="-3"/>
      <point x="74" y="-23" type="curve" smooth="yes"/>
      <point x="74" y="-88"/>
      <point x="115" y="-126"/>
    </contour>
  </outline>
</glyph>
<glyph name="asciitilde" format="2">
  <advance width="425"/>
  <unicode hex="007E"/>
  <outline>
    <contour>
      <point x="46" y="264" type="curve"/>
      <point x="110" y="264" type="line"/>
      <point x="113" y="347"/>
      <point x="128" y="382"/>
      <point x="158" y="382" type="curve" smooth="yes"/>
      <point x="178" y="382"/>
      <point x="190" y="367"/>
      <point x="223" y="329" type="curve" smooth="yes"/>
      <point x="271" y="273"/>
      <point x="296" y="264"/>
      <point x="326" y="264" type="curve" smooth="yes"/>
      <point x="408" y="264"/>
      <point x="433" y="353"/>
      <point x="435" y="449" type="curve"/>
      <point x="370" y="449" type="line"/>
      <point x="368" y="365"/>
      <point x="354" y="332"/>
      <point x="324" y="332" type="curve" smooth="yes"/>
      <point x="304" y="332"/>
      <point x="292" y="349"/>
      <point x="262" y="382" type="curve" smooth="yes"/>
      <point x="218" y="429"/>
      <point x="192" y="449"/>
      <point x="155" y="449" type="curve" smooth="yes"/>
      <point x="73" y="449"/>
      <point x="48" y="361"/>
    </contour>
  </outline>
</glyph>
<glyph name="twosuperior" format="2">
  <advance width="323"/>
  <unicode hex="00B2"/>
  <outline>
    <contour>
      <point x="62" y="386" type="line"/>
      <point x="325" y="386" type="line"/>
      <point x="352" y="520" type="line"/>
      <point x="320" y="520" type="line"/>
      <point x="313" y="499" type="line" smooth="yes"/>
      <point x="306" y="477"/>
      <point x="294" y="458"/>
      <point x="269" y="458" type="curve" smooth="yes"/>
      <point x="147" y="458" type="line"/>
      <point x="250" y="547" type="line" smooth="yes"/>
      <point x="350" y="633"/>
      <point x="382" y="679"/>
      <point x="382" y="736" type="curve" smooth="yes"/>
      <point x="382" y="789"/>
      <point x="342" y="824"/>
      <point x="275" y="824" type="curve" smooth="yes"/>
      <point x="196" y="824"/>
      <point x="146" y="779"/>
      <point x="146" y="728" type="curve" smooth="yes"/>
      <point x="146" y="699"/>
      <point x="169" y="680"/>
      <point x="206" y="680" type="curve"/>
      <point x="212" y="733"/>
      <point x="233" y="780"/>
      <point x="262" y="780" type="curve" smooth="yes"/>
      <point x="286" y="780"/>
      <point x="295" y="757"/>
      <point x="295" y="730" type="curve" smooth="yes"/>
      <point x="295" y="676"/>
      <point x="271" y="628"/>
      <point x="198" y="560" type="curve" smooth="yes"/>
      <point x="79" y="450" type="line"/>
    </contour>
  </outline>
</glyph>
<glyph name="threesuperior" format="2">
  <advance width="323"/>
  <unicode hex="00B3"/>
  <outline>
    <contour>
      <point x="192" y="380" type="curve" smooth="yes"/>
      <point x="285" y="380"/>
      <point x="357.99" y="430"/>
      <point x="358" y="520" type="curve" smooth="yes"/>
      <point x="358" y="571"/>
      <point x="328" y="603"/>
      <point x="280" y="610" type="curve"/>
      <point x="281" y="614" type="line"/>
      <point x="343" y="631"/>
      <point x="388" y="665"/>
      <point x="388" y="737" type="curve" smooth="yes"/>
      <point x="388" y="785"/>
      <point x="354" y="824"/>
      <point x="278" y="824" type="curve" smooth="yes"/>
      <point x="197" y="824"/>
      <point x="147" y="784"/>
      <point x="147" y="736" type="curve" smooth="yes"/>
      <point x="147" y="706"/>
      <point x="172" y="693"/>
      <point x="212" y="693" type="curve"/>
      <point x="218" y="738"/>
      <point x="231" y="778"/>
      <point x="269" y="778" type="curve" smooth="yes"/>
      <point x="289" y="778"/>
      <point x="301" y="760"/>
      <point x="301" y="734" type="curve" smooth="yes"/>
      <point x="301" y="670"/>
      <point x="258" y="630"/>
      <point x="210" y="630" type="curve" smooth="yes"/>
      <point x="183" y="630" type="line"/>
      <point x="174" y="585" type="line"/>
      <point x="201" y="585" type="line" smooth="yes"/>
      <point x="252" y="585"/>
      <point x="274" y="556"/>
      <point x="274" y="516" type="curve" smooth="yes"/>
      <point x="274" y="455"/>
      <point x="240" y="430"/>
      <point x="200" y="430" type="curve" smooth="yes"/>
      <point x="151" y="430"/>
      <point x="134" y="478"/>
      <point x="136" y="516" type="curve"/>
      <point x="99" y="516"/>
      <point x="71" y="495"/>
      <point x="71" y="458" type="curve" smooth="yes"/>
      <point x="71" y="411"/>
      <point x="111" y="380"/>
    </contour>
  </outline>
</glyph>
<glyph name="multiply" format="2">
  <advance width="425"/>
  <unicode hex="00D7"/>
  <outline>
    <contour>
      <point x="117" y="158" type="line"/>
      <point x="240" y="308" type="line"/>
      <point x="362" y="160" type="line"/>
      <point x="411" y="201" type="line"/>
      <point x="282" y="359" type="line"/>
      <point x="411" y="516" type="line"/>
      <point x="361" y="557" type="line"/>
      <point x="240" y="410" type="line"/>
      <point x="117" y="559" type="line"/>
      <point x="67" y="518" type="line"/>
      <point x="198" y="359" type="line"/>
      <point x="67" y="199" type="line"/>
    </contour>
  </outline>
</glyph>
<glyph name="divide" format="2">
  <advance width="425"/>
  <unicode hex="00F7"/>
  <outline>
    <contour>
      <point x="65" y="324" type="line"/>
      <point x="414" y="324" type="line"/>
      <point x="414" y="391" type="line"/>
      <point x="65" y="391" type="line"/>
    </contour>
    <contour>
      <point x="240" y="109" type="curve" smooth="yes"/>
      <point x="266" y="109"/>
      <point x="288" y="125"/>
      <point x="288" y="168" type="curve" smooth="yes"/>
      <point x="288" y="212"/>
      <point x="266" y="227"/>
      <point x="240" y="227" type="curve" smooth="yes"/>
      <point x="212" y="227"/>
      <point x="192" y="212"/>
      <point x="192" y="168" type="curve" smooth="yes"/>
      <point x="192" y="125"/>
      <point x="212" y="109"/>
    </contour>
    <contour>
      <point x="240" y="488" type="curve" smooth="yes"/>
      <point x="266" y="488"/>
      <point x="288" y="504"/>
      <point x="288" y="547" type="curve" smooth="yes"/>
      <point x="288" y="591"/>
      <point x="266" y="606"/>
      <point x="240" y="606" type="curve" smooth="yes"/>
      <point x="212" y="606"/>
      <point x="192" y="591"/>
      <point x="192" y="547" type="curve" smooth="yes"/>
      <point x="192" y="504"/>
      <point x="212" y="488"/>
    </contour>
  </outline>
</glyph>
<glyph name="udatta-deva" format="2">
  <unicode hex="0951"/>
  <anchor x="61" y="565" name="_vedic"/>
  <outline>
    <contour>
      <point x="111" y="937" type="line"/>
      <point x="170" y="937" type="line"/>
      <point x="212" y="1138" type="line"/>
      <point x="154" y="1138" type="line"/>
    </contour>
  </outline>
</glyph>
<glyph name="anudatta-deva" format="2">
  <unicode hex="0952"/>
  <anchor x="-59" y="0" name="_bottom"/>
  <outline>
    <contour>
      <point x="-372" y="-543" type="line"/>
      <point x="24" y="-543" type="line"/>
      <point x="41" y="-460" type="line"/>
      <point x="-355" y="-460" type="line"/>
    </contour>
  </outline>
</glyph>
<glyph name="danda-deva" format="2">
  <advance width="270"/>
  <unicode hex="0964"/>
  <outline>
    <contour>
      <point x="5" y="0" type="line"/>
      <point x="145" y="0" type="line"/>
      <point x="265" y="565" type="line"/>
      <point x="125" y="565" type="line"/>
    </contour>
  </outline>
</glyph>
<glyph name="dbldanda-deva" format="2">
  <advance width="497"/>
  <unicode hex="0965"/>
  <outline>
    <contour>
      <point x="232" y="0" type="line"/>
      <point x="372" y="0" type="line"/>
      <point x="492" y="565" type="line"/>
      <point x="352" y="565" type="line"/>
    </contour>
    <contour>
      <point x="5" y="0" type="line"/>
      <point x="145" y="0" type="line"/>
      <point x="265" y="565" type="line"/>
      <point x="125" y="565" type="line"/>
    </contour>
  </outline>
</glyph>
<glyph name="visarga-tamil" format="2">
  <advance width="702"/>
  <unicode hex="0B83"/>
  <note>
uni0B83
</note>
  <outline>
    <contour>
      <point x="122" y="-5" type="curve" smooth="yes"/>
      <point x="228" y="-5"/>
      <point x="302" y="109"/>
      <point x="302" y="236" type="curve" smooth="yes"/>
      <point x="302" y="324"/>
      <point x="259" y="373"/>
      <point x="187" y="373" type="curve" smooth="yes"/>
      <point x="77" y="373"/>
      <point x="14" y="238"/>
      <point x="14" y="130" type="curve" smooth="yes"/>
      <point x="14" y="51"/>
      <point x="55" y="-5"/>
    </contour>
    <contour>
      <point x="116" y="63" type="curve" smooth="yes"/>
      <point x="86" y="63"/>
      <point x="72" y="95"/>
      <point x="72" y="140" type="curve" smooth="yes"/>
      <point x="72" y="214"/>
      <point x="109" y="308"/>
      <point x="163" y="308" type="curve" smooth="yes"/>
      <point x="194" y="308"/>
      <point x="205" y="281"/>
      <point x="205" y="237" type="curve" smooth="yes"/>
      <point x="205" y="147"/>
      <point x="165" y="63"/>
    </contour>
    <contour>
      <point x="464" y="-5" type="curve" smooth="yes"/>
      <point x="570" y="-5"/>
      <point x="644" y="109"/>
      <point x="644" y="236" type="curve" smooth="yes"/>
      <point x="644" y="324"/>
      <point x="601" y="373"/>
      <point x="529" y="373" type="curve" smooth="yes"/>
      <point x="419" y="373"/>
      <point x="356" y="238"/>
      <point x="356" y="130" type="curve" smooth="yes"/>
      <point x="356" y="51"/>
      <point x="397" y="-5"/>
    </contour>
    <contour>
      <point x="458" y="63" type="curve" smooth="yes"/>
      <point x="428" y="63"/>
      <point x="414" y="95"/>
      <point x="414" y="140" type="curve" smooth="yes"/>
      <point x="414" y="214"/>
      <point x="451" y="308"/>
      <point x="505" y="308" type="curve" smooth="yes"/>
      <point x="536" y="308"/>
      <point x="547" y="281"/>
      <point x="547" y="237" type="curve" smooth="yes"/>
      <point x="547" y="147"/>
      <point x="507" y="63"/>
    </contour>
    <contour>
      <point x="388" y="423" type="curve" smooth="yes"/>
      <point x="494" y="423"/>
      <point x="568" y="537"/>
      <point x="568" y="664" type="curve" smooth="yes"/>
      <point x="568" y="752"/>
      <point x="525" y="801"/>
      <point x="453" y="801" type="curve" smooth="yes"/>
      <point x="343" y="801"/>
      <point x="280" y="666"/>
      <point x="280" y="558" type="curve" smooth="yes"/>
      <point x="280" y="479"/>
      <point x="321" y="423"/>
    </contour>
    <contour>
      <point x="382" y="491" type="curve" smooth="yes"/>
      <point x="352" y="491"/>
      <point x="338" y="523"/>
      <point x="338" y="568" type="curve" smooth="yes"/>
      <point x="338" y="642"/>
      <point x="375" y="736"/>
      <point x="429" y="736" type="curve" smooth="yes"/>
      <point x="460" y="736"/>
      <point x="471" y="709"/>
      <point x="471" y="665" type="curve" smooth="yes"/>
      <point x="471" y="575"/>
      <point x="431" y="491"/>
    </contour>
  </outline>
</glyph>
<glyph name="a-tamil" format="2">
  <advance width="1070"/>
  <unicode hex="0B85"/>
  <note>
uni0B85
</note>
  <anchor x="466" y="0" name="bottom"/>
  <anchor x="278" y="-140" name="nukta"/>
  <anchor x="575" y="565" name="top"/>
  <anchor x="577" y="565" name="vedic"/>
  <outline>
    <contour>
      <point x="764" y="-203" type="line"/>
      <point x="905" y="-203" type="line"/>
      <point x="1068" y="565" type="line"/>
      <point x="928" y="565" type="line"/>
      <point x="842" y="164" type="line"/>
      <point x="72" y="164" type="line" smooth="yes"/>
      <point x="20" y="164"/>
      <point x="-17" y="123"/>
      <point x="-17" y="68" type="curve" smooth="yes"/>
      <point x="-17" y="-37"/>
      <point x="95" y="-140"/>
      <point x="278" y="-140" type="curve" smooth="yes"/>
      <point x="553" y="-140"/>
      <point x="773" y="34"/>
      <point x="773" y="308" type="curve" smooth="yes"/>
      <point x="773" y="478"/>
      <point x="661" y="570"/>
      <point x="518" y="570" type="curve" smooth="yes"/>
      <point x="390" y="570"/>
      <point x="285" y="486"/>
      <point x="285" y="357" type="curve" smooth="yes"/>
      <point x="285" y="287"/>
      <point x="333" y="229"/>
      <point x="405" y="229" type="curve" smooth="yes"/>
      <point x="495" y="229"/>
      <point x="559" y="287"/>
      <point x="559" y="385" type="curve" smooth="yes"/>
      <point x="559" y="450"/>
      <point x="527" y="509"/>
      <point x="486" y="528" type="curve"/>
      <point x="429" y="523" type="line"/>
      <point x="460" y="502"/>
      <point x="478" y="454"/>
      <point x="478" y="411" type="curve" smooth="yes"/>
      <point x="478" y="350"/>
      <point x="450" y="298"/>
      <point x="398" y="298" type="curve" smooth="yes"/>
      <point x="372" y="298"/>
      <point x="348" y="329"/>
      <point x="348" y="367" type="curve" smooth="yes"/>
      <point x="348" y="448"/>
      <point x="414" y="508"/>
      <point x="496" y="508" type="curve" smooth="yes"/>
      <point x="589" y="508"/>
      <point x="642" y="444"/>
      <point x="642" y="331" type="curve" smooth="yes"/>
      <point x="642" y="100"/>
      <point x="496" y="-78"/>
      <point x="272" y="-78" type="curve" smooth="yes"/>
      <point x="131" y="-78"/>
      <point x="50" y="4"/>
      <point x="50" y="68" type="curve" smooth="yes"/>
      <point x="50" y="93"/>
      <point x="61" y="103"/>
      <point x="82" y="103" type="curve" smooth="yes"/>
      <point x="829" y="103" type="line"/>
    </contour>
  </outline>
</glyph>
<glyph name="aa-tamil" format="2">
  <advance width="1257"/>
  <unicode hex="0B86"/>
  <note>
uni0B86
</note>
  <anchor x="563" y="0" name="bottom"/>
  <anchor x="263" y="-140" name="nukta"/>
  <anchor x="686" y="565" name="top"/>
  <anchor x="687" y="565" name="vedic"/>
  <outline>
    <contour>
      <point x="695" y="-408" type="curve" smooth="yes"/>
      <point x="935" y="-408"/>
      <point x="1174" y="-260"/>
      <point x="1174" y="-40" type="curve" smooth="yes"/>
      <point x="1174" y="38"/>
      <point x="1131" y="83"/>
      <point x="1068" y="83" type="curve" smooth="yes"/>
      <point x="997" y="83"/>
      <point x="938" y="28"/>
      <point x="905" y="-82" type="curve"/>
      <point x="927" y="-90" type="line"/>
      <point x="938" y="-36"/>
      <point x="958" y="-19"/>
      <point x="989" y="-19" type="curve" smooth="yes"/>
      <point x="1015" y="-19"/>
      <point x="1032" y="-38"/>
      <point x="1032" y="-70" type="curve" smooth="yes"/>
      <point x="1032" y="-226"/>
      <point x="872" y="-348"/>
      <point x="702" y="-348" type="curve" smooth="yes"/>
      <point x="626" y="-348"/>
      <point x="570" y="-326"/>
      <point x="570" y="-271" type="curve" smooth="yes"/>
      <point x="570" y="-223"/>
      <point x="608" y="-201"/>
      <point x="668" y="-185" type="curve"/>
      <point x="654" y="-131" type="line"/>
      <point x="565" y="-156"/>
      <point x="506" y="-192"/>
      <point x="506" y="-279" type="curve" smooth="yes"/>
      <point x="506" y="-357"/>
      <point x="585" y="-408"/>
    </contour>
    <component base="a-tamil"/>
  </outline>
</glyph>
<glyph name="i-tamil" format="2">
  <advance width="829"/>
  <unicode hex="0B87"/>
  <note>
uni0B87
</note>
  <anchor x="334" y="0" name="bottom"/>
  <anchor x="273" y="-277" name="nukta"/>
  <anchor x="483" y="831" name="top"/>
  <anchor x="433" y="565" name="vedic"/>
  <outline>
    <contour>
      <point x="75" y="-314" type="curve" smooth="yes"/>
      <point x="348" y="-314"/>
      <point x="650" y="25"/>
      <point x="650" y="334" type="curve" smooth="yes"/>
      <point x="650" y="474"/>
      <point x="568" y="570"/>
      <point x="433" y="570" type="curve" smooth="yes"/>
      <point x="312" y="570"/>
      <point x="210" y="478"/>
      <point x="210" y="354" type="curve" smooth="yes"/>
      <point x="210" y="281"/>
      <point x="260" y="229"/>
      <point x="328" y="229" type="curve" smooth="yes"/>
      <point x="413" y="229"/>
      <point x="479" y="290"/>
      <point x="479" y="384" type="curve" smooth="yes"/>
      <point x="479" y="450"/>
      <point x="442" y="507"/>
      <point x="407" y="529" type="curve"/>
      <point x="354" y="520" type="line"/>
      <point x="378" y="502"/>
      <point x="397" y="449"/>
      <point x="397" y="406" type="curve" smooth="yes"/>
      <point x="397" y="349"/>
      <point x="372" y="298"/>
      <point x="320" y="298" type="curve" smooth="yes"/>
      <point x="291" y="298"/>
      <point x="274" y="327"/>
      <point x="274" y="362" type="curve" smooth="yes"/>
      <point x="274" y="444"/>
      <point x="333" y="508"/>
      <point x="411" y="508" type="curve" smooth="yes"/>
      <point x="488" y="508"/>
      <point x="527" y="450"/>
      <point x="527" y="362" type="curve" smooth="yes"/>
      <point x="527" y="77"/>
      <point x="308" y="-251"/>
      <point x="84" y="-251" type="curve" smooth="yes"/>
      <point x="33" y="-251"/>
      <point x="3" y="-225"/>
      <point x="3" y="-173" type="curve" smooth="yes"/>
      <point x="3" y="-51"/>
      <point x="136" y="49"/>
      <point x="325" y="49" type="curve" smooth="yes"/>
      <point x="476" y="49"/>
      <point x="613" y="-37"/>
      <point x="613" y="-145" type="curve" smooth="yes"/>
      <point x="613" y="-217"/>
      <point x="569" y="-251"/>
      <point x="498" y="-251" type="curve" smooth="yes"/>
      <point x="308" y="-251"/>
      <point x="119" y="-1"/>
      <point x="119" y="288" type="curve" smooth="yes"/>
      <point x="119" y="533"/>
      <point x="228" y="715"/>
      <point x="473" y="715" type="curve" smooth="yes"/>
      <point x="653" y="715"/>
      <point x="753" y="615"/>
      <point x="753" y="457" type="curve" smooth="yes"/>
      <point x="753" y="428"/>
      <point x="750" y="397"/>
      <point x="743" y="364" type="curve" smooth="yes"/>
      <point x="686" y="95" type="line"/>
      <point x="749" y="95" type="line"/>
      <point x="808" y="368" type="line" smooth="yes"/>
      <point x="818" y="413"/>
      <point x="823" y="456"/>
      <point x="823" y="496" type="curve" smooth="yes"/>
      <point x="823" y="700"/>
      <point x="697" y="831"/>
      <point x="483" y="831" type="curve" smooth="yes"/>
      <point x="189" y="831"/>
      <point x="54" y="574"/>
      <point x="54" y="299" type="curve" smooth="yes"/>
      <point x="54" y="-40"/>
      <point x="281" y="-314"/>
      <point x="502" y="-314" type="curve" smooth="yes"/>
      <point x="611" y="-314"/>
      <point x="685" y="-256"/>
      <point x="685" y="-149" type="curve" smooth="yes"/>
      <point x="685" y="5"/>
      <point x="523" y="107"/>
      <point x="329" y="107" type="curve" smooth="yes"/>
      <point x="109" y="107"/>
      <point x="-68" y="-17"/>
      <point x="-68" y="-178" type="curve" smooth="yes"/>
      <point x="-68" y="-261"/>
      <point x="-13" y="-314"/>
    </contour>
  </outline>
</glyph>
<glyph name="ii-tamil" format="2">
  <advance width="666"/>
  <unicode hex="0B88"/>
  <note>
uni0B88
</note>
  <anchor x="273" y="0" name="bottom"/>
  <anchor x="273" y="0" name="nukta"/>
  <anchor x="396" y="565" name="top"/>
  <anchor x="396" y="565" name="vedic"/>
  <outline>
    <contour>
      <point x="2" y="0" type="line"/>
      <point x="66" y="0" type="line"/>
      <point x="173" y="505" type="line"/>
      <point x="365" y="505" type="line"/>
      <point x="258" y="0" type="line"/>
      <point x="400" y="0" type="line"/>
      <point x="507" y="505" type="line"/>
      <point x="672" y="505" type="line"/>
      <point x="685" y="565" type="line"/>
      <point x="122" y="565" type="line"/>
    </contour>
    <contour>
      <point x="218" y="209" type="curve" smooth="yes"/>
      <point x="252" y="209"/>
      <point x="282" y="237"/>
      <point x="282" y="270" type="curve" smooth="yes"/>
      <point x="282" y="302"/>
      <point x="252" y="329"/>
      <point x="218" y="329" type="curve" smooth="yes"/>
      <point x="184" y="329"/>
      <point x="155" y="302"/>
      <point x="155" y="270" type="curve" smooth="yes"/>
      <point x="155" y="237"/>
      <point x="184" y="209"/>
    </contour>
    <contour>
      <point x="552" y="209" type="curve" smooth="yes"/>
      <point x="586" y="209"/>
      <point x="616" y="237"/>
      <point x="616" y="270" type="curve" smooth="yes"/>
      <point x="616" y="302"/>
      <point x="586" y="329"/>
      <point x="552" y="329" type="curve" smooth="yes"/>
      <point x="518" y="329"/>
      <point x="489" y="302"/>
      <point x="489" y="270" type="curve" smooth="yes"/>
      <point x="489" y="237"/>
      <point x="518" y="209"/>
    </contour>
  </outline>
</glyph>
<glyph name="u-tamil" format="2">
  <advance width="762"/>
  <unicode hex="0B89"/>
  <note>
uni0B89
</note>
  <anchor x="319" y="0" name="bottom"/>
  <anchor x="319" y="0" name="nukta"/>
  <anchor x="443" y="565" name="top"/>
  <anchor x="442" y="565" name="vedic"/>
  <outline>
    <contour>
      <point x="75" y="0" type="curve" smooth="yes"/>
      <point x="687" y="0" type="line"/>
      <point x="700" y="61" type="line"/>
      <point x="82" y="61" type="line" smooth="yes"/>
      <point x="65" y="61"/>
      <point x="48" y="72"/>
      <point x="48" y="95" type="curve" smooth="yes"/>
      <point x="48" y="122"/>
      <point x="66" y="133"/>
      <point x="86" y="133" type="curve" smooth="yes"/>
      <point x="275" y="133" type="line" smooth="yes"/>
      <point x="445" y="133"/>
      <point x="567" y="221"/>
      <point x="567" y="377" type="curve" smooth="yes"/>
      <point x="567" y="508"/>
      <point x="463" y="570"/>
      <point x="343" y="570" type="curve" smooth="yes"/>
      <point x="217" y="570"/>
      <point x="109" y="476"/>
      <point x="109" y="361" type="curve" smooth="yes"/>
      <point x="109" y="293"/>
      <point x="150" y="244"/>
      <point x="214" y="244" type="curve" smooth="yes"/>
      <point x="301" y="244"/>
      <point x="367" y="308"/>
      <point x="367" y="400" type="curve" smooth="yes"/>
      <point x="367" y="459"/>
      <point x="336" y="513"/>
      <point x="293" y="528" type="curve"/>
      <point x="234" y="524" type="line"/>
      <point x="269" y="503"/>
      <point x="285" y="457"/>
      <point x="285" y="415" type="curve" smooth="yes"/>
      <point x="285" y="355"/>
      <point x="259" y="309"/>
      <point x="214" y="309" type="curve" smooth="yes"/>
      <point x="186" y="309"/>
      <point x="172" y="333"/>
      <point x="172" y="364" type="curve" smooth="yes"/>
      <point x="172" y="439"/>
      <point x="233" y="510"/>
      <point x="322" y="510" type="curve" smooth="yes"/>
      <point x="389" y="510"/>
      <point x="438" y="476"/>
      <point x="438" y="386" type="curve" smooth="yes"/>
      <point x="438" y="272"/>
      <point x="372" y="191"/>
      <point x="268" y="191" type="curve" smooth="yes"/>
      <point x="94" y="191" type="line" smooth="yes"/>
      <point x="31" y="191"/>
      <point x="-12" y="153"/>
      <point x="-12" y="91" type="curve" smooth="yes"/>
      <point x="-12" y="41"/>
      <point x="18" y="0"/>
    </contour>
  </outline>
</glyph>
<glyph name="uu-tamil" format="2">
  <advance width="1428"/>
  <unicode hex="0B8A"/>
  <note>
uni0B8A
</note>
  <anchor x="653" y="0" name="bottom"/>
  <anchor x="653" y="0" name="nukta"/>
  <anchor x="773" y="565" name="top"/>
  <anchor x="776" y="565" name="vedic"/>
  <outline>
    <contour>
      <point x="75" y="0" type="curve" smooth="yes"/>
      <point x="1327" y="0" type="line"/>
      <point x="1340" y="61" type="line"/>
      <point x="82" y="61" type="line" smooth="yes"/>
      <point x="65" y="61"/>
      <point x="48" y="72"/>
      <point x="48" y="95" type="curve" smooth="yes"/>
      <point x="48" y="122"/>
      <point x="66" y="133"/>
      <point x="86" y="133" type="curve" smooth="yes"/>
      <point x="275" y="133" type="line" smooth="yes"/>
      <point x="445" y="133"/>
      <point x="567" y="221"/>
      <point x="567" y="377" type="curve" smooth="yes"/>
      <point x="567" y="508"/>
      <point x="463" y="570"/>
      <point x="343" y="570" type="curve" smooth="yes"/>
      <point x="217" y="570"/>
      <point x="109" y="476"/>
      <point x="109" y="361" type="curve" smooth="yes"/>
      <point x="109" y="293"/>
      <point x="150" y="244"/>
      <point x="214" y="244" type="curve" smooth="yes"/>
      <point x="301" y="244"/>
      <point x="367" y="308"/>
      <point x="367" y="400" type="curve" smooth="yes"/>
      <point x="367" y="459"/>
      <point x="336" y="513"/>
      <point x="293" y="528" type="curve"/>
      <point x="234" y="524" type="line"/>
      <point x="269" y="503"/>
      <point x="285" y="457"/>
      <point x="285" y="415" type="curve" smooth="yes"/>
      <point x="285" y="355"/>
      <point x="259" y="309"/>
      <point x="214" y="309" type="curve" smooth="yes"/>
      <point x="186" y="309"/>
      <point x="172" y="333"/>
      <point x="172" y="364" type="curve" smooth="yes"/>
      <point x="172" y="439"/>
      <point x="233" y="510"/>
      <point x="322" y="510" type="curve" smooth="yes"/>
      <point x="389" y="510"/>
      <point x="438" y="476"/>
      <point x="438" y="386" type="curve" smooth="yes"/>
      <point x="438" y="272"/>
      <point x="372" y="191"/>
      <point x="268" y="191" type="curve" smooth="yes"/>
      <point x="94" y="191" type="line" smooth="yes"/>
      <point x="31" y="191"/>
      <point x="-12" y="153"/>
      <point x="-12" y="91" type="curve" smooth="yes"/>
      <point x="-12" y="41"/>
      <point x="18" y="0"/>
    </contour>
    <contour>
      <point x="734" y="113" type="curve" smooth="yes"/>
      <point x="832" y="113"/>
      <point x="899" y="188"/>
      <point x="899" y="283" type="curve" smooth="yes"/>
      <point x="899" y="358"/>
      <point x="852" y="398"/>
      <point x="792" y="398" type="curve" smooth="yes"/>
      <point x="714" y="398"/>
      <point x="664" y="330"/>
      <point x="639" y="254" type="curve"/>
      <point x="659" y="221" type="line"/>
      <point x="676" y="289"/>
      <point x="716" y="331"/>
      <point x="755" y="331" type="curve" smooth="yes"/>
      <point x="792" y="331"/>
      <point x="804" y="298"/>
      <point x="804" y="267" type="curve" smooth="yes"/>
      <point x="804" y="218"/>
      <point x="778" y="175"/>
      <point x="728" y="175" type="curve" smooth="yes"/>
      <point x="688" y="175"/>
      <point x="661" y="216"/>
      <point x="661" y="282" type="curve" smooth="yes"/>
      <point x="661" y="410"/>
      <point x="730" y="510"/>
      <point x="845" y="510" type="curve" smooth="yes"/>
      <point x="944" y="510"/>
      <point x="994" y="439"/>
      <point x="972" y="329" type="curve"/>
      <point x="1027" y="329" type="line"/>
      <point x="1054" y="466"/>
      <point x="986" y="570"/>
      <point x="851" y="570" type="curve" smooth="yes"/>
      <point x="707" y="570"/>
      <point x="601" y="443"/>
      <point x="601" y="278" type="curve" smooth="yes"/>
      <point x="601" y="187"/>
      <point x="652" y="113"/>
    </contour>
    <contour>
      <point x="926" y="116" type="line"/>
      <point x="1047" y="116" type="line"/>
      <point x="1130" y="509" type="line"/>
      <point x="1236" y="509" type="line"/>
      <point x="1153" y="116" type="line"/>
      <point x="1272" y="116" type="line"/>
      <point x="1356" y="509" type="line"/>
      <point x="1433" y="509" type="line"/>
      <point x="1445" y="565" type="line"/>
      <point x="1046" y="565" type="line"/>
      <point x="1012" y="391" type="line"/>
      <point x="984" y="388" type="line"/>
    </contour>
  </outline>
</glyph>
<glyph name="e-tamil" format="2">
  <advance width="756"/>
  <unicode hex="0B8E"/>
  <note>
uni0B8E
</note>
  <anchor x="336" y="0" name="bottom"/>
  <anchor x="336" y="0" name="nukta"/>
  <anchor x="459" y="565" name="top"/>
  <anchor x="459" y="565" name="vedic"/>
  <outline>
    <contour>
      <point x="182" y="-5" type="curve" smooth="yes"/>
      <point x="288" y="-5"/>
      <point x="367" y="73"/>
      <point x="367" y="187" type="curve" smooth="yes"/>
      <point x="367" y="270"/>
      <point x="315" y="323"/>
      <point x="246" y="323" type="curve" smooth="yes"/>
      <point x="158" y="323"/>
      <point x="101" y="247"/>
      <point x="62" y="149" type="curve"/>
      <point x="91" y="121" type="line"/>
      <point x="118" y="191"/>
      <point x="145" y="235"/>
      <point x="188" y="235" type="curve" smooth="yes"/>
      <point x="221" y="235"/>
      <point x="237" y="205"/>
      <point x="237" y="163" type="curve" smooth="yes"/>
      <point x="237" y="109"/>
      <point x="210" y="63"/>
      <point x="163" y="63" type="curve" smooth="yes"/>
      <point x="115" y="63"/>
      <point x="90" y="126"/>
      <point x="90" y="195" type="curve" smooth="yes"/>
      <point x="90" y="352"/>
      <point x="174" y="505"/>
      <point x="367" y="505" type="curve" smooth="yes"/>
      <point x="543" y="505" type="line"/>
      <point x="436" y="0" type="line"/>
      <point x="577" y="0" type="line"/>
      <point x="684" y="505" type="line"/>
      <point x="786" y="505" type="line"/>
      <point x="799" y="565" type="line"/>
      <point x="369" y="565" type="line" smooth="yes"/>
      <point x="146" y="565"/>
      <point x="27" y="384"/>
      <point x="27" y="189" type="curve" smooth="yes"/>
      <point x="27" y="83"/>
      <point x="86" y="-5"/>
    </contour>
  </outline>
</glyph>
<glyph name="ee-tamil" format="2">
  <advance width="757"/>
  <unicode hex="0B8F"/>
  <note>
uni0B8F
</note>
  <anchor x="340" y="0" name="bottom"/>
  <anchor x="306" y="-161" name="nukta"/>
  <anchor x="463" y="565" name="top"/>
  <anchor x="463" y="565" name="vedic"/>
  <outline>
    <contour>
      <point x="305" y="-220" type="line"/>
      <point x="587" y="42" type="line"/>
      <point x="685" y="505" type="line"/>
      <point x="787" y="505" type="line"/>
      <point x="800" y="565" type="line"/>
      <point x="369" y="565" type="line" smooth="yes"/>
      <point x="146" y="565"/>
      <point x="27" y="384"/>
      <point x="27" y="189" type="curve" smooth="yes"/>
      <point x="27" y="83"/>
      <point x="86" y="-5"/>
      <point x="182" y="-5" type="curve" smooth="yes"/>
      <point x="288" y="-5"/>
      <point x="367" y="73"/>
      <point x="367" y="187" type="curve" smooth="yes"/>
      <point x="367" y="270"/>
      <point x="315" y="323"/>
      <point x="246" y="323" type="curve" smooth="yes"/>
      <point x="158" y="323"/>
      <point x="101" y="247"/>
      <point x="62" y="149" type="curve"/>
      <point x="91" y="121" type="line"/>
      <point x="118" y="191"/>
      <point x="145" y="235"/>
      <point x="188" y="235" type="curve" smooth="yes"/>
      <point x="221" y="235"/>
      <point x="237" y="205"/>
      <point x="237" y="163" type="curve" smooth="yes"/>
      <point x="237" y="109"/>
      <point x="210" y="63"/>
      <point x="163" y="63" type="curve" smooth="yes"/>
      <point x="115" y="63"/>
      <point x="90" y="126"/>
      <point x="90" y="195" type="curve" smooth="yes"/>
      <point x="90" y="352"/>
      <point x="174" y="505"/>
      <point x="367" y="505" type="curve" smooth="yes"/>
      <point x="544" y="505" type="line"/>
      <point x="434" y="-15" type="line"/>
      <point x="262" y="-174" type="line"/>
    </contour>
  </outline>
</glyph>
<glyph name="ai-tamil" format="2">
  <advance width="797"/>
  <unicode hex="0B90"/>
  <note>
uni0B90
</note>
  <anchor x="336" y="0" name="bottom"/>
  <anchor x="267" y="-314" name="nukta"/>
  <anchor x="474" y="565" name="top"/>
  <anchor x="472" y="565" name="vedic"/>
  <outline>
    <contour>
      <point x="115" y="-314" type="curve" smooth="yes"/>
      <point x="209" y="-314"/>
      <point x="274" y="-266"/>
      <point x="311" y="-191" type="curve"/>
      <point x="314" y="-262"/>
      <point x="366" y="-314"/>
      <point x="453" y="-314" type="curve" smooth="yes"/>
      <point x="585" y="-314"/>
      <point x="675" y="-211"/>
      <point x="675" y="-66" type="curve" smooth="yes"/>
      <point x="675" y="-16"/>
      <point x="666" y="27"/>
      <point x="653" y="66" type="curve"/>
      <point x="590" y="43" type="line"/>
      <point x="601" y="8"/>
      <point x="611" y="-30"/>
      <point x="611" y="-63" type="curve" smooth="yes"/>
      <point x="611" y="-174"/>
      <point x="550" y="-247"/>
      <point x="455" y="-247" type="curve" smooth="yes"/>
      <point x="384" y="-247"/>
      <point x="363" y="-193"/>
      <point x="382" y="-105" type="curve" smooth="yes"/>
      <point x="398" y="-32" type="line"/>
      <point x="286" y="-32" type="line"/>
      <point x="272" y="-98" type="line" smooth="yes"/>
      <point x="253" y="-189"/>
      <point x="217" y="-249"/>
      <point x="148" y="-249" type="curve" smooth="yes"/>
      <point x="97" y="-249"/>
      <point x="80" y="-208"/>
      <point x="80" y="-150" type="curve" smooth="yes"/>
      <point x="80" y="26"/>
      <point x="182" y="59"/>
      <point x="374" y="80" type="curve" smooth="yes"/>
      <point x="610" y="106"/>
      <point x="774" y="184"/>
      <point x="774" y="397" type="curve" smooth="yes"/>
      <point x="774" y="504"/>
      <point x="707" y="570"/>
      <point x="610" y="570" type="curve" smooth="yes"/>
      <point x="538" y="570"/>
      <point x="482" y="537"/>
      <point x="442" y="458" type="curve"/>
      <point x="430" y="525"/>
      <point x="373" y="570"/>
      <point x="291" y="570" type="curve" smooth="yes"/>
      <point x="155" y="570"/>
      <point x="54" y="445"/>
      <point x="54" y="299" type="curve" smooth="yes"/>
      <point x="54" y="220"/>
      <point x="90" y="154"/>
      <point x="164" y="154" type="curve" smooth="yes"/>
      <point x="249" y="154"/>
      <point x="308" y="222"/>
      <point x="308" y="311" type="curve" smooth="yes"/>
      <point x="308" y="370"/>
      <point x="274" y="411"/>
      <point x="220" y="411" type="curve" smooth="yes"/>
      <point x="165" y="411"/>
      <point x="124" y="372"/>
      <point x="87" y="271" type="curve"/>
      <point x="102" y="243" type="line"/>
      <point x="128" y="319"/>
      <point x="155" y="342"/>
      <point x="181" y="342" type="curve" smooth="yes"/>
      <point x="201" y="342"/>
      <point x="215" y="327"/>
      <point x="215" y="298" type="curve" smooth="yes"/>
      <point x="215" y="253"/>
      <point x="193" y="218"/>
      <point x="158" y="218" type="curve" smooth="yes"/>
      <point x="126" y="218"/>
      <point x="115" y="249"/>
      <point x="115" y="298" type="curve" smooth="yes"/>
      <point x="115" y="403"/>
      <point x="171" y="507"/>
      <point x="278" y="507" type="curve" smooth="yes"/>
      <point x="362" y="507"/>
      <point x="389" y="455"/>
      <point x="371" y="368" type="curve" smooth="yes"/>
      <point x="338" y="211" type="line"/>
      <point x="450" y="211" type="line"/>
      <point x="489" y="395" type="line" smooth="yes"/>
      <point x="503" y="463"/>
      <point x="532" y="506"/>
      <point x="582" y="506" type="curve" smooth="yes"/>
      <point x="624" y="506"/>
      <point x="646" y="474"/>
      <point x="646" y="414" type="curve" smooth="yes"/>
      <point x="646" y="207"/>
      <point x="544" y="145"/>
      <point x="320" y="121" type="curve" smooth="yes"/>
      <point x="126" y="100"/>
      <point x="-48" y="48"/>
      <point x="-48" y="-144" type="curve" smooth="yes"/>
      <point x="-48" y="-243"/>
      <point x="17" y="-314"/>
    </contour>
  </outline>
</glyph>
<glyph name="o-tamil" format="2">
  <advance width="840"/>
  <unicode hex="0B92"/>
  <note>
uni0B92
</note>
  <anchor x="361" y="0" name="bottom"/>
  <anchor x="287" y="-335" name="nukta"/>
  <anchor x="474" y="565" name="top"/>
  <anchor x="474" y="565" name="vedic"/>
  <outline>
    <contour>
      <point x="189" y="-310" type="curve" smooth="yes"/>
      <point x="359" y="-310"/>
      <point x="436" y="-132"/>
      <point x="563" y="-132" type="curve" smooth="yes"/>
      <point x="599" y="-132" type="line"/>
      <point x="612" y="-72" type="line"/>
      <point x="556" y="-72" type="line" smooth="yes"/>
      <point x="466" y="-72"/>
      <point x="424" y="-27"/>
      <point x="424" y="40" type="curve" smooth="yes"/>
      <point x="424" y="87"/>
      <point x="445" y="144"/>
      <point x="484" y="204" type="curve"/>
      <point x="490" y="201" type="line"/>
      <point x="475" y="164"/>
      <point x="468" y="129"/>
      <point x="468" y="100" type="curve" smooth="yes"/>
      <point x="468" y="36"/>
      <point x="503" y="-4"/>
      <point x="578" y="-4" type="curve" smooth="yes"/>
      <point x="703" y="-4"/>
      <point x="788" y="110"/>
      <point x="788" y="259" type="curve" smooth="yes"/>
      <point x="788" y="457"/>
      <point x="635" y="570"/>
      <point x="435" y="570" type="curve" smooth="yes"/>
      <point x="223" y="570"/>
      <point x="24" y="412"/>
      <point x="24" y="189" type="curve" smooth="yes"/>
      <point x="24" y="83"/>
      <point x="81" y="-5"/>
      <point x="177" y="-5" type="curve" smooth="yes"/>
      <point x="283" y="-5"/>
      <point x="362" y="73"/>
      <point x="362" y="187" type="curve" smooth="yes"/>
      <point x="362" y="270"/>
      <point x="308" y="323"/>
      <point x="239" y="323" type="curve" smooth="yes"/>
      <point x="151" y="323"/>
      <point x="98" y="247"/>
      <point x="59" y="149" type="curve"/>
      <point x="88" y="121" type="line"/>
      <point x="115" y="191"/>
      <point x="140" y="235"/>
      <point x="183" y="235" type="curve" smooth="yes"/>
      <point x="216" y="235"/>
      <point x="232" y="205"/>
      <point x="232" y="163" type="curve" smooth="yes"/>
      <point x="232" y="109"/>
      <point x="205" y="63"/>
      <point x="158" y="63" type="curve" smooth="yes"/>
      <point x="110" y="63"/>
      <point x="87" y="126"/>
      <point x="87" y="195" type="curve" smooth="yes"/>
      <point x="87" y="377"/>
      <point x="257" y="508"/>
      <point x="419" y="508" type="curve" smooth="yes"/>
      <point x="562" y="508"/>
      <point x="660" y="421"/>
      <point x="660" y="268" type="curve" smooth="yes"/>
      <point x="660" y="167"/>
      <point x="626" y="68"/>
      <point x="555" y="68" type="curve" smooth="yes"/>
      <point x="528" y="68"/>
      <point x="517" y="88"/>
      <point x="517" y="119" type="curve" smooth="yes"/>
      <point x="517" y="158"/>
      <point x="536" y="213"/>
      <point x="561" y="262" type="curve"/>
      <point x="493" y="294" type="line"/>
      <point x="420" y="202"/>
      <point x="369" y="104"/>
      <point x="369" y="27" type="curve" smooth="yes"/>
      <point x="369" y="-26"/>
      <point x="393" y="-70"/>
      <point x="450" y="-96" type="curve"/>
      <point x="449" y="-101" type="line"/>
      <point x="329" y="-126"/>
      <point x="276" y="-239"/>
      <point x="179" y="-239" type="curve" smooth="yes"/>
      <point x="137" y="-239"/>
      <point x="111" y="-211"/>
      <point x="111" y="-178" type="curve" smooth="yes"/>
      <point x="111" y="-141"/>
      <point x="131" y="-117"/>
      <point x="166" y="-87" type="curve"/>
      <point x="134" y="-48" type="line"/>
      <point x="84" y="-89"/>
      <point x="50" y="-129"/>
      <point x="50" y="-192" type="curve" smooth="yes"/>
      <point x="50" y="-259"/>
      <point x="106" y="-310"/>
    </contour>
  </outline>
</glyph>
<glyph name="oo-tamil" format="2">
  <advance width="840"/>
  <unicode hex="0B93"/>
  <note>
uni0B93
</note>
  <anchor x="359" y="0" name="bottom"/>
  <anchor x="295" y="-290" name="nukta"/>
  <anchor x="472" y="565" name="top"/>
  <anchor x="472" y="565" name="vedic"/>
  <outline>
    <contour>
      <point x="172" y="-320" type="curve" smooth="yes"/>
      <point x="347" y="-320"/>
      <point x="436" y="-132"/>
      <point x="563" y="-132" type="curve" smooth="yes"/>
      <point x="599" y="-132" type="line"/>
      <point x="612" y="-72" type="line"/>
      <point x="556" y="-72" type="line" smooth="yes"/>
      <point x="466" y="-72"/>
      <point x="424" y="-27"/>
      <point x="424" y="40" type="curve" smooth="yes"/>
      <point x="424" y="87"/>
      <point x="445" y="144"/>
      <point x="484" y="204" type="curve"/>
      <point x="490" y="201" type="line"/>
      <point x="475" y="164"/>
      <point x="468" y="129"/>
      <point x="468" y="100" type="curve" smooth="yes"/>
      <point x="468" y="36"/>
      <point x="503" y="-4"/>
      <point x="578" y="-4" type="curve" smooth="yes"/>
      <point x="703" y="-4"/>
      <point x="788" y="110"/>
      <point x="788" y="259" type="curve" smooth="yes"/>
      <point x="788" y="457"/>
      <point x="635" y="570"/>
      <point x="435" y="570" type="curve" smooth="yes"/>
      <point x="223" y="570"/>
      <point x="24" y="412"/>
      <point x="24" y="189" type="curve" smooth="yes"/>
      <point x="24" y="83"/>
      <point x="81" y="-5"/>
      <point x="177" y="-5" type="curve" smooth="yes"/>
      <point x="283" y="-5"/>
      <point x="362" y="73"/>
      <point x="362" y="187" type="curve" smooth="yes"/>
      <point x="362" y="270"/>
      <point x="308" y="323"/>
      <point x="239" y="323" type="curve" smooth="yes"/>
      <point x="151" y="323"/>
      <point x="98" y="247"/>
      <point x="59" y="149" type="curve"/>
      <point x="88" y="121" type="line"/>
      <point x="115" y="191"/>
      <point x="140" y="235"/>
      <point x="183" y="235" type="curve" smooth="yes"/>
      <point x="216" y="235"/>
      <point x="232" y="205"/>
      <point x="232" y="163" type="curve" smooth="yes"/>
      <point x="232" y="109"/>
      <point x="205" y="63"/>
      <point x="158" y="63" type="curve" smooth="yes"/>
      <point x="110" y="63"/>
      <point x="87" y="126"/>
      <point x="87" y="195" type="curve" smooth="yes"/>
      <point x="87" y="377"/>
      <point x="257" y="508"/>
      <point x="419" y="508" type="curve" smooth="yes"/>
      <point x="562" y="508"/>
      <point x="660" y="421"/>
      <point x="660" y="268" type="curve" smooth="yes"/>
      <point x="660" y="167"/>
      <point x="626" y="68"/>
      <point x="555" y="68" type="curve" smooth="yes"/>
      <point x="528" y="68"/>
      <point x="517" y="88"/>
      <point x="517" y="119" type="curve" smooth="yes"/>
      <point x="517" y="158"/>
      <point x="536" y="213"/>
      <point x="561" y="262" type="curve"/>
      <point x="493" y="294" type="line"/>
      <point x="420" y="202"/>
      <point x="369" y="104"/>
      <point x="369" y="27" type="curve" smooth="yes"/>
      <point x="369" y="-26"/>
      <point x="393" y="-70"/>
      <point x="450" y="-96" type="curve"/>
      <point x="449" y="-101" type="line"/>
      <point x="329" y="-126"/>
      <point x="259" y="-249"/>
      <point x="162" y="-249" type="curve" smooth="yes"/>
      <point x="115" y="-249"/>
      <point x="88" y="-223"/>
      <point x="88" y="-186" type="curve" smooth="yes"/>
      <point x="88" y="-154"/>
      <point x="110" y="-125"/>
      <point x="145" y="-125" type="curve" smooth="yes"/>
      <point x="177" y="-125"/>
      <point x="197" y="-143"/>
      <point x="200" y="-183" type="curve"/>
      <point x="239" y="-173"/>
      <point x="264" y="-146"/>
      <point x="264" y="-111" type="curve" smooth="yes"/>
      <point x="264" y="-75"/>
      <point x="228" y="-49"/>
      <point x="177" y="-49" type="curve" smooth="yes"/>
      <point x="91" y="-49"/>
      <point x="32" y="-117"/>
      <point x="32" y="-197" type="curve" smooth="yes"/>
      <point x="32" y="-266"/>
      <point x="92" y="-320"/>
    </contour>
  </outline>
</glyph>
<glyph name="nga-tamil" format="2">
  <advance width="826"/>
  <unicode hex="0B99"/>
  <note>
uni0B99
</note>
  <anchor x="352" y="0" name="bottom"/>
  <anchor x="506" y="565" name="imatra"/>
  <anchor x="349" y="0" name="nukta"/>
  <anchor x="491" y="565" name="top"/>
  <anchor x="473" y="565" name="vedic"/>
  <outline>
    <contour>
      <point x="2" y="0" type="line"/>
      <point x="68" y="0" type="line"/>
      <point x="175" y="505" type="line"/>
      <point x="270" y="505" type="line"/>
      <point x="202" y="185" type="line"/>
      <point x="330" y="185" type="line"/>
      <point x="344" y="250" type="line" smooth="yes"/>
      <point x="351" y="283"/>
      <point x="365" y="300"/>
      <point x="388" y="300" type="curve" smooth="yes"/>
      <point x="406" y="300"/>
      <point x="421" y="287"/>
      <point x="421" y="255" type="curve" smooth="yes"/>
      <point x="421" y="156"/>
      <point x="356" y="61"/>
      <point x="274" y="61" type="curve" smooth="yes"/>
      <point x="176" y="61" type="line"/>
      <point x="163" y="0" type="line"/>
      <point x="704" y="0" type="line"/>
      <point x="824" y="565" type="line"/>
      <point x="683" y="565" type="line"/>
      <point x="576" y="61" type="line"/>
      <point x="394" y="61" type="line"/>
      <point x="483" y="93"/>
      <point x="557" y="180"/>
      <point x="557" y="284" type="curve" smooth="yes"/>
      <point x="557" y="353"/>
      <point x="521" y="389"/>
      <point x="463" y="389" type="curve" smooth="yes"/>
      <point x="417" y="389"/>
      <point x="387" y="366"/>
      <point x="368" y="338" type="curve"/>
      <point x="403" y="505" type="line"/>
      <point x="512" y="505" type="line"/>
      <point x="525" y="565" type="line"/>
      <point x="122" y="565" type="line"/>
    </contour>
  </outline>
</glyph>
<glyph name="ca-tamil" format="2">
  <advance width="578"/>
  <unicode hex="0B9A"/>
  <note>
uni0B9A
</note>
  <anchor x="230" y="0" name="bottom"/>
  <anchor x="505" y="565" name="imatra"/>
  <anchor x="219" y="0" name="nukta"/>
  <anchor x="401" y="565" name="top"/>
  <anchor x="395" y="565" name="vedic"/>
  <outline>
    <contour>
      <point x="187" y="-4" type="curve" smooth="yes"/>
      <point x="305" y="-4"/>
      <point x="377" y="54"/>
      <point x="404" y="182" type="curve" smooth="yes"/>
      <point x="422" y="268" type="line"/>
      <point x="538" y="268" type="line"/>
      <point x="551" y="329" type="line"/>
      <point x="435" y="329" type="line"/>
      <point x="472" y="504" type="line"/>
      <point x="588" y="504" type="line"/>
      <point x="601" y="565" type="line"/>
      <point x="180" y="565" type="line"/>
      <point x="122" y="294" type="line"/>
      <point x="186" y="294" type="line"/>
      <point x="230" y="504" type="line"/>
      <point x="329" y="504" type="line"/>
      <point x="292" y="329" type="line"/>
      <point x="185" y="329" type="line" smooth="yes"/>
      <point x="97" y="329"/>
      <point x="14" y="261"/>
      <point x="14" y="153" type="curve" smooth="yes"/>
      <point x="14" y="66"/>
      <point x="74" y="-4"/>
    </contour>
    <contour>
      <point x="161" y="64" type="curve" smooth="yes"/>
      <point x="118" y="64"/>
      <point x="80" y="95"/>
      <point x="80" y="157" type="curve" smooth="yes"/>
      <point x="80" y="224"/>
      <point x="122" y="268"/>
      <point x="176" y="268" type="curve" smooth="yes"/>
      <point x="279" y="268" type="line"/>
      <point x="259" y="170" type="line" smooth="yes"/>
      <point x="243" y="92"/>
      <point x="211" y="64"/>
    </contour>
  </outline>
</glyph>
<glyph name="ja-tamil" format="2">
  <advance width="798"/>
  <unicode hex="0B9C"/>
  <note>
uni0B9C
</note>
  <anchor x="336" y="0" name="bottom"/>
  <anchor x="267" y="-314" name="nukta"/>
  <anchor x="464" y="565" name="top"/>
  <anchor x="458" y="565" name="vedic"/>
  <outline>
    <contour>
      <point x="103" y="-314" type="curve" smooth="yes"/>
      <point x="300" y="-314"/>
      <point x="349" y="-25"/>
      <point x="475" y="-25" type="curve" smooth="yes"/>
      <point x="516" y="-25"/>
      <point x="542" y="-61"/>
      <point x="542" y="-108" type="curve" smooth="yes"/>
      <point x="542" y="-181"/>
      <point x="507" y="-247"/>
      <point x="433" y="-247" type="curve" smooth="yes"/>
      <point x="406" y="-247"/>
      <point x="382" y="-237"/>
      <point x="360" y="-222" type="curve"/>
      <point x="326" y="-272" type="line"/>
      <point x="359" y="-298"/>
      <point x="405" y="-314"/>
      <point x="458" y="-314" type="curve" smooth="yes"/>
      <point x="572" y="-314"/>
      <point x="670" y="-241"/>
      <point x="670" y="-108" type="curve" smooth="yes"/>
      <point x="670" y="-17"/>
      <point x="611" y="44"/>
      <point x="514" y="44" type="curve" smooth="yes"/>
      <point x="320" y="44"/>
      <point x="271" y="-243"/>
      <point x="137" y="-243" type="curve" smooth="yes"/>
      <point x="99" y="-243"/>
      <point x="79" y="-203"/>
      <point x="79" y="-154" type="curve" smooth="yes"/>
      <point x="79" y="12"/>
      <point x="183" y="61"/>
      <point x="375" y="82" type="curve" smooth="yes"/>
      <point x="611" y="108"/>
      <point x="775" y="184"/>
      <point x="775" y="397" type="curve" smooth="yes"/>
      <point x="775" y="504"/>
      <point x="708" y="570"/>
      <point x="611" y="570" type="curve" smooth="yes"/>
      <point x="539" y="570"/>
      <point x="483" y="537"/>
      <point x="443" y="458" type="curve"/>
      <point x="431" y="525"/>
      <point x="374" y="570"/>
      <point x="292" y="570" type="curve" smooth="yes"/>
      <point x="156" y="570"/>
      <point x="55" y="445"/>
      <point x="55" y="299" type="curve" smooth="yes"/>
      <point x="55" y="220"/>
      <point x="91" y="154"/>
      <point x="165" y="154" type="curve" smooth="yes"/>
      <point x="250" y="154"/>
      <point x="309" y="222"/>
      <point x="309" y="311" type="curve" smooth="yes"/>
      <point x="309" y="370"/>
      <point x="275" y="411"/>
      <point x="221" y="411" type="curve" smooth="yes"/>
      <point x="166" y="411"/>
      <point x="125" y="372"/>
      <point x="88" y="271" type="curve"/>
      <point x="103" y="243" type="line"/>
      <point x="129" y="319"/>
      <point x="156" y="342"/>
      <point x="182" y="342" type="curve" smooth="yes"/>
      <point x="202" y="342"/>
      <point x="216" y="327"/>
      <point x="216" y="298" type="curve" smooth="yes"/>
      <point x="216" y="253"/>
      <point x="194" y="218"/>
      <point x="159" y="218" type="curve" smooth="yes"/>
      <point x="127" y="218"/>
      <point x="116" y="249"/>
      <point x="116" y="298" type="curve" smooth="yes"/>
      <point x="116" y="403"/>
      <point x="172" y="507"/>
      <point x="279" y="507" type="curve" smooth="yes"/>
      <point x="363" y="507"/>
      <point x="390" y="455"/>
      <point x="372" y="368" type="curve" smooth="yes"/>
      <point x="339" y="211" type="line"/>
      <point x="451" y="211" type="line"/>
      <point x="490" y="395" type="line" smooth="yes"/>
      <point x="504" y="463"/>
      <point x="533" y="506"/>
      <point x="583" y="506" type="curve" smooth="yes"/>
      <point x="625" y="506"/>
      <point x="647" y="474"/>
      <point x="647" y="414" type="curve" smooth="yes"/>
      <point x="647" y="207"/>
      <point x="545" y="147"/>
      <point x="321" y="123" type="curve" smooth="yes"/>
      <point x="127" y="102"/>
      <point x="-49" y="28"/>
      <point x="-49" y="-144" type="curve" smooth="yes"/>
      <point x="-49" y="-238"/>
      <point x="6" y="-314"/>
    </contour>
  </outline>
</glyph>
<glyph name="tta-tamil" format="2">
  <advance width="726"/>
  <unicode hex="0B9F"/>
  <note>
uni0B9F
</note>
  <anchor x="313" y="0" name="bottom"/>
  <anchor x="313" y="0" name="nukta"/>
  <anchor x="441" y="565" name="top"/>
  <anchor x="447" y="565" name="vedic"/>
  <outline>
    <contour>
      <point x="2" y="0" type="line"/>
      <point x="655" y="0" type="line"/>
      <point x="668" y="61" type="line"/>
      <point x="156" y="61" type="line"/>
      <point x="263" y="565" type="line"/>
      <point x="122" y="565" type="line"/>
    </contour>
  </outline>
</glyph>
<glyph name="nna-tamil" format="2">
  <advance width="1442"/>
  <unicode hex="0BA3"/>
  <note>
uni0BA3
</note>
  <anchor x="695" y="0" name="bottom"/>
  <anchor x="1397" y="565" name="imatra"/>
  <anchor x="694" y="0" name="nukta"/>
  <anchor x="805" y="565" name="top"/>
  <anchor x="803" y="565" name="vedic"/>
  <outline>
    <contour>
      <point x="535" y="-4" type="curve" smooth="yes"/>
      <point x="647" y="-4"/>
      <point x="729" y="84"/>
      <point x="729" y="238" type="curve" smooth="yes"/>
      <point x="729" y="429"/>
      <point x="611" y="570"/>
      <point x="388" y="570" type="curve" smooth="yes"/>
      <point x="193" y="570"/>
      <point x="25" y="395"/>
      <point x="25" y="189" type="curve" smooth="yes"/>
      <point x="25" y="83"/>
      <point x="84" y="-5"/>
      <point x="180" y="-5" type="curve" smooth="yes"/>
      <point x="286" y="-5"/>
      <point x="365" y="73"/>
      <point x="365" y="187" type="curve" smooth="yes"/>
      <point x="365" y="270"/>
      <point x="313" y="323"/>
      <point x="244" y="323" type="curve" smooth="yes"/>
      <point x="156" y="323"/>
      <point x="99" y="247"/>
      <point x="60" y="149" type="curve"/>
      <point x="89" y="121" type="line"/>
      <point x="116" y="191"/>
      <point x="143" y="235"/>
      <point x="186" y="235" type="curve" smooth="yes"/>
      <point x="219" y="235"/>
      <point x="235" y="205"/>
      <point x="235" y="163" type="curve" smooth="yes"/>
      <point x="235" y="109"/>
      <point x="208" y="63"/>
      <point x="161" y="63" type="curve" smooth="yes"/>
      <point x="113" y="63"/>
      <point x="88" y="126"/>
      <point x="88" y="195" type="curve" smooth="yes"/>
      <point x="88" y="357"/>
      <point x="209" y="507"/>
      <point x="377" y="507" type="curve" smooth="yes"/>
      <point x="542" y="507"/>
      <point x="604" y="392"/>
      <point x="602" y="235" type="curve" smooth="yes"/>
      <point x="601" y="137"/>
      <point x="569" y="64"/>
      <point x="514" y="64" type="curve" smooth="yes"/>
      <point x="484" y="64"/>
      <point x="469" y="98"/>
      <point x="469" y="153" type="curve" smooth="yes"/>
      <point x="469" y="325"/>
      <point x="611" y="507"/>
      <point x="788" y="507" type="curve" smooth="yes"/>
      <point x="933" y="507"/>
      <point x="965" y="400"/>
      <point x="963" y="245" type="curve" smooth="yes"/>
      <point x="962" y="147"/>
      <point x="928" y="64"/>
      <point x="875" y="64" type="curve" smooth="yes"/>
      <point x="845" y="64"/>
      <point x="830" y="97"/>
      <point x="830" y="152" type="curve" smooth="yes"/>
      <point x="830" y="346"/>
      <point x="986" y="505"/>
      <point x="1182" y="505" type="curve" smooth="yes"/>
      <point x="1472" y="505" type="line"/>
      <point x="1484" y="565" type="line"/>
      <point x="1189" y="565" type="line" smooth="yes"/>
      <point x="954" y="565"/>
      <point x="767" y="373"/>
      <point x="767" y="147" type="curve" smooth="yes"/>
      <point x="767" y="58"/>
      <point x="809" y="-4"/>
      <point x="896" y="-4" type="curve" smooth="yes"/>
      <point x="1010" y="-4"/>
      <point x="1090" y="94"/>
      <point x="1090" y="248" type="curve" smooth="yes"/>
      <point x="1090" y="428"/>
      <point x="1002" y="570"/>
      <point x="799" y="570" type="curve" smooth="yes"/>
      <point x="581" y="570"/>
      <point x="406" y="352"/>
      <point x="406" y="148" type="curve" smooth="yes"/>
      <point x="406" y="59"/>
      <point x="448" y="-4"/>
    </contour>
    <contour>
      <point x="1122" y="0" type="line"/>
      <point x="1262" y="0" type="line"/>
      <point x="1376" y="536" type="line"/>
      <point x="1236" y="536" type="line"/>
    </contour>
  </outline>
</glyph>
<glyph name="na-tamil" format="2">
  <advance width="668"/>
  <unicode hex="0BA8"/>
  <note>
uni0BA8
</note>
  <anchor x="258" y="0" name="bottom"/>
  <anchor x="493" y="565" name="imatra"/>
  <anchor x="256" y="-201" name="nukta"/>
  <anchor x="379" y="565" name="top"/>
  <anchor x="397" y="565" name="vedic"/>
  <outline>
    <contour>
      <point x="54" y="-272" type="curve"/>
      <point x="66" y="-186"/>
      <point x="98" y="-134"/>
      <point x="190" y="-134" type="curve" smooth="yes"/>
      <point x="290" y="-134" type="line" smooth="yes"/>
      <point x="462" y="-134"/>
      <point x="606" y="10"/>
      <point x="606" y="203" type="curve" smooth="yes"/>
      <point x="606" y="302"/>
      <point x="558" y="350"/>
      <point x="492" y="350" type="curve" smooth="yes"/>
      <point x="436" y="350"/>
      <point x="408" y="321"/>
      <point x="380" y="287" type="curve"/>
      <point x="426" y="505" type="line"/>
      <point x="551" y="505" type="line"/>
      <point x="564" y="565" type="line"/>
      <point x="124" y="565" type="line"/>
      <point x="4" y="0" type="line"/>
      <point x="68" y="0" type="line"/>
      <point x="175" y="505" type="line"/>
      <point x="285" y="505" type="line"/>
      <point x="178" y="0" type="line"/>
      <point x="319" y="0" type="line"/>
      <point x="359" y="190" type="line" smooth="yes"/>
      <point x="369" y="236"/>
      <point x="395" y="261"/>
      <point x="422" y="261" type="curve" smooth="yes"/>
      <point x="455" y="261"/>
      <point x="471" y="238"/>
      <point x="471" y="193" type="curve" smooth="yes"/>
      <point x="471" y="47"/>
      <point x="400" y="-82"/>
      <point x="249" y="-82" type="curve" smooth="yes"/>
      <point x="154" y="-82" type="line" smooth="yes"/>
      <point x="52" y="-82"/>
      <point x="-39" y="-100"/>
      <point x="-39" y="-197" type="curve" smooth="yes"/>
      <point x="-39" y="-242"/>
      <point x="-4" y="-272"/>
    </contour>
  </outline>
</glyph>
<glyph name="pa-tamil" format="2">
  <advance width="724"/>
  <unicode hex="0BAA"/>
  <note>
uni0BAA
</note>
  <anchor x="306" y="0" name="bottom"/>
  <anchor x="714" y="565" name="imatra"/>
  <anchor x="306" y="0" name="nukta"/>
  <anchor x="427" y="565" name="top"/>
  <anchor x="422" y="565" name="vedic"/>
  <outline>
    <contour>
      <point x="2" y="0" type="line"/>
      <point x="602" y="0" type="line"/>
      <point x="722" y="565" type="line"/>
      <point x="582" y="565" type="line"/>
      <point x="475" y="61" type="line"/>
      <point x="156" y="61" type="line"/>
      <point x="263" y="565" type="line"/>
      <point x="122" y="565" type="line"/>
    </contour>
  </outline>
</glyph>
<glyph name="ma-tamil" format="2">
  <advance width="723"/>
  <unicode hex="0BAE"/>
  <note>
uni0BAE
</note>
  <anchor x="299" y="0" name="bottom"/>
  <anchor x="727" y="565" name="imatra"/>
  <anchor x="300" y="0" name="nukta"/>
  <anchor x="427" y="565" name="top"/>
  <anchor x="437" y="565" name="vedic"/>
  <outline>
    <contour>
      <point x="2" y="0" type="line"/>
      <point x="486" y="0" type="line" smooth="yes"/>
      <point x="626" y="0"/>
      <point x="686" y="182"/>
      <point x="686" y="349" type="curve" smooth="yes"/>
      <point x="686" y="488"/>
      <point x="632" y="570"/>
      <point x="530" y="570" type="curve" smooth="yes"/>
      <point x="434" y="570"/>
      <point x="383" y="504"/>
      <point x="365" y="420" type="curve" smooth="yes"/>
      <point x="289" y="61" type="line"/>
      <point x="156" y="61" type="line"/>
      <point x="263" y="565" type="line"/>
      <point x="122" y="565" type="line"/>
    </contour>
    <contour>
      <point x="430" y="61" type="line"/>
      <point x="507" y="424" type="line" smooth="yes"/>
      <point x="517" y="470"/>
      <point x="532" y="492"/>
      <point x="561" y="492" type="curve" smooth="yes"/>
      <point x="596" y="492"/>
      <point x="620" y="450"/>
      <point x="620" y="346" type="curve" smooth="yes"/>
      <point x="620" y="231"/>
      <point x="582" y="61"/>
      <point x="494" y="61" type="curve" smooth="yes"/>
    </contour>
  </outline>
</glyph>
<glyph name="ya-tamil" format="2">
  <advance width="809"/>
  <unicode hex="0BAF"/>
  <note>
uni0BAF
</note>
  <anchor x="337" y="0" name="bottom"/>
  <anchor x="806" y="565" name="imatra"/>
  <anchor x="336" y="0" name="nukta"/>
  <anchor x="475" y="565" name="top"/>
  <anchor x="469" y="565" name="vedic"/>
  <outline>
    <contour>
      <point x="138" y="-8" type="curve" smooth="yes"/>
      <point x="190" y="-8"/>
      <point x="230" y="18"/>
      <point x="260" y="55" type="curve"/>
      <point x="249" y="0" type="line"/>
      <point x="687" y="0" type="line"/>
      <point x="807" y="565" type="line"/>
      <point x="666" y="565" type="line"/>
      <point x="559" y="61" type="line"/>
      <point x="384" y="61" type="line"/>
      <point x="492" y="565" type="line"/>
      <point x="355" y="565" type="line"/>
      <point x="265" y="139" type="line" smooth="yes"/>
      <point x="254" y="89"/>
      <point x="228" y="67"/>
      <point x="201" y="67" type="curve" smooth="yes"/>
      <point x="170" y="67"/>
      <point x="160" y="96"/>
      <point x="172" y="151" type="curve" smooth="yes"/>
      <point x="260" y="565" type="line"/>
      <point x="120" y="565" type="line"/>
      <point x="35" y="164" type="line" smooth="yes"/>
      <point x="13" y="60"/>
      <point x="61" y="-8"/>
    </contour>
  </outline>
</glyph>
<glyph name="ra-tamil" format="2">
  <advance width="517"/>
  <unicode hex="0BB0"/>
  <note>
uni0BB0
</note>
  <anchor x="191" y="0" name="bottom"/>
  <anchor x="502" y="565" name="imatra"/>
  <anchor x="143" y="-226" name="nukta"/>
  <anchor x="328" y="565" name="top"/>
  <anchor x="339" y="565" name="vedic"/>
  <outline>
    <contour>
      <point x="65" y="-220" type="line"/>
      <point x="347" y="42" type="line"/>
      <point x="445" y="505" type="line"/>
      <point x="547" y="505" type="line"/>
      <point x="560" y="565" type="line"/>
      <point x="122" y="565" type="line"/>
      <point x="2" y="0" type="line"/>
      <point x="67" y="0" type="line"/>
      <point x="174" y="505" type="line"/>
      <point x="304" y="505" type="line"/>
      <point x="194" y="-15" type="line"/>
      <point x="22" y="-174" type="line"/>
    </contour>
  </outline>
</glyph>
<glyph name="rra-tamil" format="2">
  <advance width="722"/>
  <unicode hex="0BB1"/>
  <note>
uni0BB1
</note>
  <anchor x="295" y="0" name="bottom"/>
  <anchor x="311" y="-152" name="nukta"/>
  <anchor x="418" y="565" name="top"/>
  <anchor x="425" y="565" name="vedic"/>
  <outline>
    <contour>
      <point x="50" y="-268" type="curve"/>
      <point x="62" y="-182"/>
      <point x="94" y="-130"/>
      <point x="186" y="-130" type="curve" smooth="yes"/>
      <point x="273" y="-130" type="line" smooth="yes"/>
      <point x="543" y="-130"/>
      <point x="688" y="97"/>
      <point x="688" y="339" type="curve" smooth="yes"/>
      <point x="688" y="490"/>
      <point x="611" y="570"/>
      <point x="507" y="570" type="curve" smooth="yes"/>
      <point x="423" y="570"/>
      <point x="378" y="528"/>
      <point x="345" y="478" type="curve"/>
      <point x="331" y="533"/>
      <point x="291" y="570"/>
      <point x="230" y="570" type="curve" smooth="yes"/>
      <point x="155" y="570"/>
      <point x="102" y="519"/>
      <point x="85" y="437" type="curve" smooth="yes"/>
      <point x="-8" y="0" type="line"/>
      <point x="55" y="0" type="line"/>
      <point x="147" y="432" type="line" smooth="yes"/>
      <point x="157" y="477"/>
      <point x="178" y="505"/>
      <point x="216" y="505" type="curve" smooth="yes"/>
      <point x="259" y="505"/>
      <point x="269" y="463"/>
      <point x="258" y="410" type="curve" smooth="yes"/>
      <point x="171" y="0" type="line"/>
      <point x="316" y="0" type="line"/>
      <point x="405" y="420" type="line" smooth="yes"/>
      <point x="417" y="475"/>
      <point x="441" y="505"/>
      <point x="484" y="505" type="curve" smooth="yes"/>
      <point x="530" y="505"/>
      <point x="552" y="460"/>
      <point x="552" y="377" type="curve" smooth="yes"/>
      <point x="552" y="159"/>
      <point x="478" y="-75"/>
      <point x="252" y="-75" type="curve" smooth="yes"/>
      <point x="150" y="-75" type="line" smooth="yes"/>
      <point x="48" y="-75"/>
      <point x="-43" y="-95"/>
      <point x="-43" y="-192" type="curve" smooth="yes"/>
      <point x="-43" y="-237"/>
      <point x="-8" y="-268"/>
    </contour>
  </outline>
</glyph>
<glyph name="la-tamil" format="2">
  <advance width="854"/>
  <unicode hex="0BB2"/>
  <note>
uni0BB2
</note>
  <anchor x="361" y="0" name="bottom"/>
  <anchor x="361" y="0" name="nukta"/>
  <anchor x="494" y="565" name="top"/>
  <anchor x="484" y="565" name="vedic"/>
  <outline>
    <contour>
      <point x="180" y="-5" type="curve" smooth="yes"/>
      <point x="286" y="-5"/>
      <point x="365" y="73"/>
      <point x="365" y="187" type="curve" smooth="yes"/>
      <point x="365" y="270"/>
      <point x="311" y="323"/>
      <point x="242" y="323" type="curve" smooth="yes"/>
      <point x="154" y="323"/>
      <point x="99" y="247"/>
      <point x="60" y="149" type="curve"/>
      <point x="89" y="121" type="line"/>
      <point x="116" y="191"/>
      <point x="143" y="235"/>
      <point x="186" y="235" type="curve" smooth="yes"/>
      <point x="219" y="235"/>
      <point x="235" y="205"/>
      <point x="235" y="163" type="curve" smooth="yes"/>
      <point x="235" y="109"/>
      <point x="208" y="63"/>
      <point x="161" y="63" type="curve" smooth="yes"/>
      <point x="113" y="63"/>
      <point x="88" y="126"/>
      <point x="88" y="195" type="curve" smooth="yes"/>
      <point x="88" y="357"/>
      <point x="194" y="504"/>
      <point x="339" y="504" type="curve" smooth="yes"/>
      <point x="459" y="504"/>
      <point x="485" y="415"/>
      <point x="457" y="291" type="curve" smooth="yes"/>
      <point x="431" y="178" type="line" smooth="yes"/>
      <point x="406" y="68"/>
      <point x="448" y="-2"/>
      <point x="555" y="-2" type="curve" smooth="yes"/>
      <point x="705" y="-2"/>
      <point x="825" y="145"/>
      <point x="825" y="369" type="curve" smooth="yes"/>
      <point x="825" y="443"/>
      <point x="813" y="509"/>
      <point x="790" y="570" type="curve"/>
      <point x="725" y="547" type="line"/>
      <point x="744" y="493"/>
      <point x="759" y="425"/>
      <point x="759" y="361" type="curve" smooth="yes"/>
      <point x="759" y="195"/>
      <point x="671" y="71"/>
      <point x="601" y="71" type="curve" smooth="yes"/>
      <point x="561" y="71"/>
      <point x="557" y="113"/>
      <point x="571" y="172" type="curve" smooth="yes"/>
      <point x="600" y="298" type="line" smooth="yes"/>
      <point x="639" y="466"/>
      <point x="548" y="570"/>
      <point x="373" y="570" type="curve" smooth="yes"/>
      <point x="180" y="570"/>
      <point x="25" y="392"/>
      <point x="25" y="189" type="curve" smooth="yes"/>
      <point x="25" y="83"/>
      <point x="84" y="-5"/>
    </contour>
  </outline>
</glyph>
<glyph name="lla-tamil" format="2">
  <advance width="1032"/>
  <unicode hex="0BB3"/>
  <note>
uni0BB3
</note>
  <anchor x="453" y="0" name="bottom"/>
  <anchor x="975" y="565" name="imatra"/>
  <anchor x="456" y="0" name="nukta"/>
  <anchor x="600" y="565" name="top"/>
  <anchor x="588" y="565" name="vedic"/>
  <outline>
    <contour>
      <point x="182" y="-5" type="curve" smooth="yes"/>
      <point x="288" y="-5"/>
      <point x="367" y="73"/>
      <point x="367" y="187" type="curve" smooth="yes"/>
      <point x="367" y="270"/>
      <point x="315" y="323"/>
      <point x="246" y="323" type="curve" smooth="yes"/>
      <point x="158" y="323"/>
      <point x="101" y="247"/>
      <point x="62" y="149" type="curve"/>
      <point x="91" y="121" type="line"/>
      <point x="118" y="191"/>
      <point x="145" y="235"/>
      <point x="188" y="235" type="curve" smooth="yes"/>
      <point x="221" y="235"/>
      <point x="237" y="205"/>
      <point x="237" y="163" type="curve" smooth="yes"/>
      <point x="237" y="109"/>
      <point x="210" y="63"/>
      <point x="163" y="63" type="curve" smooth="yes"/>
      <point x="115" y="63"/>
      <point x="90" y="126"/>
      <point x="90" y="195" type="curve" smooth="yes"/>
      <point x="90" y="357"/>
      <point x="180" y="503"/>
      <point x="341" y="503" type="curve" smooth="yes"/>
      <point x="465" y="503"/>
      <point x="523" y="432"/>
      <point x="496" y="296" type="curve"/>
      <point x="559" y="306" type="line"/>
      <point x="585" y="470"/>
      <point x="496" y="570"/>
      <point x="347" y="570" type="curve" smooth="yes"/>
      <point x="159" y="570"/>
      <point x="27" y="395"/>
      <point x="27" y="189" type="curve" smooth="yes"/>
      <point x="27" y="83"/>
      <point x="86" y="-5"/>
    </contour>
    <contour>
      <point x="433" y="0" type="line"/>
      <point x="573" y="0" type="line"/>
      <point x="681" y="505" type="line"/>
      <point x="820" y="505" type="line"/>
      <point x="712" y="0" type="line"/>
      <point x="852" y="0" type="line"/>
      <point x="960" y="505" type="line"/>
      <point x="1062" y="505" type="line"/>
      <point x="1074" y="565" type="line"/>
      <point x="586" y="565" type="line"/>
      <point x="543" y="359" type="line"/>
      <point x="511" y="367" type="line"/>
    </contour>
  </outline>
</glyph>
<glyph name="ssa-tamil" format="2">
  <advance width="1232"/>
  <unicode hex="0BB7"/>
  <note>
uni0BB7
</note>
  <anchor x="564" y="0" name="bottom"/>
  <anchor x="449" y="0" name="nukta"/>
  <anchor x="701" y="565" name="top"/>
  <anchor x="688" y="565" name="vedic"/>
  <outline>
    <contour>
      <point x="180" y="-5" type="curve" smooth="yes"/>
      <point x="286" y="-5"/>
      <point x="365" y="73"/>
      <point x="365" y="187" type="curve" smooth="yes"/>
      <point x="365" y="270"/>
      <point x="311" y="323"/>
      <point x="242" y="323" type="curve" smooth="yes"/>
      <point x="154" y="323"/>
      <point x="99" y="247"/>
      <point x="60" y="149" type="curve"/>
      <point x="89" y="121" type="line"/>
      <point x="116" y="191"/>
      <point x="143" y="235"/>
      <point x="186" y="235" type="curve" smooth="yes"/>
      <point x="219" y="235"/>
      <point x="235" y="205"/>
      <point x="235" y="163" type="curve" smooth="yes"/>
      <point x="235" y="109"/>
      <point x="208" y="63"/>
      <point x="161" y="63" type="curve" smooth="yes"/>
      <point x="113" y="63"/>
      <point x="88" y="126"/>
      <point x="88" y="195" type="curve" smooth="yes"/>
      <point x="88" y="357"/>
      <point x="193" y="504"/>
      <point x="343" y="504" type="curve" smooth="yes"/>
      <point x="438" y="504"/>
      <point x="493" y="438"/>
      <point x="491" y="327" type="curve" smooth="yes"/>
      <point x="489" y="208"/>
      <point x="451" y="128"/>
      <point x="394" y="44" type="curve"/>
      <point x="408" y="0" type="line"/>
      <point x="1125" y="0" type="line"/>
      <point x="1191" y="306" type="line"/>
      <point x="1053" y="256" type="line"/>
      <point x="1010" y="61" type="line"/>
      <point x="491" y="61" type="line"/>
      <point x="580" y="142"/>
      <point x="631" y="228"/>
      <point x="631" y="344" type="curve" smooth="yes"/>
      <point x="631" y="491"/>
      <point x="517" y="570"/>
      <point x="370" y="570" type="curve" smooth="yes"/>
      <point x="172" y="570"/>
      <point x="25" y="392"/>
      <point x="25" y="189" type="curve" smooth="yes"/>
      <point x="25" y="83"/>
      <point x="84" y="-5"/>
    </contour>
    <contour>
      <point x="714" y="-265" type="line"/>
      <point x="844" y="-265" type="line"/>
      <point x="988" y="408" type="line" smooth="yes"/>
      <point x="1009" y="506"/>
      <point x="978" y="570"/>
      <point x="887" y="570" type="curve" smooth="yes"/>
      <point x="774" y="570"/>
      <point x="703" y="476"/>
      <point x="703" y="367" type="curve" smooth="yes"/>
      <point x="703" y="274"/>
      <point x="764" y="194"/>
      <point x="873" y="194" type="curve" smooth="yes"/>
      <point x="989" y="194"/>
      <point x="1074" y="230"/>
      <point x="1190" y="300" type="curve"/>
      <point x="1191" y="311" type="line"/>
      <point x="1169" y="350" type="line"/>
      <point x="1064" y="287"/>
      <point x="968" y="253"/>
      <point x="883" y="253" type="curve" smooth="yes"/>
      <point x="797" y="253"/>
      <point x="763" y="305"/>
      <point x="763" y="378" type="curve" smooth="yes"/>
      <point x="763" y="425"/>
      <point x="791" y="487"/>
      <point x="831" y="487" type="curve" smooth="yes"/>
      <point x="861" y="487"/>
      <point x="867" y="458"/>
      <point x="860" y="423" type="curve" smooth="yes"/>
    </contour>
  </outline>
</glyph>
<glyph name="sa-tamil" format="2">
  <advance width="1126"/>
  <unicode hex="0BB8"/>
  <note>
uni0BB8
</note>
  <anchor x="528" y="0" name="bottom"/>
  <anchor x="525" y="0" name="nukta"/>
  <anchor x="638" y="565" name="top"/>
  <anchor x="644" y="565" name="vedic"/>
  <outline>
    <contour>
      <point x="414" y="0" type="line"/>
      <point x="554" y="0" type="line"/>
      <point x="647" y="441" type="line" smooth="yes"/>
      <point x="657" y="490"/>
      <point x="680" y="506"/>
      <point x="715" y="506" type="curve" smooth="yes"/>
      <point x="752" y="506"/>
      <point x="768" y="474"/>
      <point x="759" y="431" type="curve" smooth="yes"/>
      <point x="703" y="178" type="line" smooth="yes"/>
      <point x="679" y="68"/>
      <point x="720" y="-2"/>
      <point x="827" y="-2" type="curve" smooth="yes"/>
      <point x="977" y="-2"/>
      <point x="1097" y="145"/>
      <point x="1097" y="369" type="curve" smooth="yes"/>
      <point x="1097" y="443"/>
      <point x="1085" y="509"/>
      <point x="1062" y="570" type="curve"/>
      <point x="997" y="547" type="line"/>
      <point x="1016" y="493"/>
      <point x="1031" y="425"/>
      <point x="1031" y="361" type="curve" smooth="yes"/>
      <point x="1031" y="195"/>
      <point x="943" y="71"/>
      <point x="873" y="71" type="curve" smooth="yes"/>
      <point x="833" y="71"/>
      <point x="830" y="113"/>
      <point x="843" y="172" type="curve" smooth="yes"/>
      <point x="893" y="395" type="line" smooth="yes"/>
      <point x="918" y="505"/>
      <point x="845" y="569"/>
      <point x="735" y="569" type="curve" smooth="yes"/>
      <point x="636" y="569"/>
      <point x="556" y="509"/>
      <point x="541" y="438" type="curve" smooth="yes"/>
      <point x="525" y="362" type="line"/>
      <point x="491" y="362" type="line"/>
    </contour>
    <contour>
      <point x="181" y="-5" type="curve" smooth="yes"/>
      <point x="287" y="-5"/>
      <point x="366" y="73"/>
      <point x="366" y="187" type="curve" smooth="yes"/>
      <point x="366" y="270"/>
      <point x="312" y="323"/>
      <point x="243" y="323" type="curve" smooth="yes"/>
      <point x="155" y="323"/>
      <point x="100" y="247"/>
      <point x="61" y="149" type="curve"/>
      <point x="90" y="121" type="line"/>
      <point x="117" y="191"/>
      <point x="144" y="235"/>
      <point x="187" y="235" type="curve" smooth="yes"/>
      <point x="220" y="235"/>
      <point x="236" y="205"/>
      <point x="236" y="163" type="curve" smooth="yes"/>
      <point x="236" y="109"/>
      <point x="209" y="63"/>
      <point x="162" y="63" type="curve" smooth="yes"/>
      <point x="114" y="63"/>
      <point x="89" y="126"/>
      <point x="89" y="195" type="curve" smooth="yes"/>
      <point x="89" y="357"/>
      <point x="199" y="503"/>
      <point x="344" y="503" type="curve" smooth="yes"/>
      <point x="457" y="503"/>
      <point x="506" y="443"/>
      <point x="481" y="313" type="curve"/>
      <point x="545" y="323" type="line"/>
      <point x="572" y="474"/>
      <point x="499" y="570"/>
      <point x="362" y="570" type="curve" smooth="yes"/>
      <point x="168" y="570"/>
      <point x="26" y="392"/>
      <point x="26" y="189" type="curve" smooth="yes"/>
      <point x="26" y="83"/>
      <point x="85" y="-5"/>
    </contour>
  </outline>
</glyph>
<glyph name="ha-tamil" format="2">
  <advance width="1376"/>
  <unicode hex="0BB9"/>
  <note>
uni0BB9
</note>
  <anchor x="638" y="0" name="bottom"/>
  <anchor x="611" y="-136" name="nukta"/>
  <anchor x="772" y="565" name="top"/>
  <anchor x="763" y="565" name="vedic"/>
  <outline>
    <contour>
      <point x="98" y="-272" type="curve"/>
      <point x="110" y="-186"/>
      <point x="142" y="-135"/>
      <point x="234" y="-135" type="curve" smooth="yes"/>
      <point x="870" y="-135" type="line" smooth="yes"/>
      <point x="1190" y="-135"/>
      <point x="1343" y="107"/>
      <point x="1343" y="339" type="curve" smooth="yes"/>
      <point x="1343" y="490"/>
      <point x="1266" y="570"/>
      <point x="1162" y="570" type="curve" smooth="yes"/>
      <point x="1078" y="570"/>
      <point x="1033" y="528"/>
      <point x="1000" y="478" type="curve"/>
      <point x="986" y="533"/>
      <point x="946" y="570"/>
      <point x="885" y="570" type="curve" smooth="yes"/>
      <point x="810" y="570"/>
      <point x="757" y="519"/>
      <point x="740" y="437" type="curve" smooth="yes"/>
      <point x="660" y="61" type="line"/>
      <point x="491" y="61" type="line"/>
      <point x="580" y="142"/>
      <point x="631" y="228"/>
      <point x="631" y="344" type="curve" smooth="yes"/>
      <point x="631" y="491"/>
      <point x="517" y="570"/>
      <point x="370" y="570" type="curve" smooth="yes"/>
      <point x="172" y="570"/>
      <point x="25" y="392"/>
      <point x="25" y="189" type="curve" smooth="yes"/>
      <point x="25" y="83"/>
      <point x="84" y="-5"/>
      <point x="180" y="-5" type="curve" smooth="yes"/>
      <point x="286" y="-5"/>
      <point x="365" y="73"/>
      <point x="365" y="187" type="curve" smooth="yes"/>
      <point x="365" y="270"/>
      <point x="311" y="323"/>
      <point x="242" y="323" type="curve" smooth="yes"/>
      <point x="154" y="323"/>
      <point x="99" y="247"/>
      <point x="60" y="149" type="curve"/>
      <point x="89" y="121" type="line"/>
      <point x="116" y="191"/>
      <point x="143" y="235"/>
      <point x="186" y="235" type="curve" smooth="yes"/>
      <point x="219" y="235"/>
      <point x="235" y="205"/>
      <point x="235" y="163" type="curve" smooth="yes"/>
      <point x="235" y="109"/>
      <point x="208" y="63"/>
      <point x="161" y="63" type="curve" smooth="yes"/>
      <point x="113" y="63"/>
      <point x="88" y="126"/>
      <point x="88" y="195" type="curve" smooth="yes"/>
      <point x="88" y="357"/>
      <point x="193" y="504"/>
      <point x="343" y="504" type="curve" smooth="yes"/>
      <point x="438" y="504"/>
      <point x="493" y="438"/>
      <point x="491" y="327" type="curve" smooth="yes"/>
      <point x="489" y="208"/>
      <point x="451" y="128"/>
      <point x="394" y="44" type="curve"/>
      <point x="408" y="0" type="line"/>
      <point x="710" y="0" type="line"/>
      <point x="802" y="432" type="line" smooth="yes"/>
      <point x="812" y="477"/>
      <point x="833" y="505"/>
      <point x="871" y="505" type="curve" smooth="yes"/>
      <point x="914" y="505"/>
      <point x="924" y="463"/>
      <point x="913" y="410" type="curve" smooth="yes"/>
      <point x="826" y="0" type="line"/>
      <point x="971" y="0" type="line"/>
      <point x="1060" y="420" type="line" smooth="yes"/>
      <point x="1072" y="475"/>
      <point x="1096" y="505"/>
      <point x="1139" y="505" type="curve" smooth="yes"/>
      <point x="1185" y="505"/>
      <point x="1207" y="460"/>
      <point x="1207" y="377" type="curve" smooth="yes"/>
      <point x="1207" y="169"/>
      <point x="1125" y="-79"/>
      <point x="849" y="-79" type="curve" smooth="yes"/>
      <point x="198" y="-79" type="line" smooth="yes"/>
      <point x="96" y="-79"/>
      <point x="5" y="-99"/>
      <point x="5" y="-196" type="curve" smooth="yes"/>
      <point x="5" y="-241"/>
      <point x="40" y="-272"/>
    </contour>
  </outline>
</glyph>
<glyph name="aaMatra-tamil" format="2">
  <advance width="519"/>
  <unicode hex="0BBE"/>
  <note>
uni0BBE
</note>
  <anchor x="209" y="0" name="bottom"/>
  <anchor x="208" y="0" name="nukta"/>
  <anchor x="322" y="565" name="top"/>
  <anchor x="322" y="565" name="vedic"/>
  <outline>
    <contour>
      <point x="2" y="0" type="line"/>
      <point x="67" y="0" type="line"/>
      <point x="174" y="505" type="line"/>
      <point x="306" y="505" type="line"/>
      <point x="199" y="0" type="line"/>
      <point x="340" y="0" type="line"/>
      <point x="447" y="505" type="line"/>
      <point x="549" y="505" type="line"/>
      <point x="562" y="565" type="line"/>
      <point x="122" y="565" type="line"/>
    </contour>
  </outline>
</glyph>
<glyph name="iMatra-tamil" format="2">
  <advance width="173"/>
  <unicode hex="0BBF"/>
  <note>
uni0BBF
</note>
  <anchor x="-34" y="831" name="top"/>
  <outline>
    <contour>
      <point x="-12" y="0" type="line"/>
      <point x="53" y="0" type="line"/>
      <point x="175" y="575" type="line" smooth="yes"/>
      <point x="208" y="731"/>
      <point x="123" y="831"/>
      <point x="-34" y="831" type="curve" smooth="yes"/>
      <point x="-162" y="831"/>
      <point x="-252" y="746"/>
      <point x="-252" y="635" type="curve" smooth="yes"/>
      <point x="-252" y="565"/>
      <point x="-203" y="507"/>
      <point x="-120" y="507" type="curve" smooth="yes"/>
      <point x="-117" y="507" type="line"/>
      <point x="-105" y="565" type="line"/>
      <point x="-107" y="565" type="line" smooth="yes"/>
      <point x="-147" y="565"/>
      <point x="-173" y="590"/>
      <point x="-173" y="625" type="curve" smooth="yes"/>
      <point x="-173" y="679"/>
      <point x="-122" y="716"/>
      <point x="-47" y="716" type="curve" smooth="yes"/>
      <point x="64" y="716"/>
      <point x="127" y="651"/>
      <point x="103" y="539" type="curve" smooth="yes"/>
    </contour>
  </outline>
</glyph>
<glyph name="iiMatra-tamil" format="2">
  <unicode hex="0BC0"/>
  <note>
uni0BC0
</note>
  <anchor x="61" y="565" name="_imatra"/>
  <anchor x="106" y="906" name="top"/>
  <outline>
    <contour>
      <point x="32" y="507" type="curve" smooth="yes"/>
      <point x="49" y="507" type="line"/>
      <point x="61" y="565" type="line"/>
      <point x="47" y="565" type="line" smooth="yes"/>
      <point x="-10" y="565"/>
      <point x="-45" y="603"/>
      <point x="-45" y="675" type="curve" smooth="yes"/>
      <point x="-45" y="765"/>
      <point x="10" y="843"/>
      <point x="94" y="843" type="curve" smooth="yes"/>
      <point x="140" y="843"/>
      <point x="164" y="813"/>
      <point x="164" y="767" type="curve" smooth="yes"/>
      <point x="164" y="719"/>
      <point x="143" y="680"/>
      <point x="103" y="680" type="curve" smooth="yes"/>
      <point x="44" y="680"/>
      <point x="59" y="790"/>
      <point x="109" y="866" type="curve"/>
      <point x="65" y="870" type="line"/>
      <point x="-18" y="750"/>
      <point x="-6" y="607"/>
      <point x="120" y="607" type="curve" smooth="yes"/>
      <point x="203" y="607"/>
      <point x="271" y="671"/>
      <point x="271" y="760" type="curve" smooth="yes"/>
      <point x="271" y="856"/>
      <point x="199" y="906"/>
      <point x="106" y="906" type="curve" smooth="yes"/>
      <point x="-15" y="906"/>
      <point x="-108" y="796"/>
      <point x="-108" y="671" type="curve" smooth="yes"/>
      <point x="-108" y="569"/>
      <point x="-52" y="507"/>
    </contour>
  </outline>
</glyph>
<glyph name="uMatra-tamil" format="2">
  <advance width="424"/>
  <unicode hex="0BC1"/>
  <note>
uni0BC1
</note>
  <anchor x="200" y="565" name="top"/>
  <outline>
    <contour>
      <point x="235" y="222" type="curve" smooth="yes"/>
      <point x="322" y="222"/>
      <point x="391" y="262"/>
      <point x="414" y="369" type="curve" smooth="yes"/>
      <point x="456" y="565" type="line"/>
      <point x="-172" y="565" type="line"/>
      <point x="-139" y="505" type="line"/>
      <point x="301" y="505" type="line"/>
      <point x="271" y="366" type="line" smooth="yes"/>
      <point x="261" y="318"/>
      <point x="243" y="295"/>
      <point x="206" y="295" type="curve" smooth="yes"/>
      <point x="166" y="295"/>
      <point x="154" y="334"/>
      <point x="168" y="399" type="curve" smooth="yes"/>
      <point x="196" y="529" type="line"/>
      <point x="133" y="529" type="line"/>
      <point x="106" y="402" type="line" smooth="yes"/>
      <point x="81" y="285"/>
      <point x="139" y="222"/>
    </contour>
  </outline>
</glyph>
<glyph name="eMatra-tamil" format="2">
  <advance width="662"/>
  <unicode hex="0BC6"/>
  <note>
uni0BC6
</note>
  <outline>
    <contour>
      <point x="223" y="-5" type="curve" smooth="yes"/>
      <point x="329" y="-5"/>
      <point x="408" y="73"/>
      <point x="408" y="187" type="curve" smooth="yes"/>
      <point x="408" y="270"/>
      <point x="356" y="323"/>
      <point x="287" y="323" type="curve" smooth="yes"/>
      <point x="199" y="323"/>
      <point x="142" y="247"/>
      <point x="103" y="149" type="curve"/>
      <point x="132" y="121" type="line"/>
      <point x="159" y="191"/>
      <point x="186" y="235"/>
      <point x="229" y="235" type="curve" smooth="yes"/>
      <point x="262" y="235"/>
      <point x="278" y="205"/>
      <point x="278" y="163" type="curve" smooth="yes"/>
      <point x="278" y="109"/>
      <point x="251" y="63"/>
      <point x="204" y="63" type="curve" smooth="yes"/>
      <point x="146" y="63"/>
      <point x="115" y="140"/>
      <point x="115" y="259" type="curve" smooth="yes"/>
      <point x="115" y="460"/>
      <point x="227" y="711"/>
      <point x="436" y="711" type="curve" smooth="yes"/>
      <point x="572" y="711"/>
      <point x="609" y="621"/>
      <point x="581" y="489" type="curve" smooth="yes"/>
      <point x="478" y="0" type="line"/>
      <point x="542" y="0" type="line"/>
      <point x="651" y="518" type="line" smooth="yes"/>
      <point x="686" y="684"/>
      <point x="638" y="831"/>
      <point x="457" y="831" type="curve" smooth="yes"/>
      <point x="199" y="831"/>
      <point x="53" y="501"/>
      <point x="53" y="257" type="curve" smooth="yes"/>
      <point x="53" y="101"/>
      <point x="117" y="-5"/>
    </contour>
  </outline>
</glyph>
<glyph name="eeMatra-tamil" format="2">
  <advance width="515"/>
  <unicode hex="0BC7"/>
  <note>
uni0BC7
</note>
  <outline>
    <contour>
      <point x="260" y="-5" type="curve" smooth="yes"/>
      <point x="371" y="-5"/>
      <point x="455" y="78"/>
      <point x="455" y="192" type="curve" smooth="yes"/>
      <point x="455" y="275"/>
      <point x="402" y="326"/>
      <point x="333" y="326" type="curve" smooth="yes"/>
      <point x="243" y="326"/>
      <point x="175" y="244"/>
      <point x="138" y="103" type="curve"/>
      <point x="174" y="73" type="line"/>
      <point x="206" y="182"/>
      <point x="238" y="238"/>
      <point x="278" y="238" type="curve" smooth="yes"/>
      <point x="311" y="238"/>
      <point x="325" y="210"/>
      <point x="325" y="168" type="curve" smooth="yes"/>
      <point x="325" y="104"/>
      <point x="288" y="63"/>
      <point x="241" y="63" type="curve" smooth="yes"/>
      <point x="163" y="63"/>
      <point x="130" y="191"/>
      <point x="130" y="340" type="curve" smooth="yes"/>
      <point x="130" y="509"/>
      <point x="249" y="763"/>
      <point x="392" y="763" type="curve" smooth="yes"/>
      <point x="427" y="763"/>
      <point x="443" y="737"/>
      <point x="443" y="700" type="curve" smooth="yes"/>
      <point x="443" y="647"/>
      <point x="414" y="588"/>
      <point x="370" y="588" type="curve" smooth="yes"/>
      <point x="318" y="588"/>
      <point x="317" y="690"/>
      <point x="336" y="767" type="curve"/>
      <point x="290" y="740" type="line"/>
      <point x="265" y="622"/>
      <point x="292" y="500"/>
      <point x="395" y="500" type="curve" smooth="yes"/>
      <point x="489" y="500"/>
      <point x="568" y="584"/>
      <point x="568" y="691" type="curve" smooth="yes"/>
      <point x="568" y="778"/>
      <point x="510" y="831"/>
      <point x="424" y="831" type="curve" smooth="yes"/>
      <point x="214" y="831"/>
      <point x="65" y="536"/>
      <point x="65" y="332" type="curve" smooth="yes"/>
      <point x="65" y="136"/>
      <point x="130" y="-5"/>
    </contour>
  </outline>
</glyph>
<glyph name="aiMatra-tamil" format="2">
  <advance width="1065"/>
  <unicode hex="0BC8"/>
  <note>
uni0BC8
</note>
  <outline>
    <contour>
      <point x="791" y="-9" type="line"/>
      <point x="939" y="70"/>
      <point x="1029" y="186"/>
      <point x="1029" y="335" type="curve" smooth="yes"/>
      <point x="1029" y="493"/>
      <point x="914" y="570"/>
      <point x="765" y="570" type="curve" smooth="yes"/>
      <point x="586" y="570"/>
      <point x="406" y="373"/>
      <point x="406" y="147" type="curve" smooth="yes"/>
      <point x="406" y="58"/>
      <point x="448" y="-4"/>
      <point x="535" y="-4" type="curve" smooth="yes"/>
      <point x="647" y="-4"/>
      <point x="729" y="84"/>
      <point x="729" y="238" type="curve" smooth="yes"/>
      <point x="729" y="429"/>
      <point x="611" y="570"/>
      <point x="388" y="570" type="curve" smooth="yes"/>
      <point x="193" y="570"/>
      <point x="25" y="395"/>
      <point x="25" y="189" type="curve" smooth="yes"/>
      <point x="25" y="83"/>
      <point x="84" y="-5"/>
      <point x="180" y="-5" type="curve" smooth="yes"/>
      <point x="286" y="-5"/>
      <point x="365" y="73"/>
      <point x="365" y="187" type="curve" smooth="yes"/>
      <point x="365" y="270"/>
      <point x="313" y="323"/>
      <point x="244" y="323" type="curve" smooth="yes"/>
      <point x="156" y="323"/>
      <point x="99" y="247"/>
      <point x="60" y="149" type="curve"/>
      <point x="89" y="121" type="line"/>
      <point x="116" y="191"/>
      <point x="143" y="235"/>
      <point x="186" y="235" type="curve" smooth="yes"/>
      <point x="219" y="235"/>
      <point x="235" y="205"/>
      <point x="235" y="163" type="curve" smooth="yes"/>
      <point x="235" y="109"/>
      <point x="208" y="63"/>
      <point x="161" y="63" type="curve" smooth="yes"/>
      <point x="113" y="63"/>
      <point x="88" y="126"/>
      <point x="88" y="195" type="curve" smooth="yes"/>
      <point x="88" y="357"/>
      <point x="209" y="507"/>
      <point x="377" y="507" type="curve" smooth="yes"/>
      <point x="542" y="507"/>
      <point x="604" y="392"/>
      <point x="602" y="235" type="curve" smooth="yes"/>
      <point x="601" y="137"/>
      <point x="569" y="64"/>
      <point x="514" y="64" type="curve" smooth="yes"/>
      <point x="484" y="64"/>
      <point x="469" y="97"/>
      <point x="469" y="152" type="curve" smooth="yes"/>
      <point x="469" y="346"/>
      <point x="619" y="507"/>
      <point x="756" y="507" type="curve" smooth="yes"/>
      <point x="851" y="507"/>
      <point x="903" y="451"/>
      <point x="903" y="342" type="curve" smooth="yes"/>
      <point x="903" y="215"/>
      <point x="857" y="121"/>
      <point x="764" y="30" type="curve"/>
    </contour>
  </outline>
</glyph>
<glyph name="halant-tamil" format="2">
  <unicode hex="0BCD"/>
  <note>
uni0BCD
</note>
  <anchor x="61" y="565" name="_top"/>
  <anchor x="95" y="726" name="top"/>
  <outline>
    <contour>
      <point x="89" y="630" type="curve" smooth="yes"/>
      <point x="131" y="630"/>
      <point x="166" y="663"/>
      <point x="166" y="702" type="curve" smooth="yes"/>
      <point x="166" y="740"/>
      <point x="131" y="773"/>
      <point x="89" y="773" type="curve" smooth="yes"/>
      <point x="47" y="773"/>
      <point x="13" y="740"/>
      <point x="13" y="702" type="curve" smooth="yes"/>
      <point x="13" y="663"/>
      <point x="47" y="630"/>
    </contour>
  </outline>
</glyph>
<glyph name="om-tamil" format="2">
  <advance width="841"/>
  <unicode hex="0BD0"/>
  <note>
uni0BD0
</note>
  <outline>
    <contour>
      <point x="167" y="-369" type="curve" smooth="yes"/>
      <point x="399" y="-369"/>
      <point x="447" y="-146"/>
      <point x="574" y="-146" type="curve" smooth="yes"/>
      <point x="610" y="-146" type="line"/>
      <point x="623" y="-86" type="line"/>
      <point x="567" y="-86" type="line" smooth="yes"/>
      <point x="415" y="-86"/>
      <point x="389" y="58"/>
      <point x="485" y="204" type="curve"/>
      <point x="491" y="201" type="line"/>
      <point x="444" y="82"/>
      <point x="470" y="-4"/>
      <point x="579" y="-4" type="curve" smooth="yes"/>
      <point x="704" y="-4"/>
      <point x="789" y="110"/>
      <point x="789" y="259" type="curve" smooth="yes"/>
      <point x="789" y="457"/>
      <point x="636" y="570"/>
      <point x="436" y="570" type="curve" smooth="yes"/>
      <point x="224" y="570"/>
      <point x="26" y="422"/>
      <point x="26" y="199" type="curve" smooth="yes"/>
      <point x="26" y="93"/>
      <point x="83" y="5"/>
      <point x="179" y="5" type="curve" smooth="yes"/>
      <point x="285" y="5"/>
      <point x="364" y="83"/>
      <point x="364" y="197" type="curve" smooth="yes"/>
      <point x="364" y="280"/>
      <point x="310" y="333"/>
      <point x="241" y="333" type="curve" smooth="yes"/>
      <point x="153" y="333"/>
      <point x="100" y="257"/>
      <point x="61" y="159" type="curve"/>
      <point x="90" y="131" type="line"/>
      <point x="117" y="201"/>
      <point x="142" y="245"/>
      <point x="185" y="245" type="curve" smooth="yes"/>
      <point x="218" y="245"/>
      <point x="234" y="215"/>
      <point x="234" y="173" type="curve" smooth="yes"/>
      <point x="234" y="119"/>
      <point x="207" y="73"/>
      <point x="160" y="73" type="curve" smooth="yes"/>
      <point x="112" y="73"/>
      <point x="89" y="136"/>
      <point x="89" y="205" type="curve" smooth="yes"/>
      <point x="89" y="387"/>
      <point x="258" y="508"/>
      <point x="420" y="508" type="curve" smooth="yes"/>
      <point x="563" y="508"/>
      <point x="661" y="421"/>
      <point x="661" y="268" type="curve" smooth="yes"/>
      <point x="661" y="167"/>
      <point x="627" y="68"/>
      <point x="556" y="68" type="curve" smooth="yes"/>
      <point x="494" y="68"/>
      <point x="517" y="176"/>
      <point x="562" y="262" type="curve"/>
      <point x="494" y="294" type="line"/>
      <point x="372" y="140"/>
      <point x="320" y="-46"/>
      <point x="461" y="-110" type="curve"/>
      <point x="460" y="-115" type="line"/>
      <point x="350" y="-140"/>
      <point x="331" y="-304"/>
      <point x="158" y="-304" type="curve" smooth="yes"/>
      <point x="72" y="-304"/>
      <point x="19" y="-256"/>
      <point x="45" y="-171" type="curve"/>
      <point x="-8" y="-164" type="line"/>
      <point x="-48" y="-286"/>
      <point x="29" y="-369"/>
    </contour>
    <contour>
      <point x="78" y="-240" type="line"/>
      <point x="124" y="-240" type="line"/>
      <point x="157" y="-85" type="line"/>
      <point x="110" y="-85" type="line"/>
    </contour>
    <contour>
      <point x="93" y="-240" type="line"/>
      <point x="253" y="-240" type="line"/>
      <point x="261" y="-200" type="line"/>
      <point x="102" y="-200" type="line"/>
    </contour>
    <contour>
      <point x="153" y="-240" type="line"/>
      <point x="198" y="-240" type="line"/>
      <point x="220" y="-138" type="line" smooth="yes"/>
      <point x="223" y="-126"/>
      <point x="227" y="-121"/>
      <point x="236" y="-121" type="curve" smooth="yes"/>
      <point x="246" y="-121"/>
      <point x="249" y="-130"/>
      <point x="246" y="-144" type="curve" smooth="yes"/>
      <point x="225" y="-240" type="line"/>
      <point x="273" y="-240" type="line"/>
      <point x="291" y="-155" type="line" smooth="yes"/>
      <point x="301" y="-107"/>
      <point x="274" y="-83"/>
      <point x="240" y="-83" type="curve" smooth="yes"/>
      <point x="207" y="-83"/>
      <point x="183" y="-101"/>
      <point x="174" y="-143" type="curve" smooth="yes"/>
    </contour>
    <contour>
      <point x="219" y="-70" type="curve" smooth="yes"/>
      <point x="236" y="-70"/>
      <point x="250" y="-55"/>
      <point x="250" y="-40" type="curve" smooth="yes"/>
      <point x="250" y="-24"/>
      <point x="236" y="-11"/>
      <point x="219" y="-11" type="curve" smooth="yes"/>
      <point x="201" y="-11"/>
      <point x="188" y="-24"/>
      <point x="188" y="-40" type="curve" smooth="yes"/>
      <point x="188" y="-55"/>
      <point x="201" y="-70"/>
    </contour>
  </outline>
</glyph>
<glyph name="zero-tamil" format="2">
  <advance width="505"/>
  <unicode hex="0BE6"/>
  <note>
uni0BE6
</note>
  <outline>
    <contour>
      <point x="195" y="-5" type="curve" smooth="yes"/>
      <point x="366" y="-5"/>
      <point x="476" y="169"/>
      <point x="476" y="361" type="curve" smooth="yes"/>
      <point x="476" y="496"/>
      <point x="410" y="570"/>
      <point x="300" y="570" type="curve" smooth="yes"/>
      <point x="129" y="570"/>
      <point x="31" y="362"/>
      <point x="31" y="198" type="curve" smooth="yes"/>
      <point x="31" y="79"/>
      <point x="91" y="-5"/>
    </contour>
    <contour>
      <point x="180" y="69" type="curve" smooth="yes"/>
      <point x="124" y="69"/>
      <point x="96" y="126"/>
      <point x="96" y="204" type="curve" smooth="yes"/>
      <point x="96" y="334"/>
      <point x="163" y="497"/>
      <point x="266" y="497" type="curve" smooth="yes"/>
      <point x="326" y="497"/>
      <point x="351" y="450"/>
      <point x="351" y="373" type="curve" smooth="yes"/>
      <point x="351" y="216"/>
      <point x="286" y="69"/>
    </contour>
  </outline>
</glyph>
<glyph name="one-tamil" format="2">
  <advance width="704"/>
  <unicode hex="0BE7"/>
  <note>
uni0BE7
</note>
  <outline>
    <contour>
      <point x="187" y="-4" type="curve" smooth="yes"/>
      <point x="305" y="-4"/>
      <point x="377" y="54"/>
      <point x="404" y="182" type="curve" smooth="yes"/>
      <point x="422" y="268" type="line"/>
      <point x="445" y="268" type="line" smooth="yes"/>
      <point x="481" y="268"/>
      <point x="504" y="243"/>
      <point x="504" y="188" type="curve" smooth="yes"/>
      <point x="504" y="126"/>
      <point x="479" y="63"/>
      <point x="418" y="63" type="curve" smooth="yes"/>
      <point x="388" y="63"/>
      <point x="369" y="82"/>
      <point x="353" y="113" type="curve"/>
      <point x="309" y="72" type="line"/>
      <point x="336" y="26"/>
      <point x="374" y="-5"/>
      <point x="443" y="-5" type="curve" smooth="yes"/>
      <point x="555" y="-5"/>
      <point x="641" y="66"/>
      <point x="641" y="184" type="curve" smooth="yes"/>
      <point x="641" y="282"/>
      <point x="570" y="329"/>
      <point x="467" y="329" type="curve" smooth="yes"/>
      <point x="435" y="329" type="line"/>
      <point x="472" y="504" type="line"/>
      <point x="588" y="504" type="line"/>
      <point x="601" y="565" type="line"/>
      <point x="180" y="565" type="line"/>
      <point x="122" y="294" type="line"/>
      <point x="186" y="294" type="line"/>
      <point x="230" y="504" type="line"/>
      <point x="329" y="504" type="line"/>
      <point x="292" y="329" type="line"/>
      <point x="185" y="329" type="line" smooth="yes"/>
      <point x="97" y="329"/>
      <point x="14" y="261"/>
      <point x="14" y="153" type="curve" smooth="yes"/>
      <point x="14" y="66"/>
      <point x="74" y="-4"/>
    </contour>
    <contour>
      <point x="161" y="64" type="curve" smooth="yes"/>
      <point x="118" y="64"/>
      <point x="80" y="95"/>
      <point x="80" y="157" type="curve" smooth="yes"/>
      <point x="80" y="224"/>
      <point x="122" y="268"/>
      <point x="176" y="268" type="curve" smooth="yes"/>
      <point x="279" y="268" type="line"/>
      <point x="259" y="170" type="line" smooth="yes"/>
      <point x="243" y="92"/>
      <point x="211" y="64"/>
    </contour>
  </outline>
</glyph>
<glyph name="five-tamil" format="2">
  <advance width="933"/>
  <unicode hex="0BEB"/>
  <note>
uni0BEB
</note>
  <outline>
    <contour>
      <point x="356" y="-286" type="curve" smooth="yes"/>
      <point x="600" y="-286"/>
      <point x="808" y="-63"/>
      <point x="808" y="198" type="curve" smooth="yes"/>
      <point x="808" y="291"/>
      <point x="765" y="350"/>
      <point x="692" y="350" type="curve" smooth="yes"/>
      <point x="616" y="350"/>
      <point x="562" y="285"/>
      <point x="542" y="190" type="curve" smooth="yes"/>
      <point x="536" y="161" type="line"/>
      <point x="553" y="161" type="line"/>
      <point x="559" y="187" type="line" smooth="yes"/>
      <point x="571" y="237"/>
      <point x="593" y="265"/>
      <point x="627" y="265" type="curve" smooth="yes"/>
      <point x="658" y="265"/>
      <point x="676" y="240"/>
      <point x="676" y="183" type="curve" smooth="yes"/>
      <point x="676" y="-19"/>
      <point x="547" y="-222"/>
      <point x="354" y="-222" type="curve" smooth="yes"/>
      <point x="198" y="-222"/>
      <point x="106" y="-91"/>
      <point x="106" y="154" type="curve" smooth="yes"/>
      <point x="106" y="433"/>
      <point x="242" y="722"/>
      <point x="531" y="722" type="curve" smooth="yes"/>
      <point x="732" y="722"/>
      <point x="859" y="608"/>
      <point x="845" y="398" type="curve"/>
      <point x="910" y="398" type="line"/>
      <point x="936" y="664"/>
      <point x="798" y="837"/>
      <point x="545" y="837" type="curve" smooth="yes"/>
      <point x="206" y="837"/>
      <point x="38" y="481"/>
      <point x="38" y="148" type="curve" smooth="yes"/>
      <point x="38" y="-128"/>
      <point x="156" y="-286"/>
    </contour>
    <contour>
      <point x="204" y="0" type="line"/>
      <point x="269" y="0" type="line"/>
      <point x="376" y="505" type="line"/>
      <point x="485" y="505" type="line"/>
      <point x="378" y="0" type="line"/>
      <point x="519" y="0" type="line"/>
      <point x="626" y="505" type="line"/>
      <point x="738" y="505" type="line"/>
      <point x="750" y="565" type="line"/>
      <point x="324" y="565" type="line"/>
    </contour>
  </outline>
</glyph>
<glyph name="six-tamil" format="2">
  <advance width="956"/>
  <unicode hex="0BEC"/>
  <note>
uni0BEC
</note>
  <outline>
    <contour>
      <point x="187" y="-4" type="curve" smooth="yes"/>
      <point x="305" y="-4"/>
      <point x="377" y="54"/>
      <point x="404" y="182" type="curve" smooth="yes"/>
      <point x="422" y="268" type="line"/>
      <point x="464" y="268" type="line" smooth="yes"/>
      <point x="490" y="268"/>
      <point x="504" y="251"/>
      <point x="497" y="219" type="curve" smooth="yes"/>
      <point x="451" y="0" type="line"/>
      <point x="585" y="0" type="line"/>
      <point x="630" y="214" type="line" smooth="yes"/>
      <point x="637" y="247"/>
      <point x="652" y="268"/>
      <point x="686" y="268" type="curve" smooth="yes"/>
      <point x="917" y="268" type="line"/>
      <point x="930" y="329" type="line"/>
      <point x="667" y="329" type="line" smooth="yes"/>
      <point x="627" y="329"/>
      <point x="592" y="307"/>
      <point x="572" y="266" type="curve"/>
      <point x="563" y="308"/>
      <point x="534" y="329"/>
      <point x="488" y="329" type="curve" smooth="yes"/>
      <point x="435" y="329" type="line"/>
      <point x="472" y="504" type="line"/>
      <point x="588" y="504" type="line"/>
      <point x="601" y="565" type="line"/>
      <point x="180" y="565" type="line"/>
      <point x="122" y="294" type="line"/>
      <point x="186" y="294" type="line"/>
      <point x="230" y="504" type="line"/>
      <point x="329" y="504" type="line"/>
      <point x="292" y="329" type="line"/>
      <point x="185" y="329" type="line" smooth="yes"/>
      <point x="97" y="329"/>
      <point x="14" y="261"/>
      <point x="14" y="153" type="curve" smooth="yes"/>
      <point x="14" y="66"/>
      <point x="74" y="-4"/>
    </contour>
    <contour>
      <point x="161" y="64" type="curve" smooth="yes"/>
      <point x="118" y="64"/>
      <point x="80" y="95"/>
      <point x="80" y="157" type="curve" smooth="yes"/>
      <point x="80" y="224"/>
      <point x="122" y="268"/>
      <point x="176" y="268" type="curve" smooth="yes"/>
      <point x="279" y="268" type="line"/>
      <point x="259" y="170" type="line" smooth="yes"/>
      <point x="243" y="92"/>
      <point x="211" y="64"/>
    </contour>
    <contour>
      <point x="670" y="0" type="line"/>
      <point x="806" y="0" type="line"/>
      <point x="868" y="292" type="line"/>
      <point x="732" y="292" type="line"/>
    </contour>
  </outline>
</glyph>
<glyph name="eight-tamil" format="2">
  <advance width="1070"/>
  <unicode hex="0BEE"/>
  <note>
uni0BEE
</note>
  <outline>
    <contour>
      <point x="764" y="-203" type="line"/>
      <point x="905" y="-203" type="line"/>
      <point x="1068" y="565" type="line"/>
      <point x="928" y="565" type="line"/>
      <point x="842" y="164" type="line"/>
      <point x="72" y="164" type="line" smooth="yes"/>
      <point x="20" y="164"/>
      <point x="-17" y="123"/>
      <point x="-17" y="68" type="curve" smooth="yes"/>
      <point x="-17" y="-37"/>
      <point x="95" y="-140"/>
      <point x="278" y="-140" type="curve" smooth="yes"/>
      <point x="553" y="-140"/>
      <point x="773" y="39"/>
      <point x="773" y="313" type="curve" smooth="yes"/>
      <point x="773" y="483"/>
      <point x="676" y="570"/>
      <point x="538" y="570" type="curve" smooth="yes"/>
      <point x="370" y="570"/>
      <point x="287" y="410"/>
      <point x="287" y="273" type="curve" smooth="yes"/>
      <point x="287" y="211"/>
      <point x="295" y="169"/>
      <point x="309" y="130" type="curve"/>
      <point x="373" y="131" type="line"/>
      <point x="357" y="173"/>
      <point x="350" y="215"/>
      <point x="350" y="272" type="curve" smooth="yes"/>
      <point x="350" y="370"/>
      <point x="400" y="507"/>
      <point x="514" y="507" type="curve" smooth="yes"/>
      <point x="598" y="507"/>
      <point x="642" y="449"/>
      <point x="642" y="336" type="curve" smooth="yes"/>
      <point x="642" y="105"/>
      <point x="496" y="-78"/>
      <point x="272" y="-78" type="curve" smooth="yes"/>
      <point x="131" y="-78"/>
      <point x="50" y="4"/>
      <point x="50" y="68" type="curve" smooth="yes"/>
      <point x="50" y="93"/>
      <point x="61" y="103"/>
      <point x="82" y="103" type="curve" smooth="yes"/>
      <point x="829" y="103" type="line"/>
    </contour>
  </outline>
</glyph>
<glyph name="nine-tamil" format="2">
  <advance width="998"/>
  <unicode hex="0BEF"/>
  <note>
uni0BEF
</note>
  <outline>
    <contour>
      <point x="771" y="-15" type="line"/>
      <point x="883" y="40"/>
      <point x="951" y="125"/>
      <point x="951" y="242" type="curve" smooth="yes"/>
      <point x="951" y="359"/>
      <point x="862" y="432"/>
      <point x="737" y="432" type="curve" smooth="yes"/>
      <point x="568" y="432"/>
      <point x="454" y="294"/>
      <point x="454" y="130" type="curve" smooth="yes"/>
      <point x="454" y="52"/>
      <point x="492" y="-5"/>
      <point x="572" y="-5" type="curve" smooth="yes"/>
      <point x="666" y="-5"/>
      <point x="740" y="71"/>
      <point x="740" y="168" type="curve" smooth="yes"/>
      <point x="740" y="272"/>
      <point x="673" y="329"/>
      <point x="564" y="329" type="curve" smooth="yes"/>
      <point x="435" y="329" type="line"/>
      <point x="472" y="504" type="line"/>
      <point x="588" y="504" type="line"/>
      <point x="601" y="565" type="line"/>
      <point x="180" y="565" type="line"/>
      <point x="122" y="294" type="line"/>
      <point x="186" y="294" type="line"/>
      <point x="230" y="504" type="line"/>
      <point x="329" y="504" type="line"/>
      <point x="292" y="329" type="line"/>
      <point x="185" y="329" type="line" smooth="yes"/>
      <point x="97" y="329"/>
      <point x="14" y="261"/>
      <point x="14" y="153" type="curve" smooth="yes"/>
      <point x="14" y="66"/>
      <point x="74" y="-4"/>
      <point x="187" y="-4" type="curve" smooth="yes"/>
      <point x="305" y="-4"/>
      <point x="377" y="54"/>
      <point x="404" y="182" type="curve" smooth="yes"/>
      <point x="422" y="268" type="line"/>
      <point x="539" y="268" type="line" smooth="yes"/>
      <point x="596" y="268"/>
      <point x="616" y="224"/>
      <point x="616" y="174" type="curve" smooth="yes"/>
      <point x="616" y="124"/>
      <point x="595" y="63"/>
      <point x="549" y="63" type="curve" smooth="yes"/>
      <point x="525" y="63"/>
      <point x="511" y="89"/>
      <point x="511" y="136" type="curve" smooth="yes"/>
      <point x="511" y="243"/>
      <point x="586" y="367"/>
      <point x="701" y="367" type="curve" smooth="yes"/>
      <point x="785" y="367"/>
      <point x="828" y="310"/>
      <point x="828" y="229" type="curve" smooth="yes"/>
      <point x="828" y="156"/>
      <point x="797" y="80"/>
      <point x="746" y="25" type="curve"/>
    </contour>
    <contour>
      <point x="161" y="64" type="curve" smooth="yes"/>
      <point x="118" y="64"/>
      <point x="80" y="95"/>
      <point x="80" y="157" type="curve" smooth="yes"/>
      <point x="80" y="224"/>
      <point x="122" y="268"/>
      <point x="176" y="268" type="curve" smooth="yes"/>
      <point x="279" y="268" type="line"/>
      <point x="259" y="170" type="line" smooth="yes"/>
      <point x="243" y="92"/>
      <point x="211" y="64"/>
    </contour>
  </outline>
</glyph>
<glyph name="onehundred-tamil" format="2">
  <advance width="709"/>
  <unicode hex="0BF1"/>
  <note>
uni0BF1
</note>
  <outline>
    <contour>
      <point x="166" y="0" type="line"/>
      <point x="228" y="0" type="line"/>
      <point x="336" y="505" type="line"/>
      <point x="472" y="505" type="line"/>
      <point x="365" y="0" type="line"/>
      <point x="506" y="0" type="line"/>
      <point x="613" y="505" type="line"/>
      <point x="711" y="505" type="line"/>
      <point x="724" y="565" type="line"/>
      <point x="286" y="565" type="line"/>
    </contour>
    <contour>
      <point x="-6" y="0" type="line"/>
      <point x="59" y="0" type="line"/>
      <point x="153" y="443" type="line" smooth="yes"/>
      <point x="163" y="490"/>
      <point x="184" y="512"/>
      <point x="217" y="512" type="curve" smooth="yes"/>
      <point x="255" y="512"/>
      <point x="268" y="480"/>
      <point x="257" y="428" type="curve"/>
      <point x="283" y="428" type="line"/>
      <point x="302" y="519"/>
      <point x="260" y="571"/>
      <point x="201" y="571" type="curve" smooth="yes"/>
      <point x="138" y="571"/>
      <point x="106" y="522"/>
      <point x="90" y="449" type="curve" smooth="yes"/>
    </contour>
  </outline>
</glyph>
<glyph name="onethousand-tamil" format="2">
  <advance width="959"/>
  <unicode hex="0BF2"/>
  <note>
uni0BF2
</note>
  <outline>
    <contour>
      <point x="194" y="-4" type="curve" smooth="yes"/>
      <point x="312" y="-4"/>
      <point x="384" y="54"/>
      <point x="411" y="182" type="curve" smooth="yes"/>
      <point x="429" y="268" type="line"/>
      <point x="842" y="268" type="line"/>
      <point x="855" y="329" type="line"/>
      <point x="442" y="329" type="line"/>
      <point x="479" y="504" type="line"/>
      <point x="595" y="504" type="line"/>
      <point x="608" y="565" type="line"/>
      <point x="187" y="565" type="line"/>
      <point x="129" y="294" type="line"/>
      <point x="193" y="294" type="line"/>
      <point x="237" y="504" type="line"/>
      <point x="336" y="504" type="line"/>
      <point x="299" y="329" type="line"/>
      <point x="192" y="329" type="line" smooth="yes"/>
      <point x="104" y="329"/>
      <point x="21" y="261"/>
      <point x="21" y="153" type="curve" smooth="yes"/>
      <point x="21" y="66"/>
      <point x="81" y="-4"/>
    </contour>
    <contour>
      <point x="168" y="64" type="curve" smooth="yes"/>
      <point x="125" y="64"/>
      <point x="87" y="95"/>
      <point x="87" y="157" type="curve" smooth="yes"/>
      <point x="87" y="224"/>
      <point x="129" y="268"/>
      <point x="183" y="268" type="curve" smooth="yes"/>
      <point x="286" y="268" type="line"/>
      <point x="266" y="170" type="line" smooth="yes"/>
      <point x="250" y="92"/>
      <point x="218" y="64"/>
    </contour>
    <contour>
      <point x="302" y="-299" type="curve"/>
      <point x="314" y="-213"/>
      <point x="346" y="-162"/>
      <point x="438" y="-162" type="curve" smooth="yes"/>
      <point x="554" y="-162" type="line" smooth="yes"/>
      <point x="738" y="-162"/>
      <point x="865" y="-102"/>
      <point x="865" y="62" type="curve" smooth="yes"/>
      <point x="865" y="148"/>
      <point x="808" y="199"/>
      <point x="695" y="199" type="curve" smooth="yes"/>
      <point x="542" y="199" type="line" smooth="yes"/>
      <point x="464" y="199"/>
      <point x="420" y="142"/>
      <point x="420" y="67" type="curve" smooth="yes"/>
      <point x="420" y="11"/>
      <point x="461" y="-39"/>
      <point x="544" y="-39" type="curve" smooth="yes"/>
      <point x="633" y="-39"/>
      <point x="676" y="5"/>
      <point x="695" y="93" type="curve" smooth="yes"/>
      <point x="739" y="294" type="line"/>
      <point x="621" y="294" type="line"/>
      <point x="576" y="85" type="line" smooth="yes"/>
      <point x="565" y="34"/>
      <point x="545" y="21"/>
      <point x="519" y="21" type="curve" smooth="yes"/>
      <point x="492" y="21"/>
      <point x="480" y="42"/>
      <point x="480" y="76" type="curve" smooth="yes"/>
      <point x="480" y="112"/>
      <point x="498" y="141"/>
      <point x="532" y="141" type="curve" smooth="yes"/>
      <point x="682" y="141" type="line" smooth="yes"/>
      <point x="732" y="141"/>
      <point x="748" y="107"/>
      <point x="748" y="65" type="curve" smooth="yes"/>
      <point x="748" y="-47"/>
      <point x="685" y="-106"/>
      <point x="564" y="-106" type="curve" smooth="yes"/>
      <point x="402" y="-106" type="line" smooth="yes"/>
      <point x="300" y="-106"/>
      <point x="209" y="-126"/>
      <point x="209" y="-223" type="curve" smooth="yes"/>
      <point x="209" y="-268"/>
      <point x="244" y="-299"/>
    </contour>
  </outline>
</glyph>
<glyph name="day-tamil" format="2">
  <advance width="702"/>
  <unicode hex="0BF3"/>
  <note>
uni0BF3
</note>
  <outline>
    <contour>
      <point x="161" y="-5" type="curve" smooth="yes"/>
      <point x="254" y="-5"/>
      <point x="330" y="78"/>
      <point x="330" y="192" type="curve" smooth="yes"/>
      <point x="330" y="279"/>
      <point x="287" y="323"/>
      <point x="222" y="323" type="curve" smooth="yes"/>
      <point x="142" y="323"/>
      <point x="94" y="246"/>
      <point x="55" y="156" type="curve"/>
      <point x="80" y="128" type="line"/>
      <point x="107" y="198"/>
      <point x="132" y="235"/>
      <point x="163" y="235" type="curve" smooth="yes"/>
      <point x="194" y="235"/>
      <point x="200" y="205"/>
      <point x="200" y="173" type="curve" smooth="yes"/>
      <point x="200" y="119"/>
      <point x="180" y="63"/>
      <point x="140" y="63" type="curve" smooth="yes"/>
      <point x="92" y="63"/>
      <point x="89" y="126"/>
      <point x="89" y="195" type="curve" smooth="yes"/>
      <point x="89" y="357"/>
      <point x="190" y="504"/>
      <point x="320" y="504" type="curve" smooth="yes"/>
      <point x="415" y="504"/>
      <point x="450" y="433"/>
      <point x="448" y="327" type="curve" smooth="yes"/>
      <point x="446" y="213"/>
      <point x="408" y="128"/>
      <point x="351" y="44" type="curve"/>
      <point x="365" y="0" type="line"/>
      <point x="629" y="0" type="line"/>
      <point x="642" y="61" type="line"/>
      <point x="446" y="61" type="line"/>
      <point x="536" y="142"/>
      <point x="588" y="233"/>
      <point x="588" y="344" type="curve" smooth="yes"/>
      <point x="588" y="486"/>
      <point x="494" y="570"/>
      <point x="347" y="570" type="curve" smooth="yes"/>
      <point x="162" y="570"/>
      <point x="26" y="386"/>
      <point x="26" y="189" type="curve" smooth="yes"/>
      <point x="26" y="83"/>
      <point x="65" y="-5"/>
    </contour>
  </outline>
</glyph>
<glyph name="month-tamil" format="2">
  <advance width="921"/>
  <unicode hex="0BF4"/>
  <note>
uni0BF4
</note>
  <anchor x="299" y="0" name="bottom"/>
  <anchor x="727" y="565" name="imatra"/>
  <anchor x="300" y="0" name="nukta"/>
  <anchor x="427" y="565" name="top"/>
  <anchor x="437" y="565" name="vedic"/>
  <outline>
    <contour>
      <point x="628" y="477" type="curve"/>
      <point x="656" y="498" type="line"/>
      <point x="634" y="536"/>
      <point x="619" y="571"/>
      <point x="619" y="624" type="curve" smooth="yes"/>
      <point x="619" y="715"/>
      <point x="659" y="804"/>
      <point x="751" y="804" type="curve" smooth="yes"/>
      <point x="795" y="804"/>
      <point x="829" y="776"/>
      <point x="829" y="722" type="curve" smooth="yes"/>
      <point x="829" y="674"/>
      <point x="807" y="638"/>
      <point x="771" y="638" type="curve" smooth="yes"/>
      <point x="747" y="638"/>
      <point x="737" y="665"/>
      <point x="737" y="708" type="curve" smooth="yes"/>
      <point x="737" y="800"/>
      <point x="790" y="907"/>
      <point x="888" y="907" type="curve" smooth="yes"/>
      <point x="956" y="907"/>
      <point x="985" y="870"/>
      <point x="969" y="793" type="curve" smooth="yes"/>
      <point x="924" y="582" type="line"/>
      <point x="1016" y="582" type="line"/>
      <point x="1064" y="805" type="line" smooth="yes"/>
      <point x="1076" y="860"/>
      <point x="1107" y="911"/>
      <point x="1162" y="900" type="curve"/>
      <point x="1177" y="958" type="line"/>
      <point x="1105" y="971"/>
      <point x="1055" y="928"/>
      <point x="1028" y="862" type="curve"/>
      <point x="1024" y="862" type="line"/>
      <point x="1017" y="925"/>
      <point x="972" y="963"/>
      <point x="899" y="963" type="curve" smooth="yes"/>
      <point x="771" y="963"/>
      <point x="681" y="827"/>
      <point x="681" y="697" type="curve" smooth="yes"/>
      <point x="681" y="628"/>
      <point x="711" y="576"/>
      <point x="773" y="576" type="curve" smooth="yes"/>
      <point x="854" y="576"/>
      <point x="907" y="642"/>
      <point x="907" y="728" type="curve" smooth="yes"/>
      <point x="907" y="811"/>
      <point x="851" y="862"/>
      <point x="764" y="862" type="curve" smooth="yes"/>
      <point x="647" y="862"/>
      <point x="567" y="755"/>
      <point x="567" y="635" type="curve" smooth="yes"/>
      <point x="567" y="572"/>
      <point x="589" y="529"/>
    </contour>
    <component base="ma-tamil"/>
  </outline>
</glyph>
<glyph name="debit-tamil" format="2">
  <advance width="988"/>
  <unicode hex="0BF6"/>
  <note>
uni0BF6
</note>
  <outline>
    <contour>
      <point x="196" y="-321" type="curve" smooth="yes"/>
      <point x="381" y="-321"/>
      <point x="547" y="-231"/>
      <point x="589" y="-34" type="curve" smooth="yes"/>
      <point x="716" y="565" type="line"/>
      <point x="577" y="565" type="line"/>
      <point x="451" y="-25" type="line" smooth="yes"/>
      <point x="416" y="-188"/>
      <point x="328" y="-261"/>
      <point x="181" y="-261" type="curve" smooth="yes"/>
      <point x="74" y="-261"/>
      <point x="22" y="-201"/>
      <point x="22" y="-149" type="curve" smooth="yes"/>
      <point x="22" y="-127"/>
      <point x="33" y="-118"/>
      <point x="52" y="-118" type="curve" smooth="yes"/>
      <point x="841" y="-118" type="line"/>
      <point x="986" y="565" type="line"/>
      <point x="845" y="565" type="line"/>
      <point x="713" y="-57" type="line"/>
      <point x="40" y="-57" type="line" smooth="yes"/>
      <point x="-16" y="-57"/>
      <point x="-46" y="-92"/>
      <point x="-46" y="-146" type="curve" smooth="yes"/>
      <point x="-46" y="-233"/>
      <point x="41" y="-321"/>
    </contour>
    <contour>
      <point x="7" y="14" type="line"/>
      <point x="531" y="14" type="line"/>
      <point x="544" y="76" type="line"/>
      <point x="161" y="76" type="line"/>
      <point x="265" y="565" type="line"/>
      <point x="124" y="565" type="line"/>
    </contour>
  </outline>
</glyph>
<glyph name="credit-tamil" format="2">
  <advance width="1260"/>
  <unicode hex="0BF7"/>
  <note>
uni0BF7
</note>
  <anchor x="336" y="0" name="bottom"/>
  <anchor x="336" y="0" name="nukta"/>
  <anchor x="459" y="565" name="top"/>
  <anchor x="459" y="565" name="vedic"/>
  <outline>
    <contour>
      <point x="780" y="-5" type="curve" smooth="yes"/>
      <point x="872" y="-5"/>
      <point x="940" y="79"/>
      <point x="940" y="176" type="curve" smooth="yes"/>
      <point x="940" y="283"/>
      <point x="877" y="329"/>
      <point x="782" y="329" type="curve" smooth="yes"/>
      <point x="699" y="329"/>
      <point x="640" y="288"/>
      <point x="581" y="235" type="curve"/>
      <point x="566" y="164" type="line"/>
      <point x="636" y="236"/>
      <point x="698" y="269"/>
      <point x="753" y="269" type="curve" smooth="yes"/>
      <point x="810" y="269"/>
      <point x="826" y="226"/>
      <point x="826" y="168" type="curve" smooth="yes"/>
      <point x="826" y="118"/>
      <point x="804" y="63"/>
      <point x="762" y="63" type="curve" smooth="yes"/>
      <point x="738" y="63"/>
      <point x="727" y="89"/>
      <point x="727" y="136" type="curve" smooth="yes"/>
      <point x="727" y="233"/>
      <point x="806" y="367"/>
      <point x="921" y="367" type="curve" smooth="yes"/>
      <point x="1005" y="367"/>
      <point x="1049" y="317"/>
      <point x="1049" y="236" type="curve" smooth="yes"/>
      <point x="1049" y="163"/>
      <point x="1013" y="103"/>
      <point x="960" y="44" type="curve"/>
      <point x="974" y="0" type="line"/>
      <point x="1186" y="0" type="line"/>
      <point x="1199" y="61" type="line"/>
      <point x="1008" y="61" type="line"/>
      <point x="1019" y="35" type="line"/>
      <point x="1101" y="89"/>
      <point x="1161" y="165"/>
      <point x="1161" y="255" type="curve" smooth="yes"/>
      <point x="1161" y="372"/>
      <point x="1072" y="432"/>
      <point x="957" y="432" type="curve" smooth="yes"/>
      <point x="788" y="432"/>
      <point x="670" y="268"/>
      <point x="670" y="130" type="curve" smooth="yes"/>
      <point x="670" y="52"/>
      <point x="700" y="-5"/>
    </contour>
    <component base="e-tamil"/>
  </outline>
</glyph>
<glyph name="asabove-tamil" format="2">
  <advance width="1540"/>
  <unicode hex="0BF8"/>
  <note>
uni0BF8
</note>
  <outline>
    <contour>
      <point x="538" y="-4" type="curve" smooth="yes"/>
      <point x="683" y="-4"/>
      <point x="756" y="156"/>
      <point x="761" y="318" type="curve" smooth="yes"/>
      <point x="767" y="508"/>
      <point x="646" y="659"/>
      <point x="437" y="659" type="curve" smooth="yes"/>
      <point x="187" y="659"/>
      <point x="27" y="408"/>
      <point x="27" y="189" type="curve" smooth="yes"/>
      <point x="27" y="75"/>
      <point x="86" y="-5"/>
      <point x="182" y="-5" type="curve" smooth="yes"/>
      <point x="288" y="-5"/>
      <point x="367" y="73"/>
      <point x="367" y="187" type="curve" smooth="yes"/>
      <point x="367" y="270"/>
      <point x="313" y="323"/>
      <point x="244" y="323" type="curve" smooth="yes"/>
      <point x="156" y="323"/>
      <point x="101" y="247"/>
      <point x="62" y="149" type="curve"/>
      <point x="91" y="121" type="line"/>
      <point x="118" y="191"/>
      <point x="145" y="235"/>
      <point x="188" y="235" type="curve" smooth="yes"/>
      <point x="221" y="235"/>
      <point x="237" y="205"/>
      <point x="237" y="163" type="curve" smooth="yes"/>
      <point x="237" y="109"/>
      <point x="210" y="63"/>
      <point x="163" y="63" type="curve" smooth="yes"/>
      <point x="115" y="63"/>
      <point x="90" y="118"/>
      <point x="90" y="195" type="curve" smooth="yes"/>
      <point x="90" y="367"/>
      <point x="215" y="595"/>
      <point x="410" y="595" type="curve" smooth="yes"/>
      <point x="566" y="595"/>
      <point x="638" y="489"/>
      <point x="638" y="339" type="curve" smooth="yes"/>
      <point x="638" y="208"/>
      <point x="603" y="68"/>
      <point x="522" y="68" type="curve" smooth="yes"/>
      <point x="491" y="68"/>
      <point x="477" y="105"/>
      <point x="477" y="154" type="curve" smooth="yes"/>
      <point x="477" y="322"/>
      <point x="591" y="507"/>
      <point x="748" y="507" type="curve" smooth="yes"/>
      <point x="837" y="507"/>
      <point x="888" y="443"/>
      <point x="886" y="327" type="curve" smooth="yes"/>
      <point x="884" y="208"/>
      <point x="846" y="128"/>
      <point x="789" y="44" type="curve"/>
      <point x="803" y="0" type="line"/>
      <point x="1466" y="0" type="line"/>
      <point x="1479" y="61" type="line"/>
      <point x="886" y="61" type="line"/>
      <point x="971" y="142"/>
      <point x="1017" y="228"/>
      <point x="1017" y="344" type="curve" smooth="yes"/>
      <point x="1017" y="484"/>
      <point x="915" y="570"/>
      <point x="768" y="570" type="curve" smooth="yes"/>
      <point x="561" y="570"/>
      <point x="415" y="359"/>
      <point x="415" y="151" type="curve" smooth="yes"/>
      <point x="415" y="63"/>
      <point x="454" y="-4"/>
    </contour>
    <contour>
      <point x="1163" y="-265" type="line"/>
      <point x="1302" y="-265" type="line"/>
      <point x="1441" y="392" type="line" smooth="yes"/>
      <point x="1465" y="504"/>
      <point x="1416" y="568"/>
      <point x="1319" y="568" type="curve" smooth="yes"/>
      <point x="1159" y="568"/>
      <point x="1077" y="372"/>
      <point x="1077" y="211" type="curve" smooth="yes"/>
      <point x="1077" y="92"/>
      <point x="1129" y="14"/>
      <point x="1226" y="14" type="curve"/>
      <point x="1236" y="61" type="line"/>
      <point x="1175" y="61"/>
      <point x="1139" y="123"/>
      <point x="1139" y="210" type="curve" smooth="yes"/>
      <point x="1139" y="335"/>
      <point x="1199" y="483"/>
      <point x="1270" y="483" type="curve" smooth="yes"/>
      <point x="1305" y="483"/>
      <point x="1316" y="453"/>
      <point x="1306" y="408" type="curve" smooth="yes"/>
    </contour>
  </outline>
</glyph>
<glyph name="number-tamil" format="2">
  <advance width="800"/>
  <unicode hex="0BFA"/>
  <note>
uni0BFA
</note>
  <anchor x="258" y="0" name="bottom"/>
  <anchor x="493" y="565" name="imatra"/>
  <anchor x="256" y="-201" name="nukta"/>
  <anchor x="379" y="565" name="top"/>
  <anchor x="397" y="565" name="vedic"/>
  <outline>
    <contour>
      <point x="678" y="505" type="line"/>
      <point x="845" y="505" type="line"/>
      <point x="858" y="565" type="line"/>
      <point x="712" y="565" type="line"/>
      <point x="717" y="537" type="line"/>
      <point x="819" y="610"/>
      <point x="887" y="707"/>
      <point x="887" y="815" type="curve" smooth="yes"/>
      <point x="887" y="917"/>
      <point x="817" y="971"/>
      <point x="731" y="971" type="curve" smooth="yes"/>
      <point x="603" y="971"/>
      <point x="502" y="845"/>
      <point x="502" y="717" type="curve" smooth="yes"/>
      <point x="502" y="657"/>
      <point x="535" y="609"/>
      <point x="598" y="609" type="curve" smooth="yes"/>
      <point x="670" y="609"/>
      <point x="729" y="667"/>
      <point x="729" y="753" type="curve" smooth="yes"/>
      <point x="729" y="828"/>
      <point x="671" y="884"/>
      <point x="582" y="884" type="curve" smooth="yes"/>
      <point x="465" y="884"/>
      <point x="384" y="783"/>
      <point x="384" y="670" type="curve" smooth="yes"/>
      <point x="384" y="596"/>
      <point x="430" y="524"/>
      <point x="496" y="522" type="curve"/>
      <point x="519" y="565" type="line"/>
      <point x="463" y="565"/>
      <point x="439" y="617"/>
      <point x="439" y="667" type="curve" smooth="yes"/>
      <point x="439" y="752"/>
      <point x="483" y="824"/>
      <point x="572" y="824" type="curve" smooth="yes"/>
      <point x="624" y="824"/>
      <point x="651" y="790"/>
      <point x="651" y="747" type="curve" smooth="yes"/>
      <point x="651" y="710"/>
      <point x="633" y="671"/>
      <point x="593" y="671" type="curve" smooth="yes"/>
      <point x="567" y="671"/>
      <point x="555" y="694"/>
      <point x="555" y="732" type="curve" smooth="yes"/>
      <point x="555" y="814"/>
      <point x="621" y="911"/>
      <point x="708" y="911" type="curve" smooth="yes"/>
      <point x="770" y="911"/>
      <point x="807" y="871"/>
      <point x="807" y="804" type="curve" smooth="yes"/>
      <point x="807" y="716"/>
      <point x="763" y="626"/>
      <point x="663" y="551" type="curve"/>
    </contour>
    <component base="na-tamil"/>
  </outline>
</glyph>
<glyph name="doubleSvarita-vedic" format="2">
  <unicode hex="1CDA"/>
  <note>
uni1CDA
</note>
  <anchor x="61" y="565" name="_vedic"/>
  <outline>
    <contour>
      <point x="57" y="937" type="line"/>
      <point x="116" y="937" type="line"/>
      <point x="159" y="1138" type="line"/>
      <point x="100" y="1138" type="line"/>
    </contour>
    <contour>
      <point x="165" y="937" type="line"/>
      <point x="224" y="937" type="line"/>
      <point x="266" y="1138" type="line"/>
      <point x="208" y="1138" type="line"/>
    </contour>
  </outline>
</glyph>
<glyph name="endash" format="2">
  <advance width="500"/>
  <unicode hex="2013"/>
  <outline>
    <contour>
      <point x="-13" y="235" type="line"/>
      <point x="499" y="235" type="line"/>
      <point x="513" y="302" type="line"/>
      <point x="1" y="302" type="line"/>
    </contour>
  </outline>
</glyph>
<glyph name="emdash" format="2">
  <advance width="1000"/>
  <unicode hex="2014"/>
  <outline>
    <contour>
      <point x="-13" y="235" type="line"/>
      <point x="999" y="235" type="line"/>
      <point x="1013" y="302" type="line"/>
      <point x="1" y="302" type="line"/>
    </contour>
  </outline>
</glyph>
<glyph name="quoteright" format="2">
  <advance width="232"/>
  <unicode hex="2019"/>
  <outline>
    <contour>
      <point x="90" y="427" type="line"/>
      <point x="215" y="454"/>
      <point x="281" y="535"/>
      <point x="281" y="633" type="curve" smooth="yes"/>
      <point x="281" y="685"/>
      <point x="251" y="714"/>
      <point x="213" y="714" type="curve" smooth="yes"/>
      <point x="180" y="714"/>
      <point x="149" y="689"/>
      <point x="149" y="646" type="curve" smooth="yes"/>
      <point x="149" y="596"/>
      <point x="188" y="594"/>
      <point x="188" y="558" type="curve" smooth="yes"/>
      <point x="188" y="519"/>
      <point x="158" y="491"/>
      <point x="103" y="475" type="curve"/>
    </contour>
  </outline>
</glyph>
<glyph name="quotedblright" format="2">
  <advance width="402"/>
  <unicode hex="201D"/>
  <outline>
    <contour>
      <point x="258" y="419" type="line"/>
      <point x="384" y="448"/>
      <point x="451" y="532"/>
      <point x="451" y="631" type="curve" smooth="yes"/>
      <point x="451" y="685"/>
      <point x="421" y="715"/>
      <point x="382" y="715" type="curve" smooth="yes"/>
      <point x="349" y="715"/>
      <point x="317" y="689"/>
      <point x="317" y="645" type="curve" smooth="yes"/>
      <point x="317" y="594"/>
      <point x="357" y="592"/>
      <point x="357" y="554" type="curve" smooth="yes"/>
      <point x="357" y="514"/>
      <point x="327" y="485"/>
      <point x="270" y="469" type="curve"/>
    </contour>
    <contour>
      <point x="88" y="419" type="line"/>
      <point x="215" y="448"/>
      <point x="282" y="532"/>
      <point x="282" y="631" type="curve" smooth="yes"/>
      <point x="282" y="685"/>
      <point x="252" y="715"/>
      <point x="213" y="715" type="curve" smooth="yes"/>
      <point x="179" y="715"/>
      <point x="148" y="689"/>
      <point x="148" y="645" type="curve" smooth="yes"/>
      <point x="148" y="594"/>
      <point x="187" y="592"/>
      <point x="187" y="554" type="curve" smooth="yes"/>
      <point x="187" y="514"/>
      <point x="158" y="485"/>
      <point x="101" y="469" type="curve"/>
    </contour>
  </outline>
</glyph>
<glyph name="rupeeIndian" format="2">
  <advance width="413"/>
  <unicode hex="20B9"/>
  <outline>
    <contour>
      <point x="256" y="0" type="curve" smooth="yes"/>
      <point x="324" y="0" type="line"/>
      <point x="335" y="52" type="line"/>
      <point x="324" y="52" type="line" smooth="yes"/>
      <point x="302" y="52"/>
      <point x="275" y="78"/>
      <point x="253" y="135" type="curve" smooth="yes"/>
      <point x="181" y="322" type="line"/>
      <point x="242" y="330"/>
      <point x="313" y="390"/>
      <point x="350" y="483" type="curve"/>
      <point x="413" y="483" type="line"/>
      <point x="425" y="540" type="line"/>
      <point x="367" y="540" type="line"/>
      <point x="375" y="589"/>
      <point x="374" y="628"/>
      <point x="358" y="656" type="curve"/>
      <point x="450" y="656" type="line"/>
      <point x="462" y="714" type="line"/>
      <point x="120" y="714" type="line"/>
      <point x="108" y="656" type="line"/>
      <point x="118" y="656" type="line" smooth="yes"/>
      <point x="185" y="656"/>
      <point x="222" y="623"/>
      <point x="210" y="540" type="curve"/>
      <point x="86" y="540" type="line"/>
      <point x="74" y="483" type="line"/>
      <point x="196" y="483" type="line"/>
      <point x="168" y="396"/>
      <point x="142" y="362"/>
      <point x="77" y="362" type="curve" smooth="yes"/>
      <point x="46" y="362" type="line"/>
      <point x="36" y="317" type="line"/>
      <point x="108" y="95" type="line" smooth="yes"/>
      <point x="131" y="24"/>
      <point x="164" y="0"/>
    </contour>
  </outline>
</glyph>
<glyph name="dottedCircle" format="2">
  <advance width="594"/>
  <unicode hex="25CC"/>
  <anchor x="299" y="300" name="bottom"/>
  <anchor x="350" y="554" name="imatra"/>
  <anchor x="233" y="0" name="nukta"/>
  <anchor x="340" y="554" name="top"/>
  <anchor x="289" y="304" name="vedic"/>
  <outline>
    <contour>
      <point x="383" y="469" type="curve" smooth="yes"/>
      <point x="401" y="469"/>
      <point x="411" y="480"/>
      <point x="411" y="496" type="curve" smooth="yes"/>
      <point x="411" y="513"/>
      <point x="401" y="523"/>
      <point x="383" y="523" type="curve" smooth="yes"/>
      <point x="364" y="523"/>
      <point x="354" y="513"/>
      <point x="354" y="496" type="curve" smooth="yes"/>
      <point x="354" y="480"/>
      <point x="364" y="469"/>
    </contour>
    <contour>
      <point x="141" y="106" type="curve" smooth="yes"/>
      <point x="159" y="106"/>
      <point x="170" y="117"/>
      <point x="170" y="133" type="curve" smooth="yes"/>
      <point x="170" y="149"/>
      <point x="159" y="161"/>
      <point x="141" y="161" type="curve" smooth="yes"/>
      <point x="123" y="161"/>
      <point x="112" y="149"/>
      <point x="112" y="133" type="curve" smooth="yes"/>
      <point x="112" y="117"/>
      <point x="123" y="106"/>
    </contour>
    <contour>
      <point x="93" y="180" type="curve" smooth="yes"/>
      <point x="110" y="180"/>
      <point x="121" y="190"/>
      <point x="121" y="207" type="curve" smooth="yes"/>
      <point x="121" y="223"/>
      <point x="110" y="234"/>
      <point x="93" y="234" type="curve" smooth="yes"/>
      <point x="75" y="234"/>
      <point x="64" y="223"/>
      <point x="64" y="207" type="curve" smooth="yes"/>
      <point x="64" y="190"/>
      <point x="75" y="180"/>
    </contour>
    <contour>
      <point x="213" y="59" type="curve" smooth="yes"/>
      <point x="231" y="59"/>
      <point x="242" y="70"/>
      <point x="242" y="86" type="curve" smooth="yes"/>
      <point x="242" y="103"/>
      <point x="231" y="113"/>
      <point x="213" y="113" type="curve" smooth="yes"/>
      <point x="195" y="113"/>
      <point x="185" y="102"/>
      <point x="185" y="85" type="curve" smooth="yes"/>
      <point x="185" y="69"/>
      <point x="195" y="59"/>
    </contour>
    <contour>
      <point x="76" y="264" type="curve" smooth="yes"/>
      <point x="93" y="264"/>
      <point x="104" y="275"/>
      <point x="104" y="291" type="curve" smooth="yes"/>
      <point x="104" y="307"/>
      <point x="93" y="318"/>
      <point x="76" y="318" type="curve" smooth="yes"/>
      <point x="58" y="318"/>
      <point x="47" y="307"/>
      <point x="47" y="291" type="curve" smooth="yes"/>
      <point x="47" y="275"/>
      <point x="58" y="264"/>
    </contour>
    <contour>
      <point x="298" y="41" type="curve" smooth="yes"/>
      <point x="315" y="41"/>
      <point x="326" y="52"/>
      <point x="326" y="68" type="curve" smooth="yes"/>
      <point x="326" y="84"/>
      <point x="315" y="96"/>
      <point x="298" y="96" type="curve" smooth="yes"/>
      <point x="280" y="96"/>
      <point x="270" y="84"/>
      <point x="270" y="68" type="curve" smooth="yes"/>
      <point x="270" y="52"/>
      <point x="280" y="41"/>
    </contour>
    <contour>
      <point x="94" y="348" type="curve" smooth="yes"/>
      <point x="111" y="348"/>
      <point x="121" y="359"/>
      <point x="121" y="375" type="curve" smooth="yes"/>
      <point x="121" y="392"/>
      <point x="110" y="402"/>
      <point x="93" y="402" type="curve" smooth="yes"/>
      <point x="75" y="402"/>
      <point x="64" y="392"/>
      <point x="64" y="375" type="curve" smooth="yes"/>
      <point x="64" y="359"/>
      <point x="75" y="348"/>
    </contour>
    <contour>
      <point x="383" y="59" type="curve" smooth="yes"/>
      <point x="401" y="59"/>
      <point x="411" y="69"/>
      <point x="411" y="85" type="curve" smooth="yes"/>
      <point x="411" y="102"/>
      <point x="401" y="113"/>
      <point x="383" y="113" type="curve" smooth="yes"/>
      <point x="364" y="113"/>
      <point x="354" y="102"/>
      <point x="354" y="85" type="curve" smooth="yes"/>
      <point x="354" y="69"/>
      <point x="364" y="59"/>
    </contour>
    <contour>
      <point x="456" y="106" type="curve" smooth="yes"/>
      <point x="474" y="106"/>
      <point x="483" y="117"/>
      <point x="483" y="133" type="curve" smooth="yes"/>
      <point x="483" y="149"/>
      <point x="474" y="161"/>
      <point x="456" y="161" type="curve" smooth="yes"/>
      <point x="438" y="161"/>
      <point x="427" y="149"/>
      <point x="427" y="133" type="curve" smooth="yes"/>
      <point x="427" y="117"/>
      <point x="438" y="106"/>
    </contour>
    <contour>
      <point x="141" y="421" type="curve" smooth="yes"/>
      <point x="159" y="421"/>
      <point x="170" y="433"/>
      <point x="170" y="449" type="curve" smooth="yes"/>
      <point x="170" y="465"/>
      <point x="159" y="476"/>
      <point x="141" y="476" type="curve" smooth="yes"/>
      <point x="123" y="476"/>
      <point x="112" y="465"/>
      <point x="112" y="448" type="curve" smooth="yes"/>
      <point x="112" y="432"/>
      <point x="123" y="421"/>
    </contour>
    <contour>
      <point x="213" y="469" type="curve" smooth="yes"/>
      <point x="231" y="469"/>
      <point x="242" y="480"/>
      <point x="242" y="496" type="curve" smooth="yes"/>
      <point x="242" y="513"/>
      <point x="231" y="523"/>
      <point x="213" y="523" type="curve" smooth="yes"/>
      <point x="195" y="523"/>
      <point x="185" y="513"/>
      <point x="185" y="496" type="curve" smooth="yes"/>
      <point x="185" y="480"/>
      <point x="195" y="469"/>
    </contour>
    <contour>
      <point x="503" y="180" type="curve" smooth="yes"/>
      <point x="522" y="180"/>
      <point x="532" y="190"/>
      <point x="532" y="207" type="curve" smooth="yes"/>
      <point x="532" y="223"/>
      <point x="522" y="234"/>
      <point x="503" y="234" type="curve" smooth="yes"/>
      <point x="485" y="234"/>
      <point x="475" y="223"/>
      <point x="475" y="207" type="curve" smooth="yes"/>
      <point x="475" y="190"/>
      <point x="485" y="180"/>
    </contour>
    <contour>
      <point x="298" y="486" type="curve" smooth="yes"/>
      <point x="315" y="486"/>
      <point x="326" y="498"/>
      <point x="326" y="514" type="curve" smooth="yes"/>
      <point x="326" y="530"/>
      <point x="315" y="541"/>
      <point x="298" y="541" type="curve" smooth="yes"/>
      <point x="280" y="541"/>
      <point x="270" y="530"/>
      <point x="270" y="514" type="curve" smooth="yes"/>
      <point x="270" y="498"/>
      <point x="280" y="486"/>
    </contour>
    <contour>
      <point x="522" y="264" type="curve" smooth="yes"/>
      <point x="540" y="264"/>
      <point x="549" y="275"/>
      <point x="549" y="291" type="curve" smooth="yes"/>
      <point x="549" y="307"/>
      <point x="540" y="318"/>
      <point x="522" y="318" type="curve" smooth="yes"/>
      <point x="503" y="318"/>
      <point x="493" y="307"/>
      <point x="493" y="291" type="curve" smooth="yes"/>
      <point x="493" y="275"/>
      <point x="503" y="264"/>
    </contour>
    <contour>
      <point x="503" y="348" type="curve" smooth="yes"/>
      <point x="522" y="348"/>
      <point x="532" y="359"/>
      <point x="532" y="375" type="curve" smooth="yes"/>
      <point x="532" y="392"/>
      <point x="522" y="402"/>
      <point x="504" y="402" type="curve" smooth="yes"/>
      <point x="485" y="402"/>
      <point x="475" y="392"/>
      <point x="475" y="375" type="curve" smooth="yes"/>
      <point x="475" y="359"/>
      <point x="485" y="348"/>
    </contour>
    <contour>
      <point x="456" y="421" type="curve" smooth="yes"/>
      <point x="474" y="421"/>
      <point x="483" y="433"/>
      <point x="483" y="449" type="curve" smooth="yes"/>
      <point x="483" y="465"/>
      <point x="474" y="476"/>
      <point x="456" y="476" type="curve" smooth="yes"/>
      <point x="438" y="476"/>
      <point x="427" y="465"/>
      <point x="427" y="449" type="curve" smooth="yes"/>
      <point x="427" y="433"/>
      <point x="438" y="421"/>
    </contour>
  </outline>
</glyph>
<glyph name="candrabinduhalant-deva" format="2">
  <advance width="398"/>
  <unicode hex="A8F3"/>
  <note>
uniA8F3
</note>
  <outline>
    <contour>
      <point x="215" y="330" type="curve" smooth="yes"/>
      <point x="306" y="330"/>
      <point x="379" y="390"/>
      <point x="422" y="533" type="curve"/>
      <point x="343" y="549" type="line"/>
      <point x="315" y="454"/>
      <point x="273" y="411"/>
      <point x="214" y="411" type="curve" smooth="yes"/>
      <point x="163" y="411"/>
      <point x="137" y="453"/>
      <point x="146" y="544" type="curve"/>
      <point x="87" y="535" type="line"/>
      <point x="74" y="418"/>
      <point x="116" y="330"/>
    </contour>
    <contour>
      <point x="230" y="481" type="curve" smooth="yes"/>
      <point x="264" y="481"/>
      <point x="282" y="506"/>
      <point x="282" y="538" type="curve" smooth="yes"/>
      <point x="282" y="562"/>
      <point x="264" y="575"/>
      <point x="244" y="575" type="curve" smooth="yes"/>
      <point x="210" y="575"/>
      <point x="192" y="552"/>
      <point x="192" y="521" type="curve" smooth="yes"/>
      <point x="192" y="495"/>
      <point x="210" y="481"/>
    </contour>
    <contour>
      <point x="256" y="31" type="curve"/>
      <point x="313" y="51" type="line"/>
      <point x="263" y="222"/>
      <point x="233" y="265"/>
      <point x="147" y="265" type="curve" smooth="yes"/>
      <point x="123" y="265"/>
      <point x="101" y="256"/>
      <point x="88" y="253" type="curve"/>
      <point x="101" y="161" type="line"/>
      <point x="120" y="168"/>
      <point x="133" y="172"/>
      <point x="153" y="172" type="curve" smooth="yes"/>
      <point x="199" y="172"/>
      <point x="220" y="148"/>
    </contour>
  </outline>
</glyph>
<glyph name="u11301" format="2">
  <unicode hex="11301"/>
  <anchor x="61" y="565" name="_vedic"/>
  <outline>
    <contour>
      <point x="160" y="934" type="curve" smooth="yes"/>
      <point x="270" y="934"/>
      <point x="347" y="994"/>
      <point x="347" y="1086" type="curve" smooth="yes"/>
      <point x="347" y="1112"/>
      <point x="336" y="1136"/>
      <point x="305" y="1136" type="curve" smooth="yes"/>
      <point x="299" y="1136"/>
      <point x="287" y="1135"/>
      <point x="280" y="1132" type="curve"/>
      <point x="282" y="1125"/>
      <point x="283" y="1117"/>
      <point x="283" y="1098" type="curve" smooth="yes"/>
      <point x="283" y="1041"/>
      <point x="246" y="1001"/>
      <point x="171" y="1001" type="curve" smooth="yes"/>
      <point x="117" y="1001"/>
      <point x="89" y="1019"/>
      <point x="89" y="1057" type="curve" smooth="yes"/>
      <point x="89" y="1087"/>
      <point x="97" y="1110"/>
      <point x="110" y="1133" type="curve"/>
      <point x="102" y="1136"/>
      <point x="93" y="1138"/>
      <point x="81" y="1138" type="curve" smooth="yes"/>
      <point x="29" y="1138"/>
      <point x="-13" y="1100"/>
      <point x="-13" y="1045" type="curve" smooth="yes"/>
      <point x="-13" y="983"/>
      <point x="23" y="934"/>
    </contour>
    <contour>
      <point x="185" y="1036" type="curve" smooth="yes"/>
      <point x="223" y="1036"/>
      <point x="242" y="1056"/>
      <point x="242" y="1086" type="curve" smooth="yes"/>
      <point x="242" y="1116"/>
      <point x="223" y="1138"/>
      <point x="185" y="1138" type="curve" smooth="yes"/>
      <point x="148" y="1138"/>
      <point x="130" y="1116"/>
      <point x="130" y="1088" type="curve" smooth="yes"/>
      <point x="130" y="1056"/>
      <point x="149" y="1036"/>
    </contour>
  </outline>
</glyph>
<glyph name="visarga-grantha" format="2">
  <advance width="257"/>
  <unicode hex="11303"/>
  <outline>
    <contour>
      <point x="92" y="-4" type="curve" smooth="yes"/>
      <point x="162" y="-4"/>
      <point x="216" y="41"/>
      <point x="216" y="112" type="curve" smooth="yes"/>
      <point x="216" y="184"/>
      <point x="162" y="229"/>
      <point x="92" y="229" type="curve" smooth="yes"/>
      <point x="23" y="229"/>
      <point x="-31" y="184"/>
      <point x="-31" y="112" type="curve" smooth="yes"/>
      <point x="-31" y="41"/>
      <point x="23" y="-4"/>
    </contour>
    <contour>
      <point x="92" y="64" type="curve" smooth="yes"/>
      <point x="63" y="64"/>
      <point x="45" y="84"/>
      <point x="45" y="113" type="curve" smooth="yes"/>
      <point x="45" y="142"/>
      <point x="63" y="162"/>
      <point x="92" y="162" type="curve" smooth="yes"/>
      <point x="122" y="162"/>
      <point x="139" y="142"/>
      <point x="139" y="113" type="curve" smooth="yes"/>
      <point x="139" y="84"/>
      <point x="122" y="64"/>
    </contour>
    <contour>
      <point x="165" y="340" type="curve" smooth="yes"/>
      <point x="235" y="340"/>
      <point x="289" y="386"/>
      <point x="289" y="458" type="curve" smooth="yes"/>
      <point x="289" y="529"/>
      <point x="235" y="574"/>
      <point x="165" y="574" type="curve" smooth="yes"/>
      <point x="96" y="574"/>
      <point x="42" y="529"/>
      <point x="42" y="458" type="curve" smooth="yes"/>
      <point x="42" y="386"/>
      <point x="96" y="340"/>
    </contour>
    <contour>
      <point x="165" y="409" type="curve" smooth="yes"/>
      <point x="136" y="409"/>
      <point x="118" y="429"/>
      <point x="118" y="458" type="curve" smooth="yes"/>
      <point x="118" y="486"/>
      <point x="136" y="506"/>
      <point x="165" y="506" type="curve" smooth="yes"/>
      <point x="195" y="506"/>
      <point x="212" y="486"/>
      <point x="212" y="458" type="curve" smooth="yes"/>
      <point x="212" y="429"/>
      <point x="195" y="409"/>
    </contour>
  </outline>
</glyph>
<glyph name="u1133B" format="2">
  <unicode hex="1133B"/>
  <anchor x="-59" y="0" name="_nukta"/>
  <outline>
    <contour>
      <point x="-85" y="-193" type="curve" smooth="yes"/>
      <point x="-43" y="-193"/>
      <point x="-8" y="-160"/>
      <point x="-8" y="-121" type="curve" smooth="yes"/>
      <point x="-8" y="-83"/>
      <point x="-43" y="-50"/>
      <point x="-85" y="-50" type="curve" smooth="yes"/>
      <point x="-127" y="-50"/>
      <point x="-161" y="-83"/>
      <point x="-161" y="-121" type="curve" smooth="yes"/>
      <point x="-161" y="-160"/>
      <point x="-127" y="-193"/>
    </contour>
  </outline>
</glyph>
<glyph name="nukta-grantha" format="2">
  <unicode hex="1133C"/>
  <anchor x="-59" y="0" name="_nukta"/>
  <outline>
    <contour>
      <point x="-198" y="-193" type="curve" smooth="yes"/>
      <point x="-156" y="-193"/>
      <point x="-121" y="-160"/>
      <point x="-121" y="-121" type="curve" smooth="yes"/>
      <point x="-121" y="-83"/>
      <point x="-156" y="-50"/>
      <point x="-198" y="-50" type="curve" smooth="yes"/>
      <point x="-240" y="-50"/>
      <point x="-274" y="-83"/>
      <point x="-274" y="-121" type="curve" smooth="yes"/>
      <point x="-274" y="-160"/>
      <point x="-240" y="-193"/>
    </contour>
    <contour>
      <point x="23" y="-193" type="curve" smooth="yes"/>
      <point x="65" y="-193"/>
      <point x="100" y="-160"/>
      <point x="100" y="-121" type="curve" smooth="yes"/>
      <point x="100" y="-83"/>
      <point x="65" y="-50"/>
      <point x="23" y="-50" type="curve" smooth="yes"/>
      <point x="-19" y="-50"/>
      <point x="-53" y="-83"/>
      <point x="-53" y="-121" type="curve" smooth="yes"/>
      <point x="-53" y="-160"/>
      <point x="-19" y="-193"/>
    </contour>
  </outline>
</glyph>
<glyph name="anusvara-tamil.alt" format="2">
  <note>
uni0B82
</note>
  <anchor x="25" y="435" name="_top"/>
  <outline>
    <contour>
      <point x="100" y="628" type="curve" smooth="yes"/>
      <point x="171" y="628"/>
      <point x="227" y="680"/>
      <point x="227" y="751" type="curve" smooth="yes"/>
      <point x="227" y="822"/>
      <point x="171" y="873"/>
      <point x="100" y="873" type="curve" smooth="yes"/>
      <point x="29" y="873"/>
      <point x="-27" y="822"/>
      <point x="-27" y="751" type="curve" smooth="yes"/>
      <point x="-27" y="680"/>
      <point x="29" y="628"/>
    </contour>
    <contour>
      <point x="100" y="698" type="curve" smooth="yes"/>
      <point x="71" y="698"/>
      <point x="47" y="721"/>
      <point x="47" y="751" type="curve" smooth="yes"/>
      <point x="47" y="781"/>
      <point x="71" y="804"/>
      <point x="100" y="804" type="curve" smooth="yes"/>
      <point x="129" y="804"/>
      <point x="153" y="781"/>
      <point x="153" y="751" type="curve" smooth="yes"/>
      <point x="153" y="721"/>
      <point x="129" y="698"/>
    </contour>
  </outline>
</glyph>
<glyph name="cii-tamil" format="2">
  <advance width="578"/>
  <note>
uni0B9A
</note>
  <anchor x="230" y="0" name="bottom"/>
  <anchor x="219" y="0" name="nukta"/>
  <anchor x="572" y="906" name="top"/>
  <anchor x="395" y="565" name="vedic"/>
  <outline>
    <contour>
      <point x="187" y="-4" type="curve" smooth="yes"/>
      <point x="305" y="-4"/>
      <point x="377" y="54"/>
      <point x="404" y="182" type="curve" smooth="yes"/>
      <point x="422" y="268" type="line"/>
      <point x="538" y="268" type="line"/>
      <point x="551" y="329" type="line"/>
      <point x="435" y="329" type="line"/>
      <point x="472" y="504" type="line"/>
      <point x="588" y="504" type="line"/>
      <point x="601" y="565" type="line"/>
      <point x="180" y="565" type="line"/>
      <point x="122" y="294" type="line"/>
      <point x="186" y="294" type="line"/>
      <point x="230" y="504" type="line"/>
      <point x="329" y="504" type="line"/>
      <point x="292" y="329" type="line"/>
      <point x="185" y="329" type="line" smooth="yes"/>
      <point x="97" y="329"/>
      <point x="14" y="261"/>
      <point x="14" y="153" type="curve" smooth="yes"/>
      <point x="14" y="66"/>
      <point x="74" y="-4"/>
    </contour>
    <contour>
      <point x="161" y="64" type="curve" smooth="yes"/>
      <point x="118" y="64"/>
      <point x="80" y="95"/>
      <point x="80" y="157" type="curve" smooth="yes"/>
      <point x="80" y="224"/>
      <point x="122" y="268"/>
      <point x="176" y="268" type="curve" smooth="yes"/>
      <point x="279" y="268" type="line"/>
      <point x="259" y="170" type="line" smooth="yes"/>
      <point x="243" y="92"/>
      <point x="211" y="64"/>
    </contour>
    <component base="iiMatra-tamil" xOffset="466"/>
  </outline>
</glyph>
<glyph name="cuu-tamil" format="2">
  <advance width="1017"/>
  <note>
g107
</note>
  <anchor x="477" y="0" name="bottom"/>
  <anchor x="450" y="-265" name="nukta"/>
  <anchor x="606" y="565" name="top"/>
  <anchor x="617" y="565" name="vedic"/>
  <outline>
    <contour>
      <point x="359" y="-4" type="curve" smooth="yes"/>
      <point x="477" y="-4"/>
      <point x="549" y="54"/>
      <point x="576" y="182" type="curve" smooth="yes"/>
      <point x="594" y="268" type="line"/>
      <point x="876" y="268" type="line"/>
      <point x="889" y="329" type="line"/>
      <point x="607" y="329" type="line"/>
      <point x="644" y="504" type="line"/>
      <point x="760" y="504" type="line"/>
      <point x="773" y="565" type="line"/>
      <point x="352" y="565" type="line"/>
      <point x="294" y="294" type="line"/>
      <point x="358" y="294" type="line"/>
      <point x="402" y="504" type="line"/>
      <point x="501" y="504" type="line"/>
      <point x="464" y="329" type="line"/>
      <point x="357" y="329" type="line" smooth="yes"/>
      <point x="269" y="329"/>
      <point x="186" y="261"/>
      <point x="186" y="153" type="curve" smooth="yes"/>
      <point x="186" y="66"/>
      <point x="246" y="-4"/>
    </contour>
    <contour>
      <point x="333" y="64" type="curve" smooth="yes"/>
      <point x="290" y="64"/>
      <point x="252" y="95"/>
      <point x="252" y="157" type="curve" smooth="yes"/>
      <point x="252" y="224"/>
      <point x="294" y="268"/>
      <point x="348" y="268" type="curve" smooth="yes"/>
      <point x="451" y="268" type="line"/>
      <point x="431" y="170" type="line" smooth="yes"/>
      <point x="415" y="92"/>
      <point x="383" y="64"/>
    </contour>
    <contour>
      <point x="623" y="0" type="line"/>
      <point x="745" y="0" type="line"/>
      <point x="808" y="298" type="line"/>
      <point x="686" y="298" type="line"/>
    </contour>
    <contour>
      <point x="450" y="-265" type="curve" smooth="yes"/>
      <point x="697" y="-265"/>
      <point x="933" y="-127"/>
      <point x="933" y="93" type="curve" smooth="yes"/>
      <point x="933" y="155"/>
      <point x="903" y="189"/>
      <point x="855" y="189" type="curve" smooth="yes"/>
      <point x="794" y="189"/>
      <point x="759" y="130"/>
      <point x="747" y="76" type="curve" smooth="yes"/>
      <point x="741" y="48" type="line"/>
      <point x="755" y="48" type="line"/>
      <point x="760" y="74" type="line" smooth="yes"/>
      <point x="765" y="99"/>
      <point x="779" y="120"/>
      <point x="800" y="120" type="curve" smooth="yes"/>
      <point x="820" y="120"/>
      <point x="829" y="104"/>
      <point x="829" y="78" type="curve" smooth="yes"/>
      <point x="829" y="-103"/>
      <point x="654" y="-202"/>
      <point x="437" y="-202" type="curve" smooth="yes"/>
      <point x="234" y="-202"/>
      <point x="84" y="-63"/>
      <point x="84" y="131" type="curve" smooth="yes"/>
      <point x="84" y="281"/>
      <point x="138" y="372"/>
      <point x="227" y="496" type="curve"/>
      <point x="177" y="529" type="line"/>
      <point x="77" y="393"/>
      <point x="18" y="279"/>
      <point x="18" y="120" type="curve" smooth="yes"/>
      <point x="18" y="-97"/>
      <point x="192" y="-265"/>
    </contour>
  </outline>
</glyph>
<glyph name="iMatra-tamil.alt01" format="2">
  <advance width="188"/>
  <note>
uni0BBF
</note>
  <outline>
    <contour>
      <point x="3" y="0" type="line"/>
      <point x="68" y="0" type="line"/>
      <point x="190" y="574" type="line" smooth="yes"/>
      <point x="195" y="596"/>
      <point x="197" y="617"/>
      <point x="197" y="637" type="curve" smooth="yes"/>
      <point x="197" y="750"/>
      <point x="125" y="831"/>
      <point x="-4" y="831" type="curve" smooth="yes"/>
      <point x="-125" y="831"/>
      <point x="-210" y="743"/>
      <point x="-210" y="638" type="curve" smooth="yes"/>
      <point x="-210" y="581"/>
      <point x="-178" y="538"/>
      <point x="-136" y="508" type="curve"/>
      <point x="-105" y="537" type="line"/>
      <point x="-123" y="559"/>
      <point x="-136" y="580"/>
      <point x="-136" y="610" type="curve" smooth="yes"/>
      <point x="-136" y="663"/>
      <point x="-97" y="716"/>
      <point x="-12" y="716" type="curve" smooth="yes"/>
      <point x="78" y="716"/>
      <point x="123" y="661"/>
      <point x="123" y="585" type="curve" smooth="yes"/>
      <point x="123" y="571"/>
      <point x="121" y="555"/>
      <point x="118" y="539" type="curve" smooth="yes"/>
    </contour>
  </outline>
</glyph>
<glyph name="iMatra-tamil.alt02" format="2">
  <advance width="173"/>
  <note>
uni0BBF
</note>
  <anchor x="-87" y="831" name="top"/>
  <outline>
    <contour>
      <point x="-12" y="0" type="line"/>
      <point x="52" y="0" type="line"/>
      <point x="162" y="513" type="line" smooth="yes"/>
      <point x="203" y="702"/>
      <point x="104" y="831"/>
      <point x="-87" y="831" type="curve" smooth="yes"/>
      <point x="-240" y="831"/>
      <point x="-344" y="735"/>
      <point x="-344" y="612" type="curve" smooth="yes"/>
      <point x="-344" y="570"/>
      <point x="-322" y="528"/>
      <point x="-293" y="501" type="curve"/>
      <point x="-256" y="527" type="line"/>
      <point x="-265" y="543"/>
      <point x="-271" y="565"/>
      <point x="-271" y="583" type="curve" smooth="yes"/>
      <point x="-271" y="670"/>
      <point x="-199" y="716"/>
      <point x="-97" y="716" type="curve" smooth="yes"/>
      <point x="44" y="716"/>
      <point x="121" y="621"/>
      <point x="90" y="477" type="curve" smooth="yes"/>
    </contour>
  </outline>
</glyph>
<glyph name="iiMatra-tamil.alt01" format="2">
  <note>
uni0BC0
</note>
  <outline>
    <contour>
      <point x="-150" y="508" type="curve"/>
      <point x="-109" y="540" type="line"/>
      <point x="-131" y="569"/>
      <point x="-153" y="615"/>
      <point x="-153" y="672" type="curve" smooth="yes"/>
      <point x="-153" y="762"/>
      <point x="-96" y="839"/>
      <point x="-12" y="839" type="curve" smooth="yes"/>
      <point x="34" y="839"/>
      <point x="61" y="811"/>
      <point x="61" y="765" type="curve" smooth="yes"/>
      <point x="61" y="717"/>
      <point x="40" y="680"/>
      <point x="0" y="680" type="curve" smooth="yes"/>
      <point x="-27" y="680"/>
      <point x="-38" y="702"/>
      <point x="-38" y="733" type="curve" smooth="yes"/>
      <point x="-38" y="770"/>
      <point x="-21" y="820"/>
      <point x="6" y="862" type="curve"/>
      <point x="-38" y="866" type="line"/>
      <point x="-73" y="816"/>
      <point x="-91" y="762"/>
      <point x="-91" y="717" type="curve" smooth="yes"/>
      <point x="-91" y="654"/>
      <point x="-56" y="607"/>
      <point x="17" y="607" type="curve" smooth="yes"/>
      <point x="100" y="607"/>
      <point x="168" y="669"/>
      <point x="168" y="758" type="curve" smooth="yes"/>
      <point x="168" y="854"/>
      <point x="93" y="902"/>
      <point x="0" y="902" type="curve" smooth="yes"/>
      <point x="-124" y="902"/>
      <point x="-216" y="791"/>
      <point x="-216" y="672" type="curve" smooth="yes"/>
      <point x="-216" y="605"/>
      <point x="-190" y="557"/>
    </contour>
  </outline>
</glyph>
<glyph name="iiMatra-tamil.alt02" format="2">
  <note>
uni0BC0
</note>
  <outline>
    <contour>
      <point x="-305" y="509" type="curve"/>
      <point x="-272" y="545" type="line"/>
      <point x="-303" y="570"/>
      <point x="-321" y="618"/>
      <point x="-321" y="667" type="curve" smooth="yes"/>
      <point x="-321" y="758"/>
      <point x="-273" y="843"/>
      <point x="-181" y="843" type="curve" smooth="yes"/>
      <point x="-138" y="843"/>
      <point x="-108" y="815"/>
      <point x="-108" y="767" type="curve" smooth="yes"/>
      <point x="-108" y="720"/>
      <point x="-132" y="680"/>
      <point x="-171" y="680" type="curve" smooth="yes"/>
      <point x="-197" y="680"/>
      <point x="-208" y="703"/>
      <point x="-208" y="735" type="curve" smooth="yes"/>
      <point x="-208" y="774"/>
      <point x="-192" y="827"/>
      <point x="-167" y="866" type="curve"/>
      <point x="-210" y="870" type="line"/>
      <point x="-243" y="821"/>
      <point x="-261" y="767"/>
      <point x="-261" y="721" type="curve" smooth="yes"/>
      <point x="-261" y="656"/>
      <point x="-227" y="607"/>
      <point x="-153" y="607" type="curve" smooth="yes"/>
      <point x="-68" y="607"/>
      <point x="0" y="671"/>
      <point x="0" y="763" type="curve" smooth="yes"/>
      <point x="0" y="855"/>
      <point x="-72" y="906"/>
      <point x="-165" y="906" type="curve" smooth="yes"/>
      <point x="-296" y="906"/>
      <point x="-383" y="789"/>
      <point x="-383" y="669" type="curve" smooth="yes"/>
      <point x="-383" y="604"/>
      <point x="-358" y="548"/>
    </contour>
  </outline>
</glyph>
<glyph name="kii-tamil" format="2">
  <advance width="701"/>
  <note>
uni0B95
</note>
  <anchor x="290" y="0" name="bottom"/>
  <anchor x="290" y="0" name="nukta"/>
  <anchor x="606" y="906" name="top"/>
  <anchor x="416" y="565" name="vedic"/>
  <outline>
    <contour>
      <point x="187" y="-4" type="curve" smooth="yes"/>
      <point x="305" y="-4"/>
      <point x="377" y="54"/>
      <point x="404" y="182" type="curve" smooth="yes"/>
      <point x="422" y="268" type="line"/>
      <point x="445" y="268" type="line" smooth="yes"/>
      <point x="481" y="268"/>
      <point x="504" y="243"/>
      <point x="504" y="188" type="curve" smooth="yes"/>
      <point x="504" y="126"/>
      <point x="478" y="57"/>
      <point x="416" y="57" type="curve" smooth="yes"/>
      <point x="399" y="57" type="line"/>
      <point x="387" y="-3" type="line"/>
      <point x="440" y="-3" type="line" smooth="yes"/>
      <point x="555" y="-3"/>
      <point x="641" y="66"/>
      <point x="641" y="184" type="curve" smooth="yes"/>
      <point x="641" y="282"/>
      <point x="570" y="329"/>
      <point x="467" y="329" type="curve" smooth="yes"/>
      <point x="435" y="329" type="line"/>
      <point x="472" y="504" type="line"/>
      <point x="588" y="504" type="line"/>
      <point x="601" y="565" type="line"/>
      <point x="180" y="565" type="line"/>
      <point x="122" y="294" type="line"/>
      <point x="186" y="294" type="line"/>
      <point x="230" y="504" type="line"/>
      <point x="329" y="504" type="line"/>
      <point x="292" y="329" type="line"/>
      <point x="185" y="329" type="line" smooth="yes"/>
      <point x="97" y="329"/>
      <point x="14" y="261"/>
      <point x="14" y="153" type="curve" smooth="yes"/>
      <point x="14" y="66"/>
      <point x="74" y="-4"/>
    </contour>
    <contour>
      <point x="161" y="64" type="curve" smooth="yes"/>
      <point x="118" y="64"/>
      <point x="80" y="95"/>
      <point x="80" y="157" type="curve" smooth="yes"/>
      <point x="80" y="224"/>
      <point x="122" y="268"/>
      <point x="176" y="268" type="curve" smooth="yes"/>
      <point x="279" y="268" type="line"/>
      <point x="259" y="170" type="line" smooth="yes"/>
      <point x="243" y="92"/>
      <point x="211" y="64"/>
    </contour>
    <component base="iiMatra-tamil" xOffset="500"/>
  </outline>
</glyph>
